<svg width="24" height="24" viewBox="0 0 24 24" fill="none" xmlns="http://www.w3.org/2000/svg">
<path fill-rule="evenodd" clip-rule="evenodd" d="M18 3.5H6C4.61929 3.5 3.5 4.61929 3.5 6V18C3.5 19.3807 4.61929 20.5 6 20.5H18C19.3807 20.5 20.5 19.3807 20.5 18V6C20.5 4.61929 19.3807 3.5 18 3.5ZM6 2C3.79086 2 2 3.79086 2 6V18C2 20.2091 3.79086 22 6 22H18C20.2091 22 22 20.2091 22 18V6C22 3.79086 20.2091 2 18 2H6Z" fill="#333333"/>
<path fill-rule="evenodd" clip-rule="evenodd" d="M12 6C12.4276 6 12.7742 6.34662 12.7742 6.77419V11.2258H17.2258C17.6534 11.2258 18 11.5724 18 12C18 12.4276 17.6534 12.7742 17.2258 12.7742H12.7742V17.2258C12.7742 17.6534 12.4276 18 12 18C11.5724 18 11.2258 17.6534 11.2258 17.2258V12.7742H6.77419C6.34662 12.7742 6 12.4276 6 12C6 11.5724 6.34662 11.2258 6.77419 11.2258H11.2258V6.77419C11.2258 6.34662 11.5724 6 12 6Z" fill="#333333"/>
</svg>
