<svg width="24" height="24" viewBox="0 0 24 24" fill="none" xmlns="http://www.w3.org/2000/svg">
<path fill-rule="evenodd" clip-rule="evenodd" d="M6 2C3.79086 2 2 3.79086 2 6V18C2 20.2091 3.79086 22 6 22H18C20.2091 22 22 20.2091 22 18V6C22 3.79086 20.2091 2 18 2H6ZM12.7742 6.77419C12.7742 6.34662 12.4276 6 12 6C11.5724 6 11.2258 6.34662 11.2258 6.77419V11.2258H6.77419C6.34662 11.2258 6 11.5724 6 12C6 12.4276 6.34662 12.7742 6.77419 12.7742H11.2258V17.2258C11.2258 17.6534 11.5724 18 12 18C12.4276 18 12.7742 17.6534 12.7742 17.2258V12.7742H17.2258C17.6534 12.7742 18 12.4276 18 12C18 11.5724 17.6534 11.2258 17.2258 11.2258H12.7742V6.77419Z" fill="#333333"/>
</svg>
