<svg width="24" height="24" viewBox="0 0 24 24" fill="none" xmlns="http://www.w3.org/2000/svg">
<path fill-rule="evenodd" clip-rule="evenodd" d="M2.25 12C2.25 6.61704 6.61704 2.25 12 2.25C17.383 2.25 21.75 6.61704 21.75 12C21.75 17.383 17.383 21.75 12 21.75C6.61704 21.75 2.25 17.383 2.25 12ZM12 3.75C7.44546 3.75 3.75 7.44546 3.75 12C3.75 16.5545 7.44546 20.25 12 20.25C16.5545 20.25 20.25 16.5545 20.25 12C20.25 7.44546 16.5545 3.75 12 3.75Z" fill="#333333"/>
<path fill-rule="evenodd" clip-rule="evenodd" d="M11.9886 6.50239C12.1517 6.50076 12.3133 6.53427 12.4637 6.60091C12.6142 6.66758 12.7502 6.766 12.8635 6.89016C12.9768 7.01432 13.065 7.16161 13.1226 7.32302C13.1802 7.48442 13.2062 7.65657 13.1988 7.82894L13.1987 7.83053L12.9447 13.5469C12.921 14.0804 12.5052 14.5 12.0002 14.5C11.4953 14.5 11.0794 14.0805 11.0557 13.547L10.8013 7.83061L11.3066 7.80546L10.8012 7.82894C10.7939 7.65862 10.8191 7.48849 10.8754 7.32871C10.9316 7.16893 11.0177 7.02276 11.1285 6.89895C11.2394 6.77513 11.3726 6.67621 11.5204 6.60807C11.6681 6.53998 11.8275 6.50404 11.9886 6.50239ZM11.3096 7.80531C11.3096 7.80557 11.3096 7.80505 11.3096 7.80531V7.80531ZM12.0068 8.5023L12 7.7714L12.0068 8.5023ZM12.0068 8.5023L12 7.7714L12.0068 8.5023Z" fill="#333333"/>
<path d="M12 17.2458C11.8146 17.2458 11.6333 17.1908 11.4792 17.0878C11.325 16.9848 11.2048 16.8384 11.1339 16.6671C11.0629 16.4957 11.0443 16.3072 11.0805 16.1254C11.1167 15.9435 11.206 15.7765 11.3371 15.6454C11.4682 15.5143 11.6352 15.425 11.8171 15.3888C11.999 15.3526 12.1875 15.3712 12.3588 15.4422C12.5301 15.5131 12.6765 15.6333 12.7795 15.7874C12.8825 15.9416 12.9375 16.1229 12.9375 16.3083C12.9375 16.5569 12.8387 16.7954 12.6629 16.9712C12.4871 17.147 12.2486 17.2458 12 17.2458Z" fill="#333333"/>
</svg>
