<svg width="24" height="24" viewBox="0 0 24 24" fill="none" xmlns="http://www.w3.org/2000/svg">
<path fill-rule="evenodd" clip-rule="evenodd" d="M9.19065 3.23546C9.67114 3.03473 10.1867 2.93137 10.7074 2.93137C11.2281 2.93137 11.7437 3.03473 12.2242 3.23546C12.7047 3.43619 13.1405 3.7303 13.5065 4.10074C13.8725 4.47118 14.1613 4.91057 14.3561 5.39345C14.5505 5.87493 14.6476 6.39009 14.6419 6.90924L14.6358 15.7548C14.6249 16.4447 14.3431 17.1027 13.8513 17.5867C13.3596 18.0708 12.6973 18.342 12.0073 18.342C11.3173 18.342 10.6549 18.0708 10.1632 17.5867C9.67145 17.1027 9.38973 16.4447 9.37883 15.7548L9.37865 15.743L9.37874 9C9.37874 8.58579 9.71453 8.25 10.1287 8.25C10.543 8.25 10.8787 8.58579 10.8787 9V15.7363C10.8847 16.0307 11.0055 16.3111 11.2154 16.5177C11.4266 16.7256 11.711 16.842 12.0073 16.842C12.3035 16.842 12.5879 16.7256 12.7991 16.5177C13.009 16.311 13.1298 16.0305 13.1358 15.7361L13.1419 6.89559C13.1458 6.5734 13.0857 6.25364 12.9652 5.95484C12.8446 5.65605 12.6659 5.38416 12.4394 5.15494C12.213 4.92573 11.9433 4.74374 11.6459 4.61953C11.3486 4.49532 11.0296 4.43137 10.7074 4.43137C10.3852 4.43137 10.0662 4.49532 9.76888 4.61953C9.47157 4.74374 9.20187 4.92573 8.97542 5.15494C8.74896 5.38416 8.57026 5.65605 8.44967 5.95484C8.32908 6.25364 8.269 6.5734 8.27291 6.89559L8.27302 6.90469L8.27296 15.8134C8.26581 16.3073 8.35684 16.7977 8.54092 17.2561C8.72499 17.7145 8.99835 18.1317 9.34511 18.4836C9.69187 18.8354 10.1051 19.1147 10.5608 19.3054C11.0165 19.4961 11.5055 19.5943 11.9995 19.5943C12.4935 19.5943 12.9826 19.4961 13.4382 19.3054C13.8939 19.1147 14.3072 18.8354 14.6539 18.4836C15.0007 18.1317 15.2741 17.7145 15.4581 17.2561C15.6422 16.7977 15.7333 16.3073 15.7262 15.8134L15.726 15.8025L15.7261 7.48781C15.7261 7.0736 16.0619 6.73781 16.4761 6.73781C16.8903 6.73781 17.2261 7.0736 17.2261 7.48781V15.7973C17.2353 16.4881 17.1075 17.1739 16.8501 17.8151C16.5919 18.4579 16.2086 19.0431 15.7222 19.5365C15.2359 20.0299 14.6564 20.4217 14.0173 20.6892C13.3782 20.9566 12.6923 21.0943 11.9995 21.0943C11.3067 21.0943 10.6209 20.9566 9.98177 20.6892C9.34268 20.4217 8.76313 20.0299 8.27681 19.5365C7.79049 19.0431 7.40711 18.4579 7.14895 17.8151C6.89149 17.1739 6.76371 16.4881 6.77296 15.7973V6.909C6.76729 6.38993 6.86439 5.87486 7.05869 5.39345C7.25357 4.91057 7.54237 4.47117 7.90834 4.10074C8.27431 3.7303 8.71017 3.43619 9.19065 3.23546Z" fill="#333333"/>
</svg>
