<svg width="24" height="24" viewBox="0 0 24 24" fill="none" xmlns="http://www.w3.org/2000/svg">
<path fill-rule="evenodd" clip-rule="evenodd" d="M15.75 7.5H8.25H6.75H3.75C3.35217 7.5 2.97064 7.65804 2.68934 7.93934C2.40804 8.22064 2.25 8.60217 2.25 9V19.125C2.25 20.9567 3.79329 22.5 5.625 22.5H18.375C20.1846 22.5 21.75 21.0371 21.75 19.1836V9C21.75 8.60218 21.592 8.22065 21.3107 7.93934C21.0294 7.65804 20.6478 7.5 20.25 7.5H17.25H15.75ZM3.75 9L3.75 19.125C3.75 20.1283 4.62171 21 5.625 21H18.375C19.4004 21 20.25 20.1651 20.25 19.1836V9H3.75Z" fill="#333333"/>
<path d="M12.75 12C12.75 11.5858 12.4142 11.25 12 11.25C11.5858 11.25 11.25 11.5858 11.25 12V14.25H9C8.58579 14.25 8.25 14.5858 8.25 15C8.25 15.4142 8.58579 15.75 9 15.75H11.25V18C11.25 18.4142 11.5858 18.75 12 18.75C12.4142 18.75 12.75 18.4142 12.75 18V15.75H15C15.4142 15.75 15.75 15.4142 15.75 15C15.75 14.5858 15.4142 14.25 15 14.25H12.75V12Z" fill="#333333"/>
<path fill-rule="evenodd" clip-rule="evenodd" d="M6.75 7.5H8.25V6.75C8.25 5.75544 8.64509 4.80161 9.34835 4.09835C10.0516 3.39509 11.0054 3 12 3C12.9946 3 13.9484 3.39509 14.6517 4.09835C15.3549 4.80161 15.75 5.75544 15.75 6.75V7.5H17.25V6.75C17.25 5.35761 16.6969 4.02226 15.7123 3.03769C14.7277 2.05312 13.3924 1.5 12 1.5C10.6076 1.5 9.27226 2.05312 8.28769 3.03769C7.30312 4.02226 6.75 5.35761 6.75 6.75V7.5Z" fill="#333333"/>
</svg>
