<svg width="24" height="24" viewBox="0 0 24 24" fill="none" xmlns="http://www.w3.org/2000/svg">
<path d="M10.861 6.18244L11.8353 5.61994C12.194 5.41283 12.6527 5.53574 12.8598 5.89446L17.9223 14.663C18.1294 15.0217 18.0065 15.4804 17.6478 15.6875L16.6735 16.25L10.861 6.18244Z" fill="#333333"/>
<path fill-rule="evenodd" clip-rule="evenodd" d="M6.28448 17.5682L4.52486 14.5205L10.6241 7.83472L15.1241 15.6289L12.3219 16.2437L12.5265 17.1794C12.5707 17.3817 12.4426 17.5816 12.2402 17.6259L8.21041 18.5069C8.00808 18.5511 7.8082 18.423 7.76397 18.2206L7.56015 17.2884L6.28448 17.5682ZM8.10959 17.1678L8.27345 17.9173L11.9369 17.1164L11.7725 16.3642L8.10959 17.1678Z" fill="#333333"/>
<path d="M2.28087 14.3838C1.92215 14.5909 1.79925 15.0496 2.00635 15.4083L4.25635 19.3054C4.46345 19.6641 4.92216 19.787 5.28087 19.5799L6.25515 19.0174L3.25515 13.8213L2.28087 14.3838Z" fill="#333333"/>
<path d="M17.7413 9.10583C17.586 8.83679 17.6782 8.49277 17.9472 8.33744L20.87 6.64994C21.1391 6.49461 21.4831 6.58679 21.6384 6.85583C21.7938 7.12486 21.7016 7.46888 21.4325 7.62421L18.5097 9.31171C18.2407 9.46704 17.8966 9.37487 17.7413 9.10583Z" fill="#333333"/>
<path d="M15.7952 8.17258C15.5262 8.01725 15.434 7.67323 15.5893 7.40419L17.2768 4.48136C17.4322 4.21232 17.7762 4.12014 18.0452 4.27547C18.3142 4.4308 18.4064 4.77482 18.2511 5.04386L16.5636 7.96669C16.4083 8.23573 16.0642 8.32791 15.7952 8.17258Z" fill="#333333"/>
<path d="M17.5949 11.2897C17.5949 10.979 17.8467 10.7272 18.1574 10.7272H21.5324C21.843 10.7272 22.0949 10.979 22.0949 11.2897C22.0949 11.6003 21.843 11.8522 21.5324 11.8522H18.1574C17.8467 11.8522 17.5949 11.6003 17.5949 11.2897Z" fill="#333333"/>
</svg>
