<svg width="24" height="24" viewBox="0 0 24 24" fill="none" xmlns="http://www.w3.org/2000/svg">
<path d="M15.5893 6.40419C15.434 6.67323 15.5262 7.01725 15.7952 7.17258C16.0643 7.32791 16.4083 7.23573 16.5636 6.96669L18.2511 4.04386C18.4064 3.77482 18.3143 3.4308 18.0452 3.27547C17.7762 3.12014 17.4322 3.21232 17.2768 3.48136L15.5893 6.40419Z" fill="#333333"/>
<path d="M11.8353 4.61994L10.861 5.18244L11.333 6L10.6242 6.83472L4.52487 13.5205L6.28449 16.5682L15.1242 14.6289L16.1863 14.4062L16.6735 15.25L17.6478 14.6875C18.0065 14.4804 18.1294 14.0217 17.9223 13.663L12.8598 4.89446C12.6527 4.53574 12.194 4.41283 11.8353 4.61994Z" fill="#333333"/>
<path d="M2.00637 14.4083C1.79926 14.0496 1.92217 13.5909 2.28088 13.3838L3.25516 12.8213L6.25516 18.0174L5.28088 18.5799C4.92217 18.787 4.46347 18.6641 4.25637 18.3054L2.00637 14.4083Z" fill="#333333"/>
<path d="M17.7413 8.10583C17.586 7.83679 17.6782 7.49277 17.9472 7.33744L20.8701 5.64994C21.1391 5.49461 21.4831 5.58679 21.6384 5.85583C21.7938 6.12486 21.7016 6.46888 21.4326 6.62421L18.5097 8.31171C18.2407 8.46704 17.8967 8.37487 17.7413 8.10583Z" fill="#333333"/>
<path d="M17.5949 10.2897C17.5949 9.97899 17.8467 9.72715 18.1574 9.72715H21.5324C21.843 9.72715 22.0949 9.97899 22.0949 10.2897C22.0949 10.6003 21.843 10.8522 21.5324 10.8522H18.1574C17.8467 10.8522 17.5949 10.6003 17.5949 10.2897Z" fill="#333333"/>
<path d="M12.1651 19.7282C12.4042 19.5901 12.4862 19.2843 12.3481 19.0451L10.8401 16.4332L7.76096 17.1L9.75001 20.5451C9.88808 20.7843 10.1939 20.8662 10.433 20.7282L12.1651 19.7282Z" fill="#333333"/>
</svg>
