<svg width="24" height="24" viewBox="0 0 24 24" fill="none" xmlns="http://www.w3.org/2000/svg">
<path d="M18.3281 22.5C17.4131 22.5 16.1278 22.1691 14.2031 21.0938C11.8627 19.7812 10.0524 18.5695 7.72455 16.2478C5.48018 14.0048 4.38799 12.5527 2.8594 9.77109C1.13252 6.63047 1.4269 4.98422 1.75596 4.28062C2.14783 3.43969 2.72627 2.93672 3.47393 2.4375C3.89859 2.15927 4.34799 1.92076 4.81643 1.725C4.8633 1.70484 4.9069 1.68562 4.9458 1.66828C5.17783 1.56375 5.5294 1.40578 5.97471 1.57453C6.2719 1.68609 6.53721 1.91438 6.95252 2.32453C7.80424 3.16453 8.96814 5.03531 9.39752 5.95406C9.6858 6.57328 9.87658 6.98203 9.87705 7.44047C9.87705 7.97719 9.60705 8.39109 9.2794 8.83781C9.21799 8.92172 9.15705 9.00187 9.09799 9.07969C8.74127 9.54844 8.66299 9.68391 8.71455 9.92578C8.81908 10.4119 9.59861 11.8589 10.8797 13.1372C12.1608 14.4155 13.5661 15.1458 14.0541 15.2498C14.3063 15.3037 14.4446 15.2222 14.9283 14.8528C14.9977 14.7998 15.0689 14.745 15.1435 14.6902C15.6431 14.3184 16.0378 14.0555 16.5619 14.0555H16.5647C17.0208 14.0555 17.4113 14.2533 18.0581 14.5795C18.9019 15.0052 20.8289 16.1541 21.6741 17.0067C22.0852 17.4211 22.3144 17.6855 22.4264 17.9822C22.5952 18.4289 22.4363 18.7791 22.3327 19.0134C22.3153 19.0523 22.2961 19.095 22.276 19.1423C22.0786 19.6099 21.8387 20.0584 21.5592 20.482C21.061 21.2273 20.5561 21.8044 19.7133 22.1967C19.2805 22.4014 18.8069 22.5051 18.3281 22.5Z" fill="#333333"/>
</svg>
