<svg width="24" height="24" viewBox="0 0 24 24" fill="none" xmlns="http://www.w3.org/2000/svg">
<path fill-rule="evenodd" clip-rule="evenodd" d="M8.24699 4.5095C8.63032 4.06263 9.189 3.75 9.84375 3.75H14.1562C14.811 3.75 15.3697 4.06263 15.753 4.5095C15.7766 4.53698 15.7981 4.56613 15.8175 4.59672L17.0323 6.51606C17.1852 6.67824 17.3604 6.75 17.4844 6.75H20.25C20.8467 6.75 21.419 6.98705 21.841 7.40901C22.2629 7.83097 22.5 8.40326 22.5 9V18C22.5 18.5967 22.2629 19.169 21.841 19.591C21.419 20.0129 20.8467 20.25 20.25 20.25H3.75C3.15326 20.25 2.58097 20.0129 2.15901 19.591C1.73705 19.169 1.5 18.5967 1.5 18V9C1.5 8.40326 1.73705 7.83097 2.15901 7.40901C2.58097 6.98705 3.15326 6.75 3.75 6.75H6.5625C6.66111 6.75 6.79871 6.70102 6.96661 6.51785L8.18251 4.59672C8.20187 4.56613 8.22342 4.53698 8.24699 4.5095ZM9.41651 5.4518L8.20217 7.37047C8.18292 7.4009 8.16149 7.4299 8.13806 7.45725C7.79468 7.85818 7.26578 8.25 6.5625 8.25H3.75C3.55109 8.25 3.36032 8.32902 3.21967 8.46967C3.07902 8.61032 3 8.80109 3 9V18C3 18.1989 3.07902 18.3897 3.21967 18.5303C3.36032 18.671 3.55109 18.75 3.75 18.75H20.25C20.4489 18.75 20.6397 18.671 20.7803 18.5303C20.921 18.3897 21 18.1989 21 18V9C21 8.80109 20.921 8.61032 20.7803 8.46967C20.6397 8.32902 20.4489 8.25 20.25 8.25H17.4844C16.8059 8.25 16.2281 7.88473 15.8619 7.45725C15.8385 7.4299 15.8171 7.4009 15.7978 7.37047L14.5835 5.4518C14.4486 5.3102 14.2986 5.25 14.1562 5.25H9.84375C9.70139 5.25 9.55137 5.3102 9.41651 5.4518Z" fill="#333333"/>
<path fill-rule="evenodd" clip-rule="evenodd" d="M3.9375 6.375C3.9375 5.96079 4.27329 5.625 4.6875 5.625H5.8125C6.22671 5.625 6.5625 5.96079 6.5625 6.375V7.40625C6.5625 7.82046 6.22671 8.15625 5.8125 8.15625H4.6875C4.27329 8.15625 3.9375 7.82046 3.9375 7.40625V6.375ZM11.4239 8.28306C12.271 8.17589 13.131 8.31191 13.9036 8.67522C14.6763 9.03854 15.3296 9.61416 15.7874 10.3349C16.2451 11.0556 16.4884 11.8917 16.4888 12.7454V13.3697C16.4888 13.7839 16.153 14.1197 15.7388 14.1197C15.3245 14.1197 14.9888 13.7839 14.9888 13.3697V12.7461C14.9888 12.746 14.9888 12.7462 14.9888 12.7461C14.9884 12.177 14.8263 11.6195 14.5212 11.1391C14.216 10.6586 13.7804 10.2748 13.2653 10.0326C12.7503 9.79043 12.1769 9.69975 11.6122 9.7712C11.0475 9.84264 10.5148 10.0733 10.0762 10.4361C9.75712 10.7002 9.28435 10.6555 9.02029 10.3364C8.75623 10.0173 8.80087 9.5445 9.12 9.28044C9.7778 8.73615 10.5769 8.39023 11.4239 8.28306ZM8.25 11.3803C8.66421 11.3803 9 11.7161 9 12.1303V12.7537C9.00041 13.3217 9.16207 13.8779 9.46618 14.3576C9.77028 14.8374 10.2043 15.2209 10.7179 15.4637C11.2314 15.7064 11.8033 15.7984 12.367 15.7289C12.9307 15.6595 13.4632 15.4314 13.9024 15.0712C14.2227 14.8085 14.6952 14.8552 14.9579 15.1755C15.2206 15.4958 15.1738 15.9684 14.8536 16.231C14.1948 16.7713 13.3961 17.1135 12.5505 17.2177C11.7049 17.3219 10.8471 17.1839 10.0768 16.8198C9.3065 16.4557 8.65543 15.8803 8.19927 15.1607C7.74311 14.4411 7.50062 13.6068 7.5 12.7548L7.5 12.1303C7.5 11.7161 7.83579 11.3803 8.25 11.3803Z" fill="#333333"/>
<path fill-rule="evenodd" clip-rule="evenodd" d="M7.71966 11.2822C8.01255 10.9893 8.48743 10.9893 8.78032 11.2822L9.71782 12.2197C9.93232 12.4342 9.99649 12.7568 9.8804 13.037C9.76432 13.3173 9.49084 13.5 9.18749 13.5H7.31249C7.00914 13.5 6.73567 13.3173 6.61958 13.037C6.5035 12.7568 6.56766 12.4342 6.78216 12.2197L7.71966 11.2822ZM14.2822 12.2197C14.5751 11.9268 15.0499 11.9268 15.3428 12.2197L15.75 12.6268L16.1572 12.2197C16.4501 11.9268 16.9249 11.9268 17.2178 12.2197C17.5107 12.5126 17.5107 12.9874 17.2178 13.2803L16.2803 14.2178C15.9874 14.5107 15.5126 14.5107 15.2197 14.2178L14.2822 13.2803C13.9893 12.9874 13.9893 12.5126 14.2822 12.2197Z" fill="#333333"/>
</svg>
