<svg width="24" height="24" viewBox="0 0 24 24" fill="none" xmlns="http://www.w3.org/2000/svg">
<path fill-rule="evenodd" clip-rule="evenodd" d="M6.75 19.5C6.75 18.6716 7.42157 18 8.25 18C9.07843 18 9.75 18.6716 9.75 19.5C9.75 20.3284 9.07843 21 8.25 21C7.42157 21 6.75 20.3284 6.75 19.5Z" fill="#333333"/>
<path fill-rule="evenodd" clip-rule="evenodd" d="M17.25 19.5C17.25 18.6716 17.9216 18 18.75 18C19.5784 18 20.25 18.6716 20.25 19.5C20.25 20.3284 19.5784 21 18.75 21C17.9216 21 17.25 20.3284 17.25 19.5Z" fill="#333333"/>
<path fill-rule="evenodd" clip-rule="evenodd" d="M1.5 3.75C1.5 3.33579 1.83579 3 2.25 3H5.25C5.61393 3 5.92534 3.26127 5.98859 3.61966L8.12924 15.75H19.5C19.9142 15.75 20.25 16.0858 20.25 16.5C20.25 16.9142 19.9142 17.25 19.5 17.25H7.5C7.13607 17.25 6.82466 16.9887 6.76141 16.6303L4.62076 4.5H2.25C1.83579 4.5 1.5 4.16421 1.5 3.75Z" fill="#333333"/>
<path fill-rule="evenodd" clip-rule="evenodd" d="M20.5425 5.25C20.7088 5.24996 20.8731 5.28681 21.0235 5.3579C21.1741 5.42907 21.307 5.53277 21.4126 5.66152C21.5182 5.79027 21.5939 5.94086 21.6342 6.10243C21.6746 6.26396 21.6786 6.43243 21.6459 6.59568C21.6459 6.59571 21.6459 6.59565 21.6459 6.59568L20.2959 13.3457C20.2448 13.6008 20.1069 13.8304 19.9056 13.9953C19.7044 14.1602 19.4522 14.2502 19.192 14.25H7.5C7.08579 14.25 6.75 13.9142 6.75 13.5C6.75 13.0858 7.08579 12.75 7.5 12.75H18.8853L18.8251 13.0514C18.8421 12.9664 18.888 12.8898 18.9551 12.8349C19.0221 12.7801 19.106 12.7501 19.1925 12.75H18.8853L20.0853 6.75H20.5425C20.4872 6.74996 20.4325 6.73768 20.3825 6.71403C20.3323 6.69031 20.288 6.65574 20.2528 6.61283C20.2176 6.56991 20.1924 6.51972 20.1789 6.46586C20.1655 6.41204 20.1642 6.3559 20.175 6.30151M20.5425 5.25H6C5.58579 5.25 5.25 5.58579 5.25 6C5.25 6.41421 5.58579 6.75 6 6.75H20.0853L20.175 6.30151M20.5425 5.25C20.5426 5.25 20.5424 5.25 20.5425 5.25V5.25Z" fill="#333333"/>
<path d="M20.0853 6.75H20.5425C20.4872 6.74996 20.4325 6.73768 20.3825 6.71403C20.3323 6.69031 20.288 6.65574 20.2528 6.61283C20.2176 6.56991 20.1924 6.51972 20.1789 6.46586C20.1655 6.41204 20.1642 6.3559 20.175 6.30151L20.0853 6.75Z" fill="#333333"/>
<path d="M18.8853 12.75L18.8251 13.0514C18.8421 12.9664 18.888 12.8898 18.9551 12.8349C19.0221 12.7801 19.106 12.7501 19.1925 12.75H18.8853Z" fill="#333333"/>
</svg>
