<svg width="24" height="24" viewBox="0 0 24 24" fill="none" xmlns="http://www.w3.org/2000/svg">
<path fill-rule="evenodd" clip-rule="evenodd" d="M11.992 3C6.9941 3 2.98492 6.95015 2.99998 11.7792L2.99999 11.7816C2.99993 13.4614 3.49092 15.1045 4.41234 16.5088C4.46497 16.5806 4.5142 16.655 4.55988 16.7315L4.5635 16.7375L4.56701 16.7437C4.64096 16.873 4.72865 17.0473 4.78908 17.2397C4.84438 17.4157 4.90808 17.7028 4.82484 18.0091L4.82397 18.0123L4.04976 20.8128L6.72857 19.846C6.99535 19.7363 7.28126 19.6803 7.56987 19.6814L7.56702 20.4313L7.56785 19.6814C7.56853 19.6814 7.5692 19.6814 7.56987 19.6814C7.83913 19.682 8.10602 19.7318 8.35736 19.8284L8.35845 19.8288C8.51048 19.8875 9.11609 20.1125 9.71494 20.2801C10.3036 20.4449 11.3908 20.6447 12.1598 20.6447C17.1328 20.6447 20.9998 16.6518 21 11.7889C20.9998 11.1856 20.9359 10.5838 20.8095 9.99391L20.8091 9.99234C19.9657 6.01596 16.3473 3 11.992 3ZM1.49999 11.7827C1.48289 6.08891 6.19971 1.5 11.992 1.5C17.0471 1.5 21.2838 5.00303 22.2763 9.68031C22.4248 10.3732 22.4997 11.0797 22.5 11.7883C22.5 17.4637 17.9774 22.1447 12.1598 22.1447C11.2133 22.1447 9.98477 21.9133 9.31065 21.7246C8.64787 21.5391 7.99369 21.2959 7.81901 21.2284C7.73832 21.1974 7.65262 21.1815 7.56618 21.1814L7.56416 21.1814C7.47092 21.181 7.37857 21.1996 7.29271 21.236L7.274 21.2439L4.09306 22.3919C4.10128 22.3885 4.10946 22.3851 4.11762 22.3816L3.82077 21.6928L4.07537 22.3983L4.09306 22.3919C3.96101 22.446 3.82185 22.4811 3.67981 22.4959L3.63981 22.5001L3.5996 22.5C3.44084 22.4995 3.28376 22.4675 3.13745 22.4059C2.99114 22.3443 2.85852 22.2543 2.74725 22.141C2.63599 22.0278 2.5483 21.8936 2.48927 21.7462C2.43024 21.5989 2.40103 21.4412 2.40335 21.2825L2.40368 21.26L2.40536 21.2375C2.41304 21.1349 2.4313 21.0333 2.45985 20.9345L2.45851 20.9394L3.18134 21.1392L2.46187 20.9276C2.46119 20.9299 2.46052 20.9322 2.45985 20.9345L3.3575 17.6875C3.35767 17.6881 3.35784 17.6886 3.358 17.6891C3.36425 17.709 3.36571 17.7185 3.36575 17.7185C3.36576 17.7185 3.36567 17.7178 3.36554 17.7164C3.365 17.7107 3.36183 17.6729 3.37732 17.6159L4.10108 17.8125L3.37819 17.6127L3.37732 17.6159L3.3575 17.6875C3.34113 17.6361 3.30989 17.5678 3.26839 17.4945C3.26959 17.4964 3.27078 17.4984 3.27197 17.5004L3.91592 17.1159L3.26483 17.4882C3.26603 17.4903 3.26721 17.4924 3.26839 17.4945C3.24582 17.4571 3.22145 17.4208 3.19537 17.3858L3.18255 17.3686L3.17073 17.3507C2.08105 15.6981 1.50015 13.7622 1.49999 11.7827ZM1.49999 11.7827C1.49999 11.7831 1.49999 11.7835 1.49999 11.7839L2.24999 11.7816L1.49999 11.7815C1.49999 11.7819 1.49999 11.7823 1.49999 11.7827Z" fill="#333333"/>
</svg>
