<svg width="24" height="24" viewBox="0 0 24 24" fill="none" xmlns="http://www.w3.org/2000/svg">
<path fill-rule="evenodd" clip-rule="evenodd" d="M11.9916 3C6.99362 3 2.9845 6.95014 2.99998 11.7792L2.99999 11.7816C2.99993 13.4612 3.49076 15.104 4.41189 16.5081C4.46522 16.5806 4.51495 16.6557 4.5609 16.7332L4.5671 16.7436C4.64104 16.8729 4.72872 17.0474 4.78912 17.24C4.84441 17.4163 4.90802 17.7038 4.82396 18.0107L4.8235 18.0123L4.04929 20.8128L6.72857 19.846C6.99514 19.7364 7.28082 19.6804 7.56921 19.6814L7.56655 20.4314L7.56737 19.6814C7.56798 19.6814 7.5686 19.6814 7.56921 19.6814C7.83861 19.6819 8.10565 19.7317 8.35715 19.8283L8.35845 19.8288C8.51048 19.8875 9.1161 20.1125 9.71494 20.2801C10.3037 20.4449 11.3903 20.6447 12.1598 20.6447C17.1328 20.6447 20.9998 16.6519 21 11.789C21 11.7889 21 11.7892 21 11.789C20.9996 11.1857 20.9356 10.584 20.809 9.99409L20.8086 9.99226C19.9657 6.016 16.3469 3 11.9916 3ZM1.49999 11.7828C1.4824 6.08889 6.19927 1.5 11.9916 1.5C17.0465 1.5 21.2838 5.00292 22.2758 9.68026C22.4244 10.3731 22.4996 11.0796 22.5 11.7882C22.5 17.4635 17.9774 22.1447 12.1598 22.1447C11.2128 22.1447 9.98475 21.9133 9.31066 21.7246C8.64789 21.5391 7.99374 21.2959 7.81904 21.2284C7.81872 21.2283 7.8184 21.2282 7.81809 21.2281L8.08827 20.5284L7.81904 21.2284C7.81892 21.2284 7.81915 21.2285 7.81904 21.2284C7.73818 21.1974 7.65233 21.1815 7.56573 21.1814L7.56389 21.1814C7.47075 21.1811 7.37852 21.1996 7.29275 21.2359L7.27401 21.2439L4.09287 22.3918C4.10122 22.3884 4.10954 22.3849 4.11783 22.3813L3.8203 21.6928L4.07487 22.3983L4.09287 22.3918C3.96092 22.446 3.82184 22.4811 3.67986 22.4959L3.63983 22.5001L3.59959 22.5C3.44088 22.4995 3.28385 22.4676 3.13756 22.406C2.99128 22.3444 2.85866 22.2545 2.74737 22.1413C2.63608 22.0282 2.54833 21.8941 2.4892 21.7468C2.43006 21.5995 2.40072 21.442 2.40287 21.2833L2.40318 21.2603L2.40489 21.2375C2.41257 21.1349 2.43083 21.0333 2.45939 20.9345L2.45804 20.9394L3.18087 21.1392L2.46141 20.9276C2.46073 20.9299 2.46005 20.9322 2.45939 20.9345L3.35722 17.6868C3.35743 17.6875 3.35764 17.6882 3.35785 17.6888C3.36401 17.7085 3.36545 17.7178 3.36549 17.7178C3.36551 17.7178 3.36541 17.7171 3.36527 17.7156C3.36471 17.7096 3.3616 17.6715 3.37727 17.6143L4.10061 17.8125L3.37773 17.6127L3.37727 17.6143L3.35722 17.6868C3.34963 17.663 3.33793 17.6329 3.32152 17.5974C3.30569 17.5631 3.28738 17.528 3.26791 17.4936C3.26893 17.4953 3.26994 17.497 3.27095 17.4987L3.91593 17.1159L3.26483 17.4882C3.26586 17.49 3.26689 17.4918 3.26791 17.4936C3.24596 17.457 3.22215 17.4216 3.19657 17.3874L3.1831 17.3694L3.17073 17.3507C2.08105 15.6981 1.50016 13.7622 1.49999 11.7828ZM1.49999 11.7828C1.49999 11.7832 1.49999 11.7836 1.49999 11.784L2.24999 11.7816L1.49999 11.7815C1.49999 11.7819 1.49999 11.7823 1.49999 11.7828Z" fill="#333333"/>
<path d="M7.5 13.5C8.32843 13.5 9 12.8284 9 12C9 11.1716 8.32843 10.5 7.5 10.5C6.67157 10.5 6 11.1716 6 12C6 12.8284 6.67157 13.5 7.5 13.5Z" fill="#333333"/>
<path d="M12 13.5C12.8284 13.5 13.5 12.8284 13.5 12C13.5 11.1716 12.8284 10.5 12 10.5C11.1716 10.5 10.5 11.1716 10.5 12C10.5 12.8284 11.1716 13.5 12 13.5Z" fill="#333333"/>
<path d="M16.5 13.5C17.3284 13.5 18 12.8284 18 12C18 11.1716 17.3284 10.5 16.5 10.5C15.6716 10.5 15 11.1716 15 12C15 12.8284 15.6716 13.5 16.5 13.5Z" fill="#333333"/>
</svg>
