<svg width="24" height="24" viewBox="0 0 24 24" fill="none" xmlns="http://www.w3.org/2000/svg">
<path d="M18.6562 3.83625C16.7647 2.3228 14.414 1.4988 11.9916 1.5C9.13593 1.5 6.46874 2.60016 4.47468 4.59797C2.54765 6.5311 1.49155 9.08344 1.49999 11.783C1.50005 13.7622 2.08111 15.6978 3.17108 17.3498L3.17999 17.3625C3.19311 17.3817 3.20671 17.4009 3.2203 17.4197C3.2339 17.4384 3.25077 17.4628 3.25452 17.4689L3.26483 17.4877C3.3178 17.5814 3.35858 17.6958 3.32249 17.8111L2.45905 20.9358C2.42451 21.052 2.40559 21.1723 2.4028 21.2934C2.40218 21.6123 2.528 21.9183 2.75269 22.1445C2.97738 22.3707 3.28259 22.4985 3.6014 22.5C3.76986 22.4944 3.93588 22.4581 4.09124 22.3927L7.25483 21.2508L7.29468 21.2353C7.38073 21.1992 7.47322 21.1808 7.56655 21.1814C7.65261 21.1816 7.73791 21.1975 7.81827 21.2283C7.89421 21.2578 8.58374 21.5217 9.31124 21.7252C9.91593 21.8939 11.1741 22.147 12.1598 22.147C14.9559 22.147 17.5669 21.0642 19.5112 19.0973C21.4387 17.1455 22.5 14.5509 22.5 11.7886C22.5002 11.0795 22.4251 10.3724 22.2759 9.67922C21.7912 7.40016 20.5059 5.32453 18.6562 3.83625ZM7.49999 13.5C7.20332 13.5 6.91331 13.412 6.66663 13.2472C6.41996 13.0824 6.2277 12.8481 6.11417 12.574C6.00064 12.2999 5.97093 11.9983 6.02881 11.7074C6.08669 11.4164 6.22955 11.1491 6.43933 10.9393C6.64911 10.7296 6.91638 10.5867 7.20735 10.5288C7.49832 10.4709 7.79992 10.5007 8.07401 10.6142C8.3481 10.7277 8.58237 10.92 8.74719 11.1666C8.91202 11.4133 8.99999 11.7033 8.99999 12C8.99999 12.3978 8.84195 12.7794 8.56065 13.0607C8.27934 13.342 7.89781 13.5 7.49999 13.5ZM12 13.5C11.7033 13.5 11.4133 13.412 11.1666 13.2472C10.92 13.0824 10.7277 12.8481 10.6142 12.574C10.5006 12.2999 10.4709 11.9983 10.5288 11.7074C10.5867 11.4164 10.7296 11.1491 10.9393 10.9393C11.1491 10.7296 11.4164 10.5867 11.7074 10.5288C11.9983 10.4709 12.2999 10.5007 12.574 10.6142C12.8481 10.7277 13.0824 10.92 13.2472 11.1666C13.412 11.4133 13.5 11.7033 13.5 12C13.5 12.3978 13.342 12.7794 13.0606 13.0607C12.7793 13.342 12.3978 13.5 12 13.5ZM16.5 13.5C16.2033 13.5 15.9133 13.412 15.6666 13.2472C15.42 13.0824 15.2277 12.8481 15.1142 12.574C15.0006 12.2999 14.9709 11.9983 15.0288 11.7074C15.0867 11.4164 15.2296 11.1491 15.4393 10.9393C15.6491 10.7296 15.9164 10.5867 16.2074 10.5288C16.4983 10.4709 16.7999 10.5007 17.074 10.6142C17.3481 10.7277 17.5824 10.92 17.7472 11.1666C17.912 11.4133 18 11.7033 18 12C18 12.3978 17.842 12.7794 17.5606 13.0607C17.2793 13.342 16.8978 13.5 16.5 13.5Z" fill="#333333"/>
</svg>
