<svg width="24" height="24" viewBox="0 0 24 24" fill="none" xmlns="http://www.w3.org/2000/svg">
<path fill-rule="evenodd" clip-rule="evenodd" d="M17.9071 5.24623C18.3234 5.60915 18.3667 6.24084 18.0038 6.65713L11.6288 13.9696C11.2658 14.3859 10.6342 14.4292 10.2179 14.0663C9.80157 13.7033 9.7583 13.0717 10.1212 12.6554L16.4962 5.34286C16.8592 4.92657 17.4908 4.8833 17.9071 5.24623ZM22.4085 5.24742C22.8241 5.6111 22.8663 6.24287 22.5026 6.6585L12.0026 18.6585C11.8203 18.8668 11.5599 18.9902 11.2833 18.9994C11.0067 19.0087 10.7386 18.9028 10.5429 18.7071L6.04289 14.2071C5.65237 13.8166 5.65237 13.1834 6.04289 12.7929C6.43342 12.4024 7.06658 12.4024 7.45711 12.7929L11.2013 16.5371L20.9974 5.34149C21.3611 4.92586 21.9929 4.88374 22.4085 5.24742ZM1.54289 12.7929C1.93342 12.4024 2.56658 12.4024 2.95711 12.7929L7.45711 17.2929C7.84763 17.6834 7.84763 18.3166 7.45711 18.7071C7.06658 19.0976 6.43342 19.0976 6.04289 18.7071L1.54289 14.2071C1.15237 13.8166 1.15237 13.1834 1.54289 12.7929Z" fill="#333333"/>
</svg>
