<svg width="24" height="24" viewBox="0 0 24 24" fill="none" xmlns="http://www.w3.org/2000/svg">
<path fill-rule="evenodd" clip-rule="evenodd" d="M12 21.75C6.61547 21.75 2.25 17.3845 2.25 12C2.25 6.61547 6.61547 2.25 12 2.25C17.3845 2.25 21.75 6.61547 21.75 12C21.75 17.3845 17.3845 21.75 12 21.75ZM10.6553 6.96967C10.3624 6.67678 9.88756 6.67678 9.59467 6.96967C9.30178 7.26256 9.30178 7.73744 9.59467 8.03033L13.5643 12L9.59467 15.9697C9.30178 16.2626 9.30178 16.7374 9.59467 17.0303C9.88756 17.3232 10.3624 17.3232 10.6553 17.0303L15.1553 12.5303C15.4482 12.2374 15.4482 11.7626 15.1553 11.4697L10.6553 6.96967Z" fill="#333333"/>
</svg>
