<svg width="24" height="24" viewBox="0 0 24 24" fill="none" xmlns="http://www.w3.org/2000/svg">
<path d="M16.6875 18.875H6.53125C5.2668 18.875 4.17852 18.5402 3.3832 17.9074C2.47812 17.1867 2 16.1168 2 14.8125C2 12.5637 3.64062 11.2742 5.42031 10.8769C5.53738 10.8503 5.64428 10.7904 5.72824 10.7046C5.8122 10.6188 5.86966 10.5106 5.89375 10.393C6.19375 8.96015 6.84883 7.73085 7.81484 6.79921C8.93921 5.7183 10.4403 5.11778 12 5.12499C13.3867 5.12499 14.6656 5.58163 15.6984 6.4453C16.4044 7.04079 16.9661 7.78874 17.341 8.6328C17.3813 8.72341 17.4427 8.80311 17.5199 8.86533C17.5971 8.92754 17.688 8.97049 17.7852 8.99062C18.8398 9.20976 19.7801 9.66757 20.4875 10.3129C21.477 11.2141 22 12.4461 22 13.875C22 15.2812 21.4383 16.5656 20.4184 17.4918C19.4359 18.384 18.1109 18.875 16.6875 18.875Z" fill="#333333"/>
</svg>
