<svg width="24" height="24" viewBox="0 0 24 24" fill="none" xmlns="http://www.w3.org/2000/svg">
<path fill-rule="evenodd" clip-rule="evenodd" d="M6.5446 6.86192C7.29892 5.00534 9.18581 3.25 12 3.25C15.0271 3.25 17.6073 5.30807 18.176 8.63916C18.9468 8.73362 19.7738 8.96302 20.4651 9.40228C21.3443 9.96096 22 10.8637 22 12.1719C22 13.4372 21.461 14.3731 20.5746 14.965C19.724 15.5329 18.6079 15.75 17.4688 15.75H14.5C14.1548 15.75 13.875 15.4702 13.875 15.125C13.875 14.7798 14.1548 14.5 14.5 14.5H17.4688C18.4781 14.5 19.3151 14.3029 19.8805 13.9254C20.4101 13.5718 20.75 13.0311 20.75 12.1719C20.75 11.3554 20.3706 10.8232 19.7947 10.4573C19.1897 10.0729 18.37 9.88142 17.5941 9.84298C17.2862 9.82773 17.0354 9.5903 17.0034 9.28372C16.6885 6.27087 14.5231 4.5 12 4.5C9.61751 4.5 8.09426 6.07172 7.59516 7.62833C7.51883 7.86638 7.30798 8.03606 7.05911 8.0597C5.96283 8.16385 4.99657 8.48784 4.31922 9.0189C3.66382 9.53275 3.25 10.2593 3.25 11.2813C3.25 12.3013 3.68166 13.0823 4.3838 13.6242C5.10102 14.1777 6.12944 14.5 7.3125 14.5H9.5C9.84518 14.5 10.125 14.7798 10.125 15.125C10.125 15.4702 9.84518 15.75 9.5 15.75H7.3125C5.91744 15.75 4.60211 15.3716 3.62011 14.6137C2.62303 13.8443 2 12.7033 2 11.2813C2 9.86098 2.60181 8.77701 3.54797 8.0352C4.37401 7.38756 5.43734 7.01778 6.5446 6.86192ZM12 10.125C12.3452 10.125 12.625 10.4048 12.625 10.75V18.6178L14.0584 17.1866C14.3027 16.9427 14.6984 16.943 14.9423 17.1873C15.1862 17.4316 15.1859 17.8273 14.9416 18.0712L12.4416 20.5673C12.1976 20.8109 11.8024 20.8109 11.5584 20.5673L9.0584 18.0712C8.81414 17.8273 8.81383 17.4316 9.05771 17.1873C9.3016 16.943 9.69733 16.9427 9.9416 17.1866L11.375 18.6178V10.75C11.375 10.4048 11.6548 10.125 12 10.125Z" fill="#333333"/>
</svg>
