<svg width="24" height="24" viewBox="0 0 24 24" fill="none" xmlns="http://www.w3.org/2000/svg">
<path fill-rule="evenodd" clip-rule="evenodd" d="M12 3.86681C9.18432 3.86681 7.29692 5.624 6.5434 7.48167C4.16113 7.85007 2 9.48088 2 12.2106C2 15.0808 4.47831 16.9918 7.3125 16.9918H9.5C9.84518 16.9918 10.125 16.712 10.125 16.3668C10.125 16.0216 9.84518 15.7418 9.5 15.7418H7.3125C4.99044 15.7418 3.25 14.2247 3.25 12.2106C3.25 10.207 4.90538 8.88111 7.05911 8.6765C7.30798 8.65286 7.51883 8.48319 7.59516 8.24513C8.09426 6.68853 9.61751 5.11681 12 5.11681C14.5231 5.11681 16.6885 6.88767 17.0034 9.90052C17.0354 10.2071 17.2862 10.4445 17.5941 10.4598C18.3294 10.4962 19.1432 10.7485 19.7572 11.2046C20.3558 11.6492 20.75 12.271 20.75 13.1012C20.75 13.9707 20.3995 14.6051 19.8438 15.0374C19.271 15.483 18.4402 15.7418 17.4688 15.7418H14.5C14.1548 15.7418 13.875 16.0216 13.875 16.3668C13.875 16.712 14.1548 16.9918 14.5 16.9918H17.4688C18.6457 16.9918 19.768 16.6801 20.6113 16.024C21.4716 15.3547 22 14.3562 22 13.1012C22 11.8068 21.3591 10.8373 20.5026 10.2011C19.8135 9.68924 18.9766 9.38312 18.1773 9.26348C17.6112 5.92797 15.0294 3.86681 12 3.86681ZM14.9419 11.5499L12.4419 9.04988C12.1979 8.8058 11.8021 8.8058 11.5581 9.04988L9.05806 11.5499C8.81398 11.794 8.81398 12.1897 9.05806 12.4338C9.30214 12.6778 9.69786 12.6778 9.94194 12.4338L11.375 11.0007V19.5082C11.375 19.8534 11.6548 20.1332 12 20.1332C12.3452 20.1332 12.625 19.8534 12.625 19.5082V11.0007L14.0581 12.4338C14.3021 12.6778 14.6979 12.6778 14.9419 12.4338C15.186 12.1897 15.186 11.794 14.9419 11.5499Z" fill="#333333"/>
</svg>
