<svg width="24" height="24" viewBox="0 0 24 24" fill="none" xmlns="http://www.w3.org/2000/svg">
<path d="M20.4648 9.40233C19.9469 9.07303 19.2996 8.83358 18.5867 8.70194C18.4666 8.67893 18.3558 8.62118 18.2682 8.53585C18.1806 8.45051 18.1199 8.34134 18.0938 8.22186C17.7867 6.87381 17.1328 5.71678 16.1738 4.83983C15.0527 3.81444 13.5707 3.24998 12 3.24998C10.6191 3.24998 9.34375 3.6828 8.31367 4.49998C7.61797 5.05466 7.0576 5.76036 6.675 6.56366C6.63244 6.65424 6.56881 6.73331 6.48944 6.79427C6.41006 6.85523 6.31725 6.8963 6.21875 6.91405C5.15898 7.10545 4.24492 7.48748 3.54648 8.03514C2.53516 8.82928 2 9.95155 2 11.2812C2 13.914 4.18477 15.75 7.3125 15.75H11.375V10.7676C11.375 10.4312 11.6336 10.1426 11.9699 10.1258C12.0544 10.1217 12.1389 10.1348 12.2182 10.1644C12.2974 10.1939 12.3699 10.2392 12.4312 10.2976C12.4924 10.3559 12.5412 10.4261 12.5745 10.5039C12.6078 10.5817 12.625 10.6654 12.625 10.75V15.75H17.4688C20.3063 15.75 22 14.4125 22 12.1719C22 10.998 21.4691 10.0402 20.4648 9.40233ZM11.375 18.618L9.94141 17.1867C9.82351 17.0724 9.66538 17.0092 9.5012 17.0105C9.33703 17.0119 9.17998 17.0778 9.06402 17.1941C8.94805 17.3103 8.88247 17.4675 8.88146 17.6317C8.88045 17.7958 8.94407 17.9538 9.05859 18.0715L11.5586 20.5672C11.6758 20.6841 11.8345 20.7497 12 20.7497C12.1655 20.7497 12.3242 20.6841 12.4414 20.5672L14.9414 18.0715C15.0559 17.9538 15.1196 17.7958 15.1185 17.6317C15.1175 17.4675 15.0519 17.3103 14.936 17.1941C14.82 17.0778 14.663 17.0119 14.4988 17.0105C14.3346 17.0092 14.1765 17.0724 14.0586 17.1867L12.625 18.618V15.75H11.375V18.618Z" fill="#333333"/>
</svg>
