<svg width="24" height="24" viewBox="0 0 24 24" fill="none" xmlns="http://www.w3.org/2000/svg">
<path d="M7.50008 18.2344C7.26168 18.2346 7.03138 18.1479 6.85227 17.9906L0.852266 12.7406C0.746739 12.6482 0.662175 12.5343 0.604237 12.4066C0.5463 12.2789 0.516327 12.1402 0.516327 12C0.516327 11.8597 0.5463 11.7211 0.604237 11.5934C0.662175 11.4656 0.746739 11.3518 0.852266 11.2594L6.85227 6.00936C7.04875 5.83743 7.3055 5.75059 7.56601 5.76795C7.82652 5.78531 8.06947 5.90545 8.24141 6.10194C8.41334 6.29843 8.50018 6.55517 8.48282 6.81568C8.46546 7.0762 8.34532 7.31915 8.14883 7.49108L2.99492 12L8.14836 16.5089C8.29919 16.6408 8.40619 16.8155 8.45508 17.0098C8.50397 17.2041 8.49241 17.4087 8.42194 17.5962C8.35148 17.7837 8.22547 17.9453 8.06075 18.0594C7.89602 18.1734 7.70042 18.2344 7.50008 18.2344ZM16.5001 18.2344C16.2997 18.2345 16.104 18.1736 15.9392 18.0596C15.7744 17.9456 15.6483 17.784 15.5778 17.5964C15.5073 17.4089 15.4957 17.2042 15.5446 17.0099C15.5935 16.8156 15.7005 16.6408 15.8513 16.5089L21.0052 12L15.8518 7.49108C15.6553 7.31915 15.5352 7.0762 15.5178 6.81568C15.5004 6.55517 15.5873 6.29843 15.7592 6.10194C15.9312 5.90545 16.1741 5.78531 16.4346 5.76795C16.6951 5.75059 16.9519 5.83743 17.1484 6.00936L23.1484 11.2594C23.2539 11.3518 23.3385 11.4656 23.3964 11.5934C23.4543 11.7211 23.4843 11.8597 23.4843 12C23.4843 12.1402 23.4543 12.2789 23.3964 12.4066C23.3385 12.5343 23.2539 12.6482 23.1484 12.7406L17.1484 17.9906C16.9692 18.1481 16.7386 18.2348 16.5001 18.2344Z" fill="#333333"/>
</svg>
