<svg width="24" height="24" viewBox="0 0 24 24" fill="none" xmlns="http://www.w3.org/2000/svg">
<path d="M7.5 18.2344C7.2616 18.2346 7.03129 18.148 6.85218 17.9906L0.852182 12.7406C0.746656 12.6482 0.662091 12.5344 0.604153 12.4066C0.546216 12.2789 0.516243 12.1403 0.516243 12C0.516243 11.8597 0.546216 11.7211 0.604153 11.5934C0.662091 11.4656 0.746656 11.3518 0.852182 11.2594L6.85218 6.00938C7.04867 5.83744 7.30541 5.7506 7.56593 5.76796C7.82644 5.78533 8.06939 5.90547 8.24132 6.10195C8.41326 6.29844 8.5001 6.55518 8.48273 6.8157C8.46537 7.07621 8.34523 7.31916 8.14874 7.49109L2.99484 12L8.14828 16.5089C8.29911 16.6408 8.40611 16.8155 8.455 17.0098C8.50388 17.2041 8.49232 17.4087 8.42186 17.5962C8.3514 17.7838 8.22539 17.9453 8.06066 18.0594C7.89594 18.1734 7.70034 18.2345 7.5 18.2344ZM16.5 18.2344C16.2996 18.2345 16.1039 18.1736 15.9391 18.0596C15.7743 17.9456 15.6483 17.784 15.5777 17.5964C15.5072 17.4089 15.4956 17.2043 15.5445 17.0099C15.5934 16.8156 15.7004 16.6408 15.8512 16.5089L21.0051 12L15.8517 7.49109C15.6552 7.31916 15.5351 7.07621 15.5177 6.8157C15.5004 6.55518 15.5872 6.29844 15.7591 6.10195C15.9311 5.90547 16.174 5.78533 16.4345 5.76796C16.695 5.7506 16.9518 5.83744 17.1483 6.00938L23.1483 11.2594C23.2538 11.3518 23.3384 11.4656 23.3963 11.5934C23.4542 11.7211 23.4842 11.8597 23.4842 12C23.4842 12.1403 23.4542 12.2789 23.3963 12.4066C23.3384 12.5344 23.2538 12.6482 23.1483 12.7406L17.1483 17.9906C16.9691 18.1481 16.7386 18.2348 16.5 18.2344ZM9.75 20.4844C9.5967 20.4843 9.44553 20.4485 9.30853 20.3797C9.17153 20.3109 9.05249 20.2111 8.96089 20.0882C8.86929 19.9653 8.80767 19.8227 8.78093 19.6717C8.75419 19.5208 8.76307 19.3657 8.80687 19.2188L13.3069 4.21875C13.3408 4.09146 13.3999 3.97227 13.4807 3.86824C13.5615 3.76421 13.6623 3.67746 13.7773 3.61311C13.8922 3.54877 14.0189 3.50815 14.1498 3.49366C14.2807 3.47917 14.4132 3.49111 14.5395 3.52876C14.6657 3.56641 14.7831 3.62902 14.8847 3.71286C14.9863 3.79671 15.07 3.90009 15.1309 4.01688C15.1918 4.13368 15.2287 4.26151 15.2393 4.39281C15.2499 4.5241 15.234 4.65619 15.1926 4.78125L10.6927 19.7813C10.6321 19.9843 10.5077 20.1624 10.3379 20.2891C10.168 20.4157 9.96186 20.4842 9.75 20.4844Z" fill="#333333"/>
</svg>
