<svg width="24" height="24" viewBox="0 0 24 24" fill="none" xmlns="http://www.w3.org/2000/svg">
<path fill-rule="evenodd" clip-rule="evenodd" d="M8.67188 6.75C7.61045 6.75 6.75 7.61045 6.75 8.67188V19.0781C6.75 20.1395 7.61045 21 8.67188 21H19.0781C20.1395 21 21 20.1395 21 19.0781V8.67188C21 7.61045 20.1395 6.75 19.0781 6.75H8.67188ZM5.25 8.67188C5.25 6.78203 6.78203 5.25 8.67188 5.25H19.0781C20.968 5.25 22.5 6.78203 22.5 8.67188V19.0781C22.5 20.968 20.968 22.5 19.0781 22.5H8.67188C6.78203 22.5 5.25 20.968 5.25 19.0781V8.67188Z" fill="#333333"/>
<path fill-rule="evenodd" clip-rule="evenodd" d="M5.24778 1.50001L5.25 1.5L15.3771 1.5C16.2709 1.50255 17.1273 1.85872 17.7593 2.4907C18.3913 3.12269 18.7475 3.97911 18.75 4.87287L18.7498 4.89062L18.7264 6.01562C18.7178 6.42975 18.3751 6.75847 17.9609 6.74984C17.5468 6.74121 17.2181 6.39851 17.2267 5.98438L17.25 4.86902C17.2464 4.37454 17.0484 3.90118 16.6986 3.55136C16.3471 3.19987 15.8709 3.00168 15.3738 3H5.25119C4.65478 3.00204 4.08335 3.23986 3.66161 3.66161C3.23986 4.08336 3.00203 4.65478 3 5.25119V15.3738C3.00167 15.8709 3.19987 16.3471 3.55136 16.6986C3.90287 17.0501 4.37913 17.2483 4.87621 17.25H6C6.41421 17.25 6.75 17.5858 6.75 18C6.75 18.4142 6.41421 18.75 6 18.75H4.875L4.87287 18.75C3.97911 18.7475 3.12268 18.3913 2.4907 17.7593C1.85872 17.1273 1.50255 16.2709 1.5 15.3771L1.5 15.375V5.24779C1.50294 4.25472 1.89874 3.30316 2.60095 2.60095C3.30315 1.89874 4.25471 1.50294 5.24778 1.50001Z" fill="#333333"/>
</svg>
