<svg width="24" height="24" viewBox="0 0 24 24" fill="none" xmlns="http://www.w3.org/2000/svg">
<path d="M21.5597 2.49608C21.4912 2.42082 21.4081 2.36022 21.3156 2.31796C21.223 2.2757 21.1228 2.25264 21.0211 2.25019C20.9193 2.24773 20.8182 2.26593 20.7237 2.30368C20.6292 2.34144 20.5433 2.39795 20.4712 2.46983L19.8914 3.04686C19.8211 3.11718 19.7817 3.21252 19.7817 3.31194C19.7817 3.41135 19.8211 3.5067 19.8914 3.57701L20.423 4.10764C20.4578 4.14265 20.4992 4.17043 20.5448 4.18938C20.5904 4.20833 20.6394 4.21809 20.6887 4.21809C20.7381 4.21809 20.787 4.20833 20.8327 4.18938C20.8783 4.17043 20.9197 4.14265 20.9545 4.10764L21.5198 3.54514C21.8058 3.25967 21.8325 2.79467 21.5597 2.49608ZM18.7191 4.21873L10.2572 12.6656C10.2059 12.7167 10.1686 12.7801 10.1489 12.8498L9.7575 14.0156C9.74812 14.0472 9.74746 14.0808 9.75557 14.1128C9.76369 14.1448 9.78029 14.174 9.80362 14.1973C9.82695 14.2206 9.85614 14.2372 9.88812 14.2453C9.9201 14.2535 9.95368 14.2528 9.98531 14.2434L11.1502 13.852C11.2198 13.8323 11.2833 13.795 11.3344 13.7437L19.7812 5.28092C19.8594 5.20194 19.9032 5.09531 19.9032 4.9842C19.9032 4.87309 19.8594 4.76647 19.7812 4.68748L19.3148 4.21873C19.2358 4.13987 19.1286 4.09559 19.0169 4.09559C18.9053 4.09559 18.7981 4.13987 18.7191 4.21873Z" fill="#333333"/>
<path d="M18.1097 9.07781L12.3961 14.8027C12.1753 15.024 11.9039 15.1883 11.6053 15.2812L10.3912 15.6877C10.1031 15.769 9.79851 15.7721 9.5088 15.6965C9.2191 15.621 8.95477 15.4696 8.74307 15.2579C8.53136 15.0462 8.37994 14.7818 8.30439 14.4921C8.22885 14.2024 8.23192 13.8978 8.31328 13.6097L8.71969 12.3956C8.81238 12.0972 8.97632 11.8258 9.19734 11.6048L14.9222 5.89031C14.9747 5.8379 15.0104 5.77109 15.0249 5.69835C15.0394 5.62562 15.032 5.55021 15.0037 5.48167C14.9753 5.41313 14.9273 5.35454 14.8657 5.3133C14.804 5.27206 14.7315 5.25003 14.6573 5.25H4.875C4.17881 5.25 3.51113 5.52656 3.01884 6.01884C2.52656 6.51113 2.25 7.17881 2.25 7.875V19.125C2.25 19.8212 2.52656 20.4889 3.01884 20.9812C3.51113 21.4734 4.17881 21.75 4.875 21.75H16.125C16.8212 21.75 17.4889 21.4734 17.9812 20.9812C18.4734 20.4889 18.75 19.8212 18.75 19.125V9.34266C18.75 9.26849 18.7279 9.19599 18.6867 9.13434C18.6455 9.07269 18.5869 9.02465 18.5183 8.9963C18.4498 8.96795 18.3744 8.96057 18.3016 8.97507C18.2289 8.98958 18.1621 9.02534 18.1097 9.07781Z" fill="#333333"/>
</svg>
