<svg width="24" height="24" viewBox="0 0 24 24" fill="none" xmlns="http://www.w3.org/2000/svg">
<path fill-rule="evenodd" clip-rule="evenodd" d="M4.875 6.75C4.57663 6.75 4.29048 6.86853 4.0795 7.0795C3.86853 7.29048 3.75 7.57663 3.75 7.875V19.125C3.75 19.4234 3.86853 19.7095 4.0795 19.9205C4.29048 20.1315 4.57663 20.25 4.875 20.25H16.125C16.2727 20.25 16.419 20.2209 16.5555 20.1644C16.692 20.1078 16.816 20.025 16.9205 19.9205C17.025 19.816 17.1078 19.692 17.1644 19.5555C17.2209 19.419 17.25 19.2727 17.25 19.125V10.5C17.25 10.0858 17.5858 9.75 18 9.75C18.4142 9.75 18.75 10.0858 18.75 10.5V19.125C18.75 19.4697 18.6821 19.8111 18.5502 20.1295C18.4183 20.448 18.2249 20.7374 17.9812 20.9812C17.7374 21.2249 17.448 21.4183 17.1295 21.5502C16.8111 21.6821 16.4697 21.75 16.125 21.75H4.875C4.17881 21.75 3.51113 21.4734 3.01884 20.9812C2.52656 20.4889 2.25 19.8212 2.25 19.125V7.875C2.25 7.17881 2.52656 6.51113 3.01884 6.01884C3.51113 5.52656 4.17881 5.25 4.875 5.25H12.7256C13.1398 5.25 13.4756 5.58579 13.4756 6C13.4756 6.41421 13.1398 6.75 12.7256 6.75H4.875Z" fill="#333333"/>
<path d="M21.5597 2.49609C21.4912 2.42083 21.4081 2.36024 21.3156 2.31797C21.223 2.27571 21.1228 2.25266 21.0211 2.2502C20.9193 2.24775 20.8182 2.26595 20.7237 2.3037C20.6292 2.34145 20.5433 2.39797 20.4712 2.46984L19.8914 3.04687C19.8211 3.11719 19.7817 3.21254 19.7817 3.31195C19.7817 3.41137 19.8211 3.50671 19.8914 3.57703L20.423 4.10765C20.4578 4.14266 20.4992 4.17044 20.5448 4.1894C20.5904 4.20835 20.6394 4.21811 20.6887 4.21811C20.7381 4.21811 20.787 4.20835 20.8327 4.1894C20.8783 4.17044 20.9197 4.14266 20.9545 4.10765L21.5198 3.54515C21.8058 3.25969 21.8325 2.79469 21.5597 2.49609ZM18.7191 4.21875L10.2572 12.6656C10.2059 12.7167 10.1686 12.7802 10.1489 12.8498L9.7575 14.0156C9.74812 14.0473 9.74746 14.0808 9.75557 14.1128C9.76369 14.1448 9.78029 14.174 9.80362 14.1973C9.82695 14.2206 9.85614 14.2372 9.88812 14.2454C9.9201 14.2535 9.95368 14.2528 9.98531 14.2434L11.1502 13.852C11.2198 13.8323 11.2833 13.7951 11.3344 13.7437L19.7812 5.28094C19.8594 5.20195 19.9032 5.09533 19.9032 4.98422C19.9032 4.87311 19.8594 4.76648 19.7812 4.6875L19.3148 4.21875C19.2358 4.13989 19.1286 4.0956 19.0169 4.0956C18.9053 4.0956 18.7981 4.13989 18.7191 4.21875Z" fill="#333333"/>
</svg>
