<svg width="24" height="24" viewBox="0 0 24 24" fill="none" xmlns="http://www.w3.org/2000/svg">
<path fill-rule="evenodd" clip-rule="evenodd" d="M3.5 2C2.67157 2 2 2.67157 2 3.5V12C2 12.8284 2.67157 13.5 3.5 13.5H10C10.8284 13.5 11.5 12.8284 11.5 12V3.5C11.5 2.67157 10.8284 2 10 2H3.5ZM3.5 15C2.67157 15 2 15.6716 2 16.5V20.5C2 21.3284 2.67157 22 3.5 22H10C10.8284 22 11.5 21.3284 11.5 20.5V16.5C11.5 15.6716 10.8284 15 10 15H3.5ZM13 3.5C13 2.67157 13.6716 2 14.5 2H20.5C21.3284 2 22 2.67157 22 3.5V7C22 7.82843 21.3284 8.5 20.5 8.5H14.5C13.6716 8.5 13 7.82843 13 7V3.5ZM14.5 10C13.6716 10 13 10.6716 13 11.5V20.5C13 21.3284 13.6716 22 14.5 22H20.5C21.3284 22 22 21.3284 22 20.5V11.5C22 10.6716 21.3284 10 20.5 10H14.5Z" fill="#333333"/>
</svg>
