<svg width="24" height="24" viewBox="0 0 24 24" fill="none" xmlns="http://www.w3.org/2000/svg">
<path d="M9.21944 18.7014C9.1007 18.9125 8.95557 19.0709 8.78405 19.1764C8.61253 19.282 8.44102 19.3347 8.2695 19.3347C8.03201 19.3347 7.82092 19.249 7.6362 19.0774C7.46469 18.9059 7.37893 18.6882 7.37893 18.4244C7.37893 18.2001 7.4449 17.9758 7.57683 17.7515L14.7806 5.30329C14.8993 5.09219 15.0444 4.93387 15.2159 4.82832C15.3875 4.72277 15.559 4.67 15.7305 4.67C15.968 4.67 16.1725 4.75576 16.344 4.92727C16.5287 5.09879 16.6211 5.31649 16.6211 5.58036C16.6211 5.80465 16.5551 6.02894 16.4232 6.25324L9.21944 18.7014ZM7.0227 13.358C5.91444 13.358 5.05025 12.9952 4.43015 12.2695C3.81005 11.5439 3.5 10.4818 3.5 9.08327C3.5 7.69794 3.81005 6.64245 4.43015 5.9168C5.05025 5.19115 5.91444 4.82832 7.0227 4.82832C8.13097 4.82832 8.99515 5.19115 9.61525 5.9168C10.2485 6.64245 10.5652 7.69794 10.5652 9.08327C10.5652 10.4818 10.2485 11.5439 9.61525 12.2695C8.99515 12.9952 8.13097 13.358 7.0227 13.358ZM7.0227 11.755C7.52406 11.755 7.88688 11.5505 8.11118 11.1415C8.34866 10.7193 8.4674 10.0332 8.4674 9.08327C8.4674 8.15972 8.34866 7.48684 8.11118 7.06464C7.87369 6.64245 7.51087 6.43135 7.0227 6.43135C6.53454 6.43135 6.17171 6.64245 5.93423 7.06464C5.70993 7.47365 5.59779 8.14652 5.59779 9.08327C5.59779 10.0332 5.70993 10.7193 5.93423 11.1415C6.17171 11.5505 6.53454 11.755 7.0227 11.755ZM16.9773 19.117C15.869 19.117 15.0049 18.7542 14.3848 18.0286C13.7646 17.3029 13.4546 16.2342 13.4546 14.8225C13.4546 13.4372 13.7646 12.3883 14.3848 11.6758C15.018 10.9502 15.8822 10.5873 16.9773 10.5873C18.0856 10.5873 18.9497 10.9502 19.5698 11.6758C20.19 12.4015 20.5 13.457 20.5 14.8423C20.5 16.2408 20.19 17.3029 19.5698 18.0286C18.9497 18.7542 18.0856 19.117 16.9773 19.117ZM16.9773 17.514C17.4655 17.514 17.8283 17.3095 18.0658 16.9005C18.3033 16.4783 18.422 15.7922 18.422 14.8423C18.422 13.9187 18.3033 13.2459 18.0658 12.8237C17.8283 12.4015 17.4655 12.1904 16.9773 12.1904C16.4891 12.1904 16.1263 12.4015 15.8888 12.8237C15.6513 13.2459 15.5326 13.9187 15.5326 14.8423C15.5326 15.7922 15.6513 16.4783 15.8888 16.9005C16.1263 17.3095 16.4891 17.514 16.9773 17.514Z" fill="#333333"/>
</svg>
