<svg width="24" height="24" viewBox="0 0 24 24" fill="none" xmlns="http://www.w3.org/2000/svg">
<path d="M12.9171 2.91964C12.9171 2.41174 12.5054 2 11.9975 2C11.4896 2 11.0779 2.41174 11.0779 2.91964V15.1072L7.12993 11.1592C6.77078 10.8001 6.1885 10.8001 5.82935 11.1592C5.47021 11.5184 5.47021 12.1007 5.82935 12.4598L11.3472 17.9777C11.7064 18.3368 12.2886 18.3368 12.6478 17.9777L18.1656 12.4598C18.5248 12.1007 18.5248 11.5184 18.1656 11.1592C17.8065 10.8001 17.2242 10.8001 16.8651 11.1592L12.9171 15.1072V2.91964Z" fill="#333333"/>
<path fill-rule="evenodd" clip-rule="evenodd" d="M2 21.125C2 20.6418 2.39175 20.25 2.875 20.25H21.125C21.6082 20.25 22 20.6418 22 21.125C22 21.6082 21.6082 22 21.125 22H2.875C2.39175 22 2 21.6082 2 21.125Z" fill="#333333"/>
</svg>
