<svg width="24" height="24" viewBox="0 0 24 24" fill="none" xmlns="http://www.w3.org/2000/svg">
<path d="M12 2.25C6.61547 2.25 2.25 6.61547 2.25 12C2.25 17.3845 6.61547 21.75 12 21.75C17.3845 21.75 21.75 17.3845 21.75 12C21.75 6.61547 17.3845 2.25 12 2.25ZM7.78125 13.2188C7.5402 13.2188 7.30457 13.1473 7.10415 13.0134C6.90373 12.8794 6.74752 12.6891 6.65527 12.4664C6.56303 12.2437 6.53889 11.9986 6.58592 11.7622C6.63294 11.5258 6.74902 11.3087 6.91946 11.1382C7.08991 10.9678 7.30707 10.8517 7.54348 10.8047C7.7799 10.7576 8.02495 10.7818 8.24765 10.874C8.47034 10.9663 8.66069 11.1225 8.7946 11.3229C8.92852 11.5233 9 11.759 9 12C9 12.3232 8.8716 12.6332 8.64304 12.8618C8.41448 13.0903 8.10448 13.2188 7.78125 13.2188ZM12 13.2188C11.759 13.2188 11.5233 13.1473 11.3229 13.0134C11.1225 12.8794 10.9663 12.6891 10.874 12.4664C10.7818 12.2437 10.7576 11.9986 10.8047 11.7622C10.8517 11.5258 10.9678 11.3087 11.1382 11.1382C11.3087 10.9678 11.5258 10.8517 11.7622 10.8047C11.9986 10.7576 12.2437 10.7818 12.4664 10.874C12.6891 10.9663 12.8794 11.1225 13.0134 11.3229C13.1473 11.5233 13.2188 11.759 13.2188 12C13.2188 12.3232 13.0903 12.6332 12.8618 12.8618C12.6332 13.0903 12.3232 13.2188 12 13.2188ZM16.2188 13.2188C15.9777 13.2188 15.7421 13.1473 15.5416 13.0134C15.3412 12.8794 15.185 12.6891 15.0928 12.4664C15.0005 12.2437 14.9764 11.9986 15.0234 11.7622C15.0704 11.5258 15.1865 11.3087 15.357 11.1382C15.5274 10.9678 15.7446 10.8517 15.981 10.8047C16.2174 10.7576 16.4624 10.7818 16.6851 10.874C16.9078 10.9663 17.0982 11.1225 17.2321 11.3229C17.366 11.5233 17.4375 11.759 17.4375 12C17.4375 12.3232 17.3091 12.6332 17.0805 12.8618C16.852 13.0903 16.542 13.2188 16.2188 13.2188Z" fill="#333333"/>
</svg>
