<svg width="24" height="24" viewBox="0 0 24 24" fill="none" xmlns="http://www.w3.org/2000/svg">
<path fill-rule="evenodd" clip-rule="evenodd" d="M3 3.75C3 3.33579 3.33579 3 3.75 3H9C9.41421 3 9.75 3.33579 9.75 3.75C9.75 4.16421 9.41421 4.5 9 4.5H5.55946L10.2803 9.2196C10.5732 9.51246 10.5733 9.98733 10.2804 10.2803C9.98754 10.5732 9.51267 10.5733 9.21974 10.2804L4.5 5.56186V9C4.5 9.41421 4.16421 9.75 3.75 9.75C3.33579 9.75 3 9.41421 3 9V3.75ZM14.25 3.75C14.25 3.33579 14.5858 3 15 3H20.25C20.6642 3 21 3.33579 21 3.75V9C21 9.41421 20.6642 9.75 20.25 9.75C19.8358 9.75 19.5 9.41421 19.5 9V5.55946L14.7804 10.2803C14.4875 10.5732 14.0127 10.5733 13.7197 10.2804C13.4268 9.98754 13.4267 9.51267 13.7196 9.21974L18.4381 4.5H15C14.5858 4.5 14.25 4.16421 14.25 3.75ZM10.2803 13.7196C10.5732 14.0125 10.5733 14.4873 10.2804 14.7803L5.56186 19.5H9C9.41421 19.5 9.75 19.8358 9.75 20.25C9.75 20.6642 9.41421 21 9 21H3.75C3.33579 21 3 20.6642 3 20.25V15C3 14.5858 3.33579 14.25 3.75 14.25C4.16421 14.25 4.5 14.5858 4.5 15V18.4405L9.2196 13.7197C9.51246 13.4268 9.98733 13.4267 10.2803 13.7196ZM13.7196 13.7197C14.0125 13.4268 14.4873 13.4267 14.7803 13.7196L19.5 18.4381V15C19.5 14.5858 19.8358 14.25 20.25 14.25C20.6642 14.25 21 14.5858 21 15V20.25C21 20.6642 20.6642 21 20.25 21H15C14.5858 21 14.25 20.6642 14.25 20.25C14.25 19.8358 14.5858 19.5 15 19.5H18.4405L13.7197 14.7804C13.4268 14.4875 13.4267 14.0127 13.7196 13.7197Z" fill="#333333"/>
</svg>
