<svg width="24" height="24" viewBox="0 0 24 24" fill="none" xmlns="http://www.w3.org/2000/svg">
<path fill-rule="evenodd" clip-rule="evenodd" d="M19.4955 11.2733C19.6882 11.0805 19.9496 10.9722 20.2222 10.9722C20.4948 10.9722 20.7562 11.0805 20.949 11.2733C21.1417 11.466 21.25 11.7274 21.25 12V18.1667C21.25 18.9844 20.9251 19.7687 20.3469 20.3469C19.7687 20.9251 18.9844 21.25 18.1667 21.25H5.83333C5.01558 21.25 4.23132 20.9251 3.65309 20.3469C3.07485 19.7687 2.75 18.9844 2.75 18.1667V5.83333C2.75 5.01558 3.07485 4.23132 3.65309 3.65309C4.23132 3.07485 5.01558 2.75 5.83333 2.75H12C12.2726 2.75 12.534 2.85828 12.7267 3.05103C12.9195 3.24377 13.0278 3.50519 13.0278 3.77778C13.0278 4.05036 12.9195 4.31178 12.7267 4.50453C12.534 4.69727 12.2726 4.80556 12 4.80556H5.83333C5.56075 4.80556 5.29933 4.91384 5.10659 5.10659C4.91384 5.29933 4.80556 5.56075 4.80556 5.83333V18.1667C4.80556 18.4393 4.91384 18.7007 5.10659 18.8934C5.29933 19.0862 5.56075 19.1944 5.83333 19.1944H18.1667C18.4393 19.1944 18.7007 19.0862 18.8934 18.8934C19.0862 18.7007 19.1944 18.4393 19.1944 18.1667V12C19.1944 11.7274 19.3027 11.466 19.4955 11.2733ZM17.7349 4.80556H16.111C15.8385 4.80556 15.577 4.69727 15.3843 4.50453C15.1916 4.31178 15.0833 4.05036 15.0833 3.77778C15.0833 3.50519 15.1916 3.24377 15.3843 3.05103C15.577 2.85828 15.8385 2.75 16.111 2.75H20.2222C20.4947 2.75 20.7562 2.85828 20.9489 3.05103C21.1417 3.24377 21.2499 3.50519 21.2499 3.77778V7.88889C21.2499 8.16147 21.1417 8.42289 20.9489 8.61564C20.7562 8.80838 20.4947 8.91667 20.2222 8.91667C19.9496 8.91667 19.6882 8.80838 19.4954 8.61564C19.3027 8.42289 19.1944 8.16147 19.1944 7.88889V6.265L12.7297 12.7194C12.6341 12.8158 12.5204 12.8922 12.3952 12.9444C12.27 12.9966 12.1356 13.0235 11.9999 13.0235C11.8643 13.0235 11.7299 12.9966 11.6047 12.9444C11.4794 12.8922 11.3658 12.8158 11.2702 12.7194C11.1739 12.6239 11.0974 12.5102 11.0452 12.385C10.9931 12.2597 10.9662 12.1254 10.9662 11.9897C10.9662 11.854 10.9931 11.7197 11.0452 11.5945C11.0974 11.4692 11.1739 11.3555 11.2702 11.26L17.7349 4.80556Z" fill="#333333"/>
</svg>
