<svg width="24" height="24" viewBox="0 0 24 24" fill="none" xmlns="http://www.w3.org/2000/svg">
<path d="M9.13223 23.25C9.00657 23.2501 8.88241 23.2227 8.76847 23.1697C8.65454 23.1167 8.55359 23.0394 8.47273 22.9432C8.39187 22.847 8.33305 22.7343 8.30041 22.6129C8.26777 22.4916 8.2621 22.3646 8.28379 22.2408V22.2356L9.60145 15H4.50004C4.35844 15 4.21974 14.9599 4.09998 14.8843C3.98021 14.8088 3.88429 14.7009 3.82328 14.5731C3.76228 14.4453 3.73871 14.3029 3.75528 14.1622C3.77184 14.0216 3.82789 13.8885 3.91692 13.7784L14.1905 1.07813C14.3075 0.929683 14.4698 0.823628 14.6527 0.776177C14.8356 0.728727 15.029 0.742493 15.2034 0.81537C15.3778 0.888247 15.5234 1.01622 15.6182 1.17973C15.7129 1.34324 15.7515 1.53328 15.728 1.72078C15.728 1.73484 15.7243 1.74844 15.7219 1.7625L14.3996 9H19.5C19.6416 9.00002 19.7803 9.04012 19.9001 9.11566C20.0199 9.19121 20.1158 9.29912 20.1768 9.4269C20.2378 9.55469 20.2614 9.69714 20.2448 9.83776C20.2282 9.97839 20.1722 10.1115 20.0832 10.2216L9.80817 22.9219C9.72743 23.0239 9.62472 23.1064 9.50769 23.1632C9.39066 23.22 9.26232 23.2497 9.13223 23.25Z" fill="#333333"/>
</svg>
