<svg width="24" height="24" viewBox="0 0 24 24" fill="none" xmlns="http://www.w3.org/2000/svg">
<path d="M20.25 21C20.1515 21.0002 20.054 20.9808 19.963 20.9431C19.872 20.9053 19.7894 20.85 19.7199 20.7802L3.21988 4.28016C3.08516 4.13836 3.01117 3.94955 3.01367 3.75398C3.01618 3.5584 3.09498 3.37155 3.23328 3.23325C3.37158 3.09495 3.55844 3.01614 3.75401 3.01364C3.94958 3.01114 4.13839 3.08513 4.28019 3.21984L20.7802 19.7198C20.885 19.8247 20.9564 19.9583 20.9853 20.1038C21.0142 20.2492 20.9994 20.4 20.9426 20.537C20.8859 20.674 20.7898 20.7911 20.6665 20.8735C20.5433 20.9559 20.3983 20.9999 20.25 21ZM20.2266 9.5625C20.185 9.40145 20.0911 9.25878 19.9595 9.15696C19.828 9.05513 19.6664 8.99992 19.5 9H14.3996L15.7219 1.76391C15.7243 1.74984 15.7266 1.73625 15.728 1.72219C15.7519 1.53456 15.7136 1.34427 15.619 1.18048C15.5244 1.0167 15.3787 0.888441 15.2042 0.815361C15.0298 0.742281 14.8362 0.728408 14.6531 0.775867C14.47 0.823326 14.3075 0.9295 14.1905 1.07812L9.85081 6.44344C9.82166 6.47952 9.80691 6.52512 9.80942 6.57144C9.81193 6.61776 9.83152 6.6615 9.86441 6.69422L16.9425 13.7723C16.9611 13.7909 16.9834 13.8054 17.0079 13.8149C17.0325 13.8243 17.0587 13.8285 17.085 13.8271C17.1112 13.8257 17.1369 13.8189 17.1604 13.8069C17.1838 13.795 17.2044 13.7783 17.221 13.7578L20.071 10.2347C20.1476 10.1426 20.2016 10.0338 20.2286 9.91707C20.2556 9.80035 20.2549 9.67891 20.2266 9.5625ZM14.1361 17.3058L7.058 10.2277C7.03943 10.2091 7.01718 10.1947 6.99268 10.1853C6.96818 10.1759 6.94199 10.1718 6.91579 10.1732C6.88959 10.1745 6.86397 10.1814 6.84059 10.1933C6.8172 10.2052 6.79657 10.2218 6.78003 10.2422L3.92816 13.7644C3.85156 13.8567 3.79766 13.9656 3.7708 14.0825C3.74394 14.1994 3.74485 14.321 3.77347 14.4375C3.81505 14.5986 3.909 14.7412 4.04053 14.843C4.17205 14.9449 4.3337 15.0001 4.50003 15H9.60144L8.28472 22.2356V22.2408C8.25222 22.4293 8.28345 22.6233 8.37347 22.7922C8.46349 22.961 8.60718 23.0951 8.78185 23.1731C8.95652 23.2512 9.15223 23.2689 9.33808 23.2234C9.52392 23.1779 9.68932 23.0718 9.80816 22.9219L14.1493 17.5566C14.1785 17.5205 14.1933 17.475 14.1909 17.4286C14.1885 17.3823 14.1689 17.3386 14.1361 17.3058Z" fill="#333333"/>
</svg>
