<svg width="24" height="24" viewBox="0 0 24 24" fill="none" xmlns="http://www.w3.org/2000/svg">
<path d="M23.25 7.125C23.25 6.42881 22.9734 5.76113 22.4812 5.26884C21.9889 4.77656 21.3212 4.5 20.625 4.5H10.3177C10.0957 4.50071 9.87854 4.43545 9.69375 4.3125L8.39062 3.44109C7.95911 3.15254 7.45145 2.99898 6.93234 3H3.375C2.67881 3 2.01113 3.27656 1.51884 3.76884C1.02656 4.26113 0.75 4.92881 0.75 5.625V7.875C0.75 7.97446 0.789509 8.06984 0.859835 8.14016C0.930161 8.21049 1.02554 8.25 1.125 8.25H22.875C22.9745 8.25 23.0698 8.21049 23.1402 8.14016C23.2105 8.06984 23.25 7.97446 23.25 7.875V7.125ZM0.75 18.375C0.75 19.0712 1.02656 19.7389 1.51884 20.2312C2.01113 20.7234 2.67881 21 3.375 21H20.625C21.3212 21 21.9889 20.7234 22.4812 20.2312C22.9734 19.7389 23.25 19.0712 23.25 18.375V10.125C23.25 10.0255 23.2105 9.93016 23.1402 9.85983C23.0698 9.78951 22.9745 9.75 22.875 9.75H1.125C1.02554 9.75 0.930161 9.78951 0.859835 9.85983C0.789509 9.93016 0.75 10.0255 0.75 10.125V18.375Z" fill="#333333"/>
</svg>
