<svg width="24" height="24" viewBox="0 0 24 24" fill="none" xmlns="http://www.w3.org/2000/svg">
<path d="M6.2733 16.9345C5.21346 16.9345 4.35143 16.5516 3.70502 15.7913C3.05862 15.0309 2.6344 13.9027 2.38737 12.2611C2.02362 9.84188 2.38455 7.80281 3.40362 6.51984C4.00362 5.76422 4.79112 5.32734 5.6808 5.25703C6.44252 5.19609 7.58112 5.505 8.6808 7.31953C9.3694 8.45578 9.89299 9.96516 10.1175 11.4605C10.3889 13.2656 10.1869 14.5945 9.49971 15.5222C8.95408 16.2591 8.11502 16.7156 7.00549 16.8816C6.76306 16.9172 6.51833 16.9349 6.2733 16.9345ZM8.1094 23.25C7.49018 23.25 6.86252 23.0517 6.29721 22.6706C5.48146 22.1179 4.91681 21.2655 4.72596 20.2988C4.59237 19.6116 4.67252 19.0655 4.97065 18.6281C5.45487 17.918 6.32393 17.7581 7.24362 17.5884C7.34065 17.5706 7.43908 17.5528 7.53893 17.5336C7.7508 17.4933 7.96737 17.4398 8.17737 17.3878C8.96393 17.1938 9.77768 16.9927 10.4494 17.4698C10.8989 17.7886 11.1525 18.3305 11.2285 19.1255C11.3147 20.0428 11.1178 20.9583 10.6739 21.7036C10.1963 22.5056 9.48002 23.0358 8.6583 23.197C8.47747 23.2323 8.29364 23.2501 8.1094 23.25ZM17.7267 12.4345C17.4819 12.4337 17.2375 12.4149 16.9955 12.3783C15.8864 12.2142 15.0474 11.7572 14.5017 11.0189C13.8146 10.0913 13.6111 8.76281 13.8839 6.95719C14.1085 5.46047 14.6306 3.9525 15.316 2.82047C16.41 1.0125 17.55 0.698906 18.316 0.754219C19.2028 0.818906 19.9889 1.24969 20.5899 2.00109C21.616 3.28406 21.9797 5.32922 21.6146 7.75922C21.3675 9.39984 20.9489 10.5225 20.2969 11.2894C19.6449 12.0563 18.7866 12.4345 17.7267 12.4345ZM15.8906 18.75C15.7069 18.75 15.5235 18.7322 15.3431 18.697C14.52 18.5358 13.8038 18.0056 13.3275 17.2036C12.8836 16.4583 12.6867 15.5428 12.773 14.6255C12.848 13.8286 13.1011 13.2886 13.5521 12.9694C14.2238 12.4927 15.0375 12.6933 15.8241 12.8878C16.0341 12.9394 16.2506 12.9928 16.4625 13.0336L16.7574 13.0884C17.6775 13.2577 18.5466 13.4166 19.0308 14.1277C19.3289 14.565 19.4091 15.112 19.2755 15.7983C19.0848 16.7652 18.5201 17.6178 17.7042 18.1706C17.1356 18.5522 16.508 18.75 15.8906 18.75Z" fill="#333333"/>
</svg>
