<svg width="24" height="24" viewBox="0 0 24 24" fill="none" xmlns="http://www.w3.org/2000/svg">
<path d="M15.9727 16.148C16.2497 15.1777 16.433 14.0503 16.5028 12.968C16.5044 12.9397 16.5001 12.9114 16.4902 12.8848C16.4804 12.8583 16.4652 12.834 16.4456 12.8136C16.426 12.7932 16.4024 12.777 16.3763 12.766C16.3502 12.7551 16.3221 12.7496 16.2938 12.75H12.9628C12.9356 12.7498 12.9085 12.7549 12.8832 12.7651C12.8579 12.7753 12.8349 12.7904 12.8154 12.8095C12.796 12.8286 12.7805 12.8514 12.7698 12.8765C12.7592 12.9016 12.7535 12.9285 12.7533 12.9558V15.548C12.7539 15.6003 12.7742 15.6505 12.8102 15.6886C12.8461 15.7266 12.8951 15.7497 12.9474 15.7533C13.886 15.8291 14.8135 16.0082 15.713 16.2872C15.7659 16.3031 15.8229 16.2974 15.8716 16.2713C15.9203 16.2452 15.9566 16.2008 15.9727 16.148ZM15.1678 17.6864C14.4542 17.4781 13.723 17.3354 12.9834 17.2603C12.9549 17.2571 12.926 17.2599 12.8985 17.2685C12.8711 17.2771 12.8457 17.2913 12.8241 17.3102C12.8025 17.3291 12.785 17.3523 12.7728 17.3783C12.7606 17.4044 12.754 17.4327 12.7533 17.4614V20.5195C12.7544 20.556 12.765 20.5916 12.7841 20.6227C12.8032 20.6538 12.8301 20.6794 12.8621 20.6969C12.8941 20.7144 12.9302 20.7233 12.9667 20.7226C13.0032 20.7219 13.0388 20.7117 13.0702 20.693C13.8155 20.2584 14.4295 19.5286 14.9845 18.5634C15.0755 18.4059 15.2138 18.1345 15.2972 17.9686C15.3102 17.9419 15.317 17.9127 15.3174 17.883C15.3177 17.8533 15.3115 17.8239 15.2991 17.797C15.2867 17.77 15.2685 17.7461 15.2458 17.727C15.2231 17.7079 15.1965 17.694 15.1678 17.6864ZM11.0292 17.2687C10.2905 17.339 9.55994 17.4774 8.84673 17.6822C8.72298 17.7178 8.67095 17.8884 8.7272 18.0005C8.8111 18.1673 8.9147 18.3806 9.00329 18.54C9.61267 19.6181 10.2614 20.2978 10.9364 20.693C10.9678 20.7117 11.0034 20.7219 11.0399 20.7226C11.0764 20.7233 11.1124 20.7144 11.1445 20.6969C11.1765 20.6794 11.2034 20.6538 11.2224 20.6227C11.2415 20.5916 11.2522 20.556 11.2533 20.5195V17.46C11.2531 17.4321 11.2468 17.4045 11.235 17.3792C11.2232 17.3539 11.2061 17.3314 11.1849 17.3133C11.1637 17.2951 11.1388 17.2818 11.1119 17.2741C11.085 17.2664 11.0569 17.2646 11.0292 17.2687ZM11.0438 12.75H7.71282C7.68455 12.7496 7.6565 12.7551 7.63042 12.766C7.60433 12.7769 7.58076 12.7931 7.56116 12.8134C7.54157 12.8338 7.52636 12.858 7.51649 12.8845C7.50662 12.911 7.50228 12.9393 7.50376 12.9675C7.57314 14.0484 7.75548 15.1781 8.03157 16.1475C8.0394 16.174 8.05242 16.1987 8.06987 16.2202C8.08732 16.2417 8.10885 16.2594 8.13322 16.2725C8.1576 16.2856 8.18432 16.2937 8.21185 16.2964C8.23938 16.2991 8.26717 16.2963 8.2936 16.2881C9.193 16.0091 10.1205 15.8305 11.0592 15.7556C11.1116 15.7522 11.1607 15.7292 11.1967 15.6911C11.2328 15.653 11.2532 15.6027 11.2538 15.5503V12.9562C11.2536 12.9289 11.248 12.9019 11.2373 12.8767C11.2267 12.8515 11.2111 12.8287 11.1916 12.8095C11.1721 12.7903 11.149 12.7752 11.1236 12.765C11.0982 12.7548 11.0711 12.7497 11.0438 12.75ZM12.9844 6.73969C13.7235 6.67043 14.4537 6.52689 15.1641 6.31125C15.1926 6.30354 15.2191 6.28966 15.2416 6.27059C15.2642 6.25153 15.2822 6.22774 15.2946 6.2009C15.3069 6.17407 15.3132 6.14486 15.313 6.11532C15.3128 6.08579 15.3061 6.05666 15.2934 6.03C15.2095 5.86265 15.0933 5.62312 15.0042 5.46328C14.4281 4.43203 13.7789 3.7125 13.0711 3.30703C13.0397 3.28846 13.0041 3.27837 12.9677 3.27776C12.9312 3.27714 12.8952 3.28602 12.8633 3.30351C12.8313 3.32101 12.8044 3.34653 12.7853 3.37755C12.7662 3.40858 12.7555 3.44404 12.7542 3.48047V6.53812C12.7549 6.56688 12.7615 6.59518 12.7737 6.62123C12.7859 6.64729 12.8034 6.67053 12.825 6.68948C12.8467 6.70843 12.872 6.72267 12.8994 6.73132C12.9269 6.73996 12.9558 6.74281 12.9844 6.73969ZM12.9628 11.25H16.2938C16.3218 11.2505 16.3497 11.2452 16.3756 11.2345C16.4016 11.2238 16.4251 11.2079 16.4447 11.1878C16.4642 11.1677 16.4795 11.1438 16.4895 11.1176C16.4995 11.0913 16.504 11.0634 16.5028 11.0353C16.4334 9.96797 16.2558 8.79469 15.9797 7.8375C15.9716 7.81118 15.9584 7.78672 15.9409 7.76551C15.9233 7.74431 15.9018 7.72678 15.8774 7.71393C15.8531 7.70108 15.8264 7.69317 15.799 7.69064C15.7716 7.68812 15.744 7.69103 15.7177 7.69922C14.827 7.96828 13.8994 8.18812 12.9478 8.26172C12.8958 8.26467 12.8469 8.28719 12.8108 8.32475C12.7747 8.36231 12.7542 8.41214 12.7533 8.46422V11.0475C12.7543 11.1021 12.7769 11.1541 12.8162 11.1921C12.8555 11.23 12.9082 11.2509 12.9628 11.25ZM10.9364 3.3075C10.2136 3.70922 9.56907 4.45265 8.99251 5.48109C8.90298 5.64094 8.7961 5.86125 8.71126 6.02812C8.69865 6.0548 8.69203 6.08391 8.69187 6.11342C8.69172 6.14293 8.69803 6.17211 8.71036 6.19892C8.72269 6.22573 8.74074 6.24951 8.76325 6.26859C8.78576 6.28767 8.81217 6.30159 8.84064 6.30937C9.55068 6.52898 10.2819 6.67306 11.0222 6.73922C11.0508 6.74234 11.0796 6.7395 11.107 6.73089C11.1344 6.72227 11.1598 6.70807 11.1814 6.68917C11.203 6.67027 11.2205 6.64708 11.2327 6.62109C11.2449 6.59509 11.2516 6.56684 11.2524 6.53812V3.48094C11.2509 3.44471 11.2401 3.40948 11.221 3.37866C11.2019 3.34784 11.1751 3.32248 11.1433 3.30504C11.1116 3.28759 11.0758 3.27865 11.0396 3.27908C11.0033 3.27951 10.9678 3.2893 10.9364 3.3075ZM11.0588 8.26219C10.1072 8.18953 9.1786 7.96969 8.28892 7.69969C8.26263 7.6915 8.23499 7.68859 8.20758 7.69111C8.18017 7.69363 8.15352 7.70155 8.12918 7.7144C8.10483 7.72724 8.08326 7.74477 8.06571 7.76598C8.04815 7.78719 8.03496 7.81165 8.02689 7.83797C7.75079 8.79515 7.57314 9.96844 7.50376 11.0358C7.50254 11.0638 7.50707 11.0918 7.51707 11.118C7.52708 11.1443 7.54234 11.1682 7.56192 11.1883C7.5815 11.2084 7.60499 11.2243 7.63094 11.235C7.65689 11.2457 7.68476 11.2509 7.71282 11.2505H11.0438C11.0709 11.2509 11.0978 11.246 11.1231 11.236C11.1483 11.226 11.1713 11.2111 11.1907 11.1922C11.2102 11.1733 11.2257 11.1508 11.2365 11.1259C11.2472 11.1009 11.2529 11.0742 11.2533 11.047V8.46469C11.2524 8.41261 11.2319 8.36278 11.1958 8.32522C11.1597 8.28766 11.1108 8.26514 11.0588 8.26219Z" fill="#333333"/>
<path d="M19.4246 4.57546C18.4513 3.59257 17.2934 2.81167 16.0174 2.27761C14.7415 1.74356 13.3725 1.46688 11.9893 1.46348C10.6061 1.46007 9.23582 1.73001 7.95724 2.25777C6.67865 2.78554 5.51694 3.56074 4.53885 4.53883C3.56076 5.51692 2.78556 6.67863 2.2578 7.95721C1.73003 9.2358 1.4601 10.6061 1.4635 11.9893C1.46691 13.3725 1.74358 14.7414 2.27764 16.0174C2.81169 17.2934 3.59259 18.4513 4.57549 19.4245C5.54875 20.4074 6.70663 21.1883 7.9826 21.7224C9.25858 22.2564 10.6275 22.5331 12.0107 22.5365C13.3939 22.5399 14.7642 22.27 16.0428 21.7422C17.3214 21.2144 18.4831 20.4393 19.4612 19.4612C20.4393 18.4831 21.2145 17.3214 21.7422 16.0428C22.27 14.7642 22.5399 13.3939 22.5365 12.0107C22.5331 10.6275 22.2565 9.25855 21.7224 7.98258C21.1883 6.70661 20.4074 5.54873 19.4246 4.57546ZM8.27814 20.1961C8.06694 19.8995 7.87167 19.5919 7.69314 19.2745C7.59939 19.1016 7.46627 18.8405 7.37767 18.6591C7.35737 18.616 7.3283 18.5777 7.29232 18.5466C7.25635 18.5154 7.21427 18.4921 7.16877 18.4782C7.12328 18.4642 7.07537 18.4599 7.02812 18.4656C6.98088 18.4712 6.93533 18.4867 6.89439 18.5109C6.69283 18.6239 6.42564 18.7791 6.23205 18.9061C5.82607 18.5975 5.45553 18.2449 5.12721 17.8547C5.58125 17.5342 6.05762 17.2466 6.55267 16.9941C6.63986 16.9472 6.68252 16.8937 6.65486 16.7981C6.29215 15.5428 6.07063 14.2509 5.99439 12.9464C5.99212 12.8942 5.96997 12.8449 5.93249 12.8086C5.89501 12.7722 5.84504 12.7516 5.79283 12.7509H3.13314C3.11053 12.7512 3.08859 12.7433 3.07137 12.7286C3.05414 12.714 3.04278 12.6936 3.03939 12.6712C3.00993 12.4488 2.99677 12.2244 3.00002 12C2.99681 11.776 3.01029 11.5521 3.04033 11.3302C3.04372 11.3078 3.05508 11.2874 3.0723 11.2728C3.08953 11.2581 3.11147 11.2502 3.13408 11.2505H5.79377C5.90111 11.2505 5.98924 11.1886 5.99486 11.0803C6.07009 9.78127 6.2902 8.49469 6.65111 7.24453C6.66455 7.19889 6.66165 7.15 6.64291 7.10628C6.62417 7.06255 6.59077 7.02673 6.54846 7.005C6.06403 6.75678 5.59674 6.47647 5.14971 6.16593C5.47628 5.77584 5.83951 5.41795 6.23439 5.09718C6.42564 5.22281 6.67502 5.36484 6.87471 5.47734C6.91871 5.50235 6.96738 5.51807 7.01771 5.52351C7.06803 5.52895 7.11894 5.52401 7.16728 5.50898C7.21561 5.49395 7.26035 5.46916 7.29872 5.43614C7.33708 5.40312 7.36827 5.36258 7.39033 5.31703C7.47846 5.13562 7.57783 4.93359 7.67439 4.76015C7.85369 4.43888 8.0499 4.12735 8.26221 3.82687C9.43099 3.27624 10.708 2.99374 12 2.99999C13.3566 2.99999 14.6203 3.32812 15.7749 3.86531C15.9787 4.15153 16.1665 4.44886 16.3374 4.75593C16.4588 4.97437 16.5877 5.24203 16.6964 5.47406C16.7081 5.49877 16.7247 5.52083 16.7452 5.53892C16.7657 5.557 16.7896 5.57071 16.8156 5.57922C16.8416 5.58773 16.869 5.59086 16.8962 5.58841C16.9235 5.58597 16.9499 5.578 16.9739 5.56499C17.2261 5.42859 17.4994 5.27156 17.7399 5.11359C18.1359 5.43751 18.5 5.79853 18.8274 6.19171C18.3925 6.49325 17.9374 6.76437 17.4652 7.00312C17.4228 7.02488 17.3894 7.0608 17.3707 7.10464C17.352 7.14848 17.3493 7.19748 17.363 7.24312C17.7298 8.48479 17.9477 9.76565 18.0122 11.0587C18.0147 11.1106 18.037 11.1595 18.0745 11.1955C18.112 11.2314 18.1618 11.2516 18.2138 11.2519L20.8678 11.2486C20.8904 11.2483 20.9124 11.2563 20.9296 11.2709C20.9468 11.2855 20.9582 11.3059 20.9616 11.3283C21.0163 11.7738 21.0163 12.2243 20.9616 12.6698C20.9584 12.6924 20.9471 12.713 20.9299 12.7278C20.9126 12.7426 20.8906 12.7507 20.8678 12.7505H18.2114C18.1592 12.751 18.1091 12.7716 18.0716 12.808C18.0341 12.8444 18.012 12.8937 18.0099 12.9459C17.9369 14.2366 17.7188 15.515 17.3597 16.7569C17.3461 16.803 17.3489 16.8525 17.3676 16.8968C17.3863 16.9412 17.4198 16.9777 17.4624 17.0002C17.6967 17.1216 17.9578 17.257 18.1828 17.3948C18.4078 17.5327 18.6305 17.6798 18.8452 17.8327C18.5204 18.224 18.1594 18.5839 17.767 18.9075C17.6527 18.832 17.5167 18.7462 17.3995 18.6759C17.3189 18.6291 17.1703 18.5461 17.0878 18.4997C16.9088 18.3994 16.7185 18.4744 16.6289 18.6591C16.5394 18.8437 16.4025 19.1086 16.3069 19.2802C16.1307 19.5956 15.9374 19.9012 15.728 20.1956C14.5739 20.7361 13.3566 21 12 21C10.6435 21 9.43267 20.7361 8.27814 20.1961Z" fill="#333333"/>
</svg>
