<svg width="24" height="24" viewBox="0 0 24 24" fill="none" xmlns="http://www.w3.org/2000/svg">
<path fill-rule="evenodd" clip-rule="evenodd" d="M1.5 12C1.5 6.20125 6.20125 1.5 12 1.5C17.7987 1.5 22.5 6.20125 22.5 12C22.5 17.7987 17.7987 22.5 12 22.5C6.20125 22.5 1.5 17.7987 1.5 12ZM12 3C7.02968 3 3 7.02968 3 12C3 16.9703 7.02968 21 12 21C16.9703 21 21 16.9703 21 12C21 7.02968 16.9703 3 12 3Z" fill="#333333"/>
<path fill-rule="evenodd" clip-rule="evenodd" d="M7.6829 4.74161C8.70855 2.89517 10.2256 1.5 12 1.5C13.7744 1.5 15.2915 2.89517 16.3171 4.74161C17.3668 6.63139 18.0314 9.19725 18.0314 12C18.0314 14.8027 17.3668 17.3686 16.3171 19.2584C15.2915 21.1048 13.7744 22.5 12 22.5C10.2256 22.5 8.70855 21.1048 7.6829 19.2584C6.63317 17.3686 5.9686 14.8027 5.9686 12C5.9686 9.19725 6.63317 6.63139 7.6829 4.74161ZM8.99418 5.46999C8.08371 7.10907 7.4686 9.41822 7.4686 12C7.4686 14.5818 8.08371 16.8909 8.99418 18.53C9.92872 20.2124 11.0524 21 12 21C12.9476 21 14.0713 20.2124 15.0058 18.53C15.9163 16.8909 16.5314 14.5818 16.5314 12C16.5314 9.41822 15.9163 7.10907 15.0058 5.46999C14.0713 3.78757 12.9476 3 12 3C11.0524 3 9.92872 3.78757 8.99418 5.46999Z" fill="#333333"/>
<path fill-rule="evenodd" clip-rule="evenodd" d="M4.88831 5.06565C5.1281 4.72791 5.59629 4.64851 5.93403 4.8883C7.59949 6.07076 9.70428 6.7814 12 6.7814C14.2957 6.7814 16.4005 6.07076 18.066 4.8883C18.4037 4.64851 18.8719 4.72791 19.1117 5.06565C19.3515 5.4034 19.2721 5.87159 18.9343 6.11138C17.0148 7.47424 14.6065 8.2814 12 8.2814C9.39354 8.2814 6.9852 7.47424 5.06566 6.11138C4.72791 5.87159 4.64851 5.4034 4.88831 5.06565ZM5.06566 17.8886C6.9852 16.5258 9.39354 15.7186 12 15.7186C14.6065 15.7186 17.0148 16.5258 18.9343 17.8886C19.2721 18.1284 19.3515 18.5966 19.1117 18.9343C18.8719 19.2721 18.4037 19.3515 18.066 19.1117C16.4005 17.9292 14.2957 17.2186 12 17.2186C9.70428 17.2186 7.59949 17.9292 5.93403 19.1117C5.59629 19.3515 5.1281 19.2721 4.88831 18.9343C4.64851 18.5966 4.72791 18.1284 5.06566 17.8886Z" fill="#333333"/>
<path fill-rule="evenodd" clip-rule="evenodd" d="M12.75 12.75V21.75H11.25V12.75H2.25V11.25H11.25V2.25H12.75V11.25H21.75V12.75H12.75Z" fill="#333333"/>
</svg>
