<svg width="24" height="24" viewBox="0 0 24 24" fill="none" xmlns="http://www.w3.org/2000/svg">
<path d="M12.6667 12.1333C13.2664 12.1333 13.8462 11.8656 14.3001 11.3796C14.7414 10.9057 15.0109 10.2736 15.0584 9.60049C15.1092 8.88241 14.8901 8.22208 14.4418 7.74083C13.9935 7.25958 13.3667 7 12.6667 7C11.9717 7 11.3432 7.26425 10.8963 7.74433C10.4451 8.22908 10.2255 8.88824 10.2763 9.60019C10.325 10.2742 10.5942 10.906 11.0346 11.3794C11.4873 11.8656 12.0668 12.1333 12.6667 12.1333ZM8.82173 17.2666H16.5115C16.6351 17.2673 16.7572 17.2396 16.8685 17.1856C16.9797 17.1317 17.0771 17.0529 17.1531 16.9554C17.2338 16.8497 17.2895 16.7271 17.316 16.5969C17.3426 16.4666 17.3394 16.332 17.3066 16.2032C17.061 15.2171 16.4526 14.3993 15.5472 13.8384C14.7437 13.3408 13.7208 13.0666 12.6667 13.0666C11.592 13.0666 10.5959 13.3291 9.78772 13.8264C8.88035 14.3844 8.27106 15.2069 8.02665 16.205C7.99423 16.3339 7.99135 16.4685 8.01822 16.5987C8.04509 16.7289 8.10101 16.8513 8.18181 16.9569C8.25776 17.0539 8.35492 17.1323 8.46584 17.186C8.57676 17.2397 8.6985 17.2672 8.82173 17.2666ZM18.1792 12.25C19.2056 12.25 20.108 11.2956 20.1917 10.1229C20.2331 9.52203 20.0459 8.96641 19.6667 8.55895C19.2916 8.15558 18.7626 7.93333 18.1792 7.93333C17.5959 7.93333 17.0709 8.15674 16.6938 8.56245C16.3117 8.97312 16.125 9.52757 16.1688 10.1234C16.2525 11.2959 17.1546 12.25 18.1792 12.25ZM16.2641 13.1673C16.7772 12.9164 17.4431 12.791 18.1789 12.791C19.0382 12.791 19.8726 13.015 20.5289 13.4216C21.2729 13.8833 21.7734 14.5556 21.9755 15.3673C22.0051 15.484 22.0079 15.606 21.9837 15.724C21.9595 15.8419 21.909 15.9529 21.8358 16.0486C21.7664 16.1377 21.6775 16.2097 21.5759 16.2591C21.4744 16.3084 21.3628 16.3338 21.2499 16.3333H18.0124C17.9577 16.3333 17.9048 16.3141 17.8629 16.2791C17.8209 16.2441 17.7926 16.1954 17.7828 16.1417C17.7796 16.1233 17.7756 16.1049 17.7709 16.0868C17.5236 15.0934 16.944 14.254 16.0877 13.6421C16.0562 13.6194 16.0309 13.5892 16.014 13.5542C15.9971 13.5192 15.9892 13.4806 15.9911 13.4418C15.9929 13.4031 16.0044 13.3653 16.0244 13.3321C16.0445 13.2989 16.0726 13.2712 16.1061 13.2516C16.1519 13.2247 16.2044 13.1964 16.2641 13.1673Z" fill="#333333"/>
<path fill-rule="evenodd" clip-rule="evenodd" d="M5.5 6.375C5.84518 6.375 6.125 6.65482 6.125 7V9.875H9C9.34518 9.875 9.625 10.1548 9.625 10.5C9.625 10.8452 9.34518 11.125 9 11.125H6.125V14C6.125 14.3452 5.84518 14.625 5.5 14.625C5.15482 14.625 4.875 14.3452 4.875 14V11.125H2C1.65482 11.125 1.375 10.8452 1.375 10.5C1.375 10.1548 1.65482 9.875 2 9.875H4.875V7C4.875 6.65482 5.15482 6.375 5.5 6.375Z" fill="#333333"/>
</svg>
