<svg width="24" height="24" viewBox="0 0 24 24" fill="none" xmlns="http://www.w3.org/2000/svg">
<path d="M12 21C11.6989 20.9996 11.4049 20.9086 11.1563 20.7389C7.47236 18.2381 5.8772 16.5234 4.99736 15.4514C3.12236 13.1663 2.2247 10.8202 2.25002 8.27953C2.27955 5.36813 4.61533 3 7.45689 3C9.52314 3 10.9542 4.16391 11.7877 5.13328C11.8141 5.16368 11.8467 5.18805 11.8833 5.20476C11.92 5.22146 11.9598 5.23011 12 5.23011C12.0403 5.23011 12.0801 5.22146 12.1167 5.20476C12.1533 5.18805 12.186 5.16368 12.2124 5.13328C13.0458 4.16297 14.4769 3 16.5431 3C19.3847 3 21.7205 5.36812 21.75 8.28C21.7753 10.8211 20.8767 13.1672 19.0027 15.4519C18.1228 16.5239 16.5277 18.2386 12.8438 20.7394C12.595 20.9089 12.301 20.9998 12 21Z" fill="#333333"/>
</svg>
