<svg width="24" height="24" viewBox="0 0 24 24" fill="none" xmlns="http://www.w3.org/2000/svg">
<path fill-rule="evenodd" clip-rule="evenodd" d="M6.99987 4.51677C8.47991 3.52784 10.22 3 12 3C14.387 3 16.6761 3.94821 18.364 5.63604C20.0518 7.32387 21 9.61305 21 12C21 13.78 20.4722 15.5201 19.4832 17.0001C18.4943 18.4802 17.0887 19.6337 15.4442 20.3149C13.7996 20.9961 11.99 21.1743 10.2442 20.8271C8.49836 20.4798 6.89472 19.6226 5.63604 18.364C4.37737 17.1053 3.5202 15.5016 3.17294 13.7558C2.82567 12.01 3.0039 10.2004 3.68509 8.55585C4.36628 6.91131 5.51983 5.50571 6.99987 4.51677ZM12 4.5C10.5166 4.5 9.0666 4.93987 7.83323 5.76398C6.59986 6.58809 5.63856 7.75943 5.07091 9.12987C4.50325 10.5003 4.35473 12.0083 4.64411 13.4632C4.9335 14.918 5.64781 16.2544 6.6967 17.3033C7.7456 18.3522 9.08197 19.0665 10.5368 19.3559C11.9917 19.6453 13.4997 19.4968 14.8701 18.9291C16.2406 18.3614 17.4119 17.4001 18.236 16.1668C19.0601 14.9334 19.5 13.4834 19.5 12C19.5 10.0109 18.7098 8.10322 17.3033 6.6967C15.8968 5.29018 13.9891 4.5 12 4.5Z" fill="#333333"/>
<path d="M12.0091 8.06243C12.4649 8.05667 12.8114 8.13593 12.9615 8.20737L13.5256 7.02229L9.88065 7.44456L9.375 9.48233L10.0299 9.52516L10.0304 9.51508L10.0304 9.51629L10.0302 9.5185L10.0302 9.52212C10.0311 9.51425 10.0335 9.49652 10.0386 9.47056C10.0489 9.41849 10.0701 9.33475 10.1121 9.23159C10.195 9.02824 10.3622 8.74174 10.704 8.46667C11.0674 8.17397 11.5259 8.06977 12.0091 8.06243Z" fill="#333333"/>
<path fill-rule="evenodd" clip-rule="evenodd" d="M10.0302 9.52212L10.0299 9.52516L10.0304 9.51508L10.0304 9.51629L10.0302 9.5185L10.0302 9.52212ZM10.0297 9.52615L10.0299 9.52516L9.375 9.48233L9.88065 7.44456L13.5256 7.02229L12.9615 8.20737C13.3989 8.41556 13.9687 8.79825 13.9687 9.54093C13.9687 10.3716 13.4932 10.7477 12.5546 11.3771C12.0314 11.7281 11.66 12.1205 11.424 12.5608C11.1869 13.0031 11.1094 13.4509 11.1094 13.875C11.1094 14.2374 11.4032 14.5312 11.7656 14.5312C12.1281 14.5312 12.4219 14.2374 12.4219 13.875C12.4219 13.6161 12.4676 13.392 12.5808 13.1809C12.6951 12.9677 12.901 12.7252 13.2857 12.4672L13.3158 12.447C14.1884 11.862 15.2812 11.1294 15.2812 9.54093C15.2812 7.96706 14.0258 7.26035 13.5256 7.02229C13.1283 6.83315 12.5601 6.74276 11.9916 6.75004L11.9902 6.75006C11.3488 6.75968 10.5586 6.89855 9.88065 7.44456C9.34476 7.87583 9.05299 8.35283 8.89673 8.73616C8.81919 8.92638 8.77562 9.09187 8.75111 9.21568C8.73884 9.27767 8.73128 9.32955 8.72662 9.36929C8.72429 9.38918 8.72268 9.40608 8.72157 9.41974L8.72024 9.4378L8.71981 9.44497L8.71964 9.44808L8.71954 9.4502C8.70216 9.81222 8.98151 10.1205 9.34353 10.1378C9.70174 10.155 10.0065 9.8826 10.0297 9.52615ZM8.71954 9.4502C8.71954 9.4502 8.7195 9.45087 9.375 9.48233L8.71954 9.4502Z" fill="#333333"/>
<path d="M11.7188 17.25C12.2365 17.25 12.6562 16.8303 12.6562 16.3125C12.6562 15.7947 12.2365 15.375 11.7188 15.375C11.201 15.375 10.7812 15.7947 10.7812 16.3125C10.7812 16.8303 11.201 17.25 11.7188 17.25Z" fill="#333333"/>
</svg>
