<svg width="24" height="24" viewBox="0 0 24 24" fill="none" xmlns="http://www.w3.org/2000/svg">
<path d="M20.4792 4H3.52083C2.13025 4 1 5.13025 1 6.52083V17.9792C1 19.3698 2.13025 20.5 3.52083 20.5H20.4792C21.8698 20.5 23 19.3698 23 17.9792V6.52083C23 5.13025 21.8698 4 20.4792 4ZM7.875 7.66667C9.13817 7.66667 10.1667 8.69517 10.1667 9.95833C10.1667 11.2215 9.13817 12.25 7.875 12.25C6.61183 12.25 5.58333 11.2215 5.58333 9.95833C5.58333 8.69517 6.61183 7.66667 7.875 7.66667ZM12 16.1458C12 16.5253 11.692 16.8333 11.3125 16.8333H4.4375C4.058 16.8333 3.75 16.5253 3.75 16.1458V15.6875C3.75 14.2969 4.88025 13.1667 6.27083 13.1667H9.47917C10.8698 13.1667 12 14.2969 12 15.6875V16.1458ZM19.5625 16.8333H14.5208C14.1413 16.8333 13.8333 16.5253 13.8333 16.1458C13.8333 15.7663 14.1413 15.4583 14.5208 15.4583H19.5625C19.942 15.4583 20.25 15.7663 20.25 16.1458C20.25 16.5253 19.942 16.8333 19.5625 16.8333ZM19.5625 13.1667H14.5208C14.1413 13.1667 13.8333 12.8587 13.8333 12.4792C13.8333 12.0997 14.1413 11.7917 14.5208 11.7917H19.5625C19.942 11.7917 20.25 12.0997 20.25 12.4792C20.25 12.8587 19.942 13.1667 19.5625 13.1667ZM19.5625 9.5H14.5208C14.1413 9.5 13.8333 9.192 13.8333 8.8125C13.8333 8.433 14.1413 8.125 14.5208 8.125H19.5625C19.942 8.125 20.25 8.433 20.25 8.8125C20.25 9.192 19.942 9.5 19.5625 9.5Z" fill="#333333"/>
</svg>
