<svg width="24" height="24" viewBox="0 0 24 24" fill="none" xmlns="http://www.w3.org/2000/svg">
<path fill-rule="evenodd" clip-rule="evenodd" d="M6.75 8.625C5.85489 8.625 4.99645 8.98058 4.36351 9.61351C3.73058 10.2465 3.375 11.1049 3.375 12C3.375 12.8951 3.73058 13.7536 4.36351 14.3865C4.99645 15.0194 5.85489 15.375 6.75 15.375H9.40594C10.0273 15.375 10.5309 15.8787 10.5309 16.5C10.5309 17.1213 10.0273 17.625 9.40594 17.625H6.75C5.25816 17.625 3.82742 17.0324 2.77252 15.9775C1.71763 14.9226 1.125 13.4918 1.125 12C1.125 10.5082 1.71763 9.07742 2.77252 8.02252C3.82742 6.96763 5.25816 6.375 6.75 6.375H9.34734C9.96866 6.375 10.4723 6.87868 10.4723 7.5C10.4723 8.12132 9.96866 8.625 9.34734 8.625H6.75ZM13.5277 7.5C13.5277 6.87868 14.0313 6.375 14.6527 6.375H17.25C18.7418 6.375 20.1726 6.96763 21.2275 8.02252C22.2824 9.07742 22.875 10.5082 22.875 12C22.875 13.4918 22.2824 14.9226 21.2275 15.9775C20.1726 17.0324 18.7418 17.625 17.25 17.625H14.5941C13.9727 17.625 13.4691 17.1213 13.4691 16.5C13.4691 15.8787 13.9727 15.375 14.5941 15.375H17.25C18.1451 15.375 19.0036 15.0194 19.6365 14.3865C20.2694 13.7536 20.625 12.8951 20.625 12C20.625 11.1049 20.2694 10.2464 19.6365 9.61351C19.0036 8.98058 18.1451 8.625 17.25 8.625H14.6527C14.0313 8.625 13.5277 8.12132 13.5277 7.5ZM6.80016 12C6.80016 11.3787 7.30384 10.875 7.92516 10.875H16.1686C16.7899 10.875 17.2936 11.3787 17.2936 12C17.2936 12.6213 16.7899 13.125 16.1686 13.125H7.92516C7.30384 13.125 6.80016 12.6213 6.80016 12Z" fill="#333333"/>
</svg>
