<svg width="24" height="24" viewBox="0 0 24 24" fill="none" xmlns="http://www.w3.org/2000/svg">
<path d="M20.7187 2.25H16.5C16.2265 2.25 15.9642 2.35865 15.7708 2.55205C15.5774 2.74544 15.4687 3.00775 15.4687 3.28125C15.4687 3.55475 15.5774 3.81706 15.7708 4.01045C15.9642 4.20385 16.2265 4.3125 16.5 4.3125H18.2292L15.3984 7.14328C12.202 4.66547 7.5703 4.89328 4.63873 7.82625C1.45873 11.0067 1.45873 16.1808 4.64061 19.3594C6.17134 20.8855 8.2447 21.7425 10.4062 21.7425C12.5678 21.7425 14.6411 20.8855 16.1719 19.3594C19.1048 16.4259 19.3326 11.7961 16.8548 8.59969L19.6875 5.77078V7.5C19.6875 7.7735 19.7961 8.03581 19.9895 8.2292C20.1829 8.4226 20.4452 8.53125 20.7187 8.53125C20.9922 8.53125 21.2545 8.4226 21.4479 8.2292C21.6413 8.03581 21.75 7.7735 21.75 7.5V3.28125C21.75 3.14582 21.7233 3.01172 21.6715 2.88661C21.6197 2.76149 21.5437 2.64781 21.4479 2.55205C21.3522 2.45629 21.2385 2.38032 21.1134 2.3285C20.9883 2.27667 20.8542 2.25 20.7187 2.25ZM14.715 17.9025C13.5714 19.0437 12.0218 19.6846 10.4062 19.6846C8.79065 19.6846 7.24106 19.0437 6.09748 17.9025C3.72139 15.5269 3.72139 11.6606 6.09748 9.285C8.47358 6.90938 12.3394 6.90891 14.715 9.285C17.0906 11.6611 17.0911 15.5269 14.715 17.9025Z" fill="#333333"/>
</svg>
