<svg width="24" height="24" viewBox="0 0 24 24" fill="none" xmlns="http://www.w3.org/2000/svg">
<path d="M11.8125 5.8125C13.1414 5.8125 14.2188 4.73519 14.2188 3.40625C14.2188 2.07731 13.1414 1 11.8125 1C10.4836 1 9.40625 2.07731 9.40625 3.40625C9.40625 4.73519 10.4836 5.8125 11.8125 5.8125Z" fill="#333333"/>
<path d="M13.875 6.5H9.75C9.02132 6.50215 8.32309 6.79258 7.80784 7.30784C7.29258 7.82309 7.00215 8.52132 7 9.25V13.87C7 14.3362 7.36223 14.7328 7.82801 14.7496C7.94344 14.7538 8.05853 14.7347 8.16642 14.6934C8.2743 14.6522 8.37276 14.5896 8.4559 14.5094C8.53905 14.4292 8.60518 14.3331 8.65034 14.2268C8.6955 14.1205 8.71877 14.0061 8.71875 13.8906V9.60535C8.71766 9.51667 8.75013 9.43085 8.80966 9.3651C8.86919 9.29936 8.95137 9.25855 9.03973 9.25086C9.08675 9.24774 9.13391 9.25432 9.17828 9.27019C9.22265 9.28606 9.26328 9.31088 9.29765 9.34312C9.33203 9.37536 9.3594 9.41432 9.37809 9.45758C9.39677 9.50084 9.40635 9.54749 9.40625 9.59461V22.0117C9.40625 22.2738 9.51037 22.5252 9.69571 22.7105C9.88105 22.8959 10.1324 23 10.3945 23C10.6566 23 10.908 22.8959 11.0934 22.7105C11.2787 22.5252 11.3828 22.2738 11.3828 22.0117V15.8818C11.3813 15.7708 11.4218 15.6634 11.4961 15.581C11.5704 15.4986 11.6732 15.4474 11.7837 15.4375C11.8425 15.4336 11.9015 15.4417 11.957 15.4616C12.0125 15.4814 12.0633 15.5124 12.1063 15.5527C12.1493 15.593 12.1836 15.6417 12.207 15.6958C12.2303 15.7499 12.2423 15.8083 12.2422 15.8672V22.0117C12.2422 22.2738 12.3463 22.5252 12.5316 22.7105C12.717 22.8959 12.9684 23 13.2305 23C13.4926 23 13.744 22.8959 13.9293 22.7105C14.1146 22.5252 14.2188 22.2738 14.2188 22.0117V9.60535C14.2177 9.51667 14.2501 9.43085 14.3097 9.3651C14.3692 9.29936 14.4514 9.25855 14.5397 9.25086C14.5867 9.24774 14.6339 9.25432 14.6783 9.27019C14.7226 9.28606 14.7633 9.31088 14.7977 9.34312C14.832 9.37536 14.8594 9.41432 14.8781 9.45758C14.8968 9.50084 14.9064 9.54749 14.9062 9.59461V13.8709C14.9062 14.3371 15.2685 14.7337 15.7343 14.7504C15.8498 14.7546 15.9649 14.7355 16.0729 14.6942C16.1808 14.6529 16.2793 14.5902 16.3625 14.5099C16.4456 14.4297 16.5117 14.3334 16.5568 14.227C16.602 14.1206 16.6251 14.0062 16.625 13.8906V9.25C16.6228 8.52132 16.3324 7.82309 15.8172 7.30784C15.3019 6.79258 14.6037 6.50215 13.875 6.5Z" fill="#333333"/>
</svg>
