<svg width="24" height="24" viewBox="0 0 24 24" fill="none" xmlns="http://www.w3.org/2000/svg">
<path d="M2.25798 5.31282C2.02717 5.44419 1.83538 5.63449 1.70221 5.86427C1.56904 6.09404 1.49926 6.35505 1.50001 6.62063V20.5313C1.49917 20.7904 1.5655 21.0454 1.69253 21.2713C1.81956 21.4972 2.00296 21.6864 2.22484 21.8203C2.44673 21.9542 2.69953 22.0284 2.95861 22.0355C3.21769 22.0427 3.4742 21.9826 3.70313 21.8611C3.72329 21.8503 3.74298 21.8391 3.7622 21.8264L7.70626 19.2459C7.75863 19.2118 7.80164 19.1651 7.83136 19.1101C7.86107 19.055 7.87656 18.9935 7.87641 18.9309V2.17735C7.87661 2.10904 7.85813 2.04197 7.82299 1.98339C7.78785 1.92481 7.73738 1.87694 7.67702 1.84495C7.61666 1.81296 7.54871 1.79807 7.4805 1.80188C7.4123 1.80569 7.34643 1.82806 7.29001 1.86657L2.25798 5.31282ZM9.95438 1.84266C9.89784 1.80591 9.83244 1.78508 9.76506 1.78238C9.69767 1.77967 9.63081 1.79518 9.5715 1.82728C9.5122 1.85938 9.46265 1.90688 9.42806 1.96478C9.39348 2.02267 9.37515 2.08882 9.37501 2.15625V18.9169C9.37486 18.9794 9.39035 19.041 9.42007 19.096C9.44978 19.151 9.49279 19.1977 9.54516 19.2319L14.0452 22.1578C14.1017 22.1947 14.1672 22.2156 14.2347 22.2184C14.3022 22.2211 14.3692 22.2056 14.4286 22.1734C14.488 22.1413 14.5376 22.0937 14.5722 22.0356C14.6067 21.9776 14.625 21.9113 14.625 21.8438V5.09391C14.6252 5.03126 14.6097 4.96956 14.5799 4.91446C14.55 4.85935 14.5069 4.81259 14.4544 4.77844L9.95438 1.84266ZM21.7749 2.17829C21.5538 2.043 21.3011 1.968 21.0421 1.96076C20.783 1.95352 20.5266 2.0143 20.2983 2.13704C20.2781 2.14741 20.2585 2.159 20.2397 2.17172L16.2952 4.74985C16.2428 4.784 16.1998 4.83072 16.1701 4.88573C16.1403 4.94075 16.1249 5.00232 16.125 5.06485V21.8208C16.1248 21.8892 16.1432 21.9563 16.1784 22.015C16.2135 22.0736 16.2641 22.1216 16.3245 22.1536C16.3849 22.1856 16.453 22.2004 16.5213 22.1966C16.5895 22.1927 16.6555 22.1702 16.7119 22.1316L21.7308 18.6881C21.9644 18.5578 22.1589 18.3674 22.2941 18.1366C22.4294 17.9059 22.5005 17.6431 22.5 17.3756V3.50063C22.5031 3.23646 22.438 2.97595 22.3109 2.74431C22.1839 2.51266 21.9993 2.3177 21.7749 2.17829Z" fill="#333333"/>
</svg>
