<svg width="24" height="24" viewBox="0 0 24 24" fill="none" xmlns="http://www.w3.org/2000/svg">
<path fill-rule="evenodd" clip-rule="evenodd" d="M3.96967 2.46967C4.26256 2.17678 4.73744 2.17678 5.03033 2.46967L20.7803 18.2197C21.0732 18.5126 21.0732 18.9874 20.7803 19.2803C20.4874 19.5732 20.0126 19.5732 19.7197 19.2803L3.96967 3.53033C3.67678 3.23744 3.67678 2.76256 3.96967 2.46967Z" fill="#333333"/>
<path d="M18.75 11.25V9.77109C18.75 9.3675 18.4397 9.02109 18.0361 9.00094C17.9347 8.99605 17.8333 9.0118 17.7382 9.04724C17.6431 9.08268 17.5561 9.13707 17.4826 9.2071C17.4091 9.27714 17.3506 9.36137 17.3106 9.45469C17.2706 9.54801 17.25 9.64847 17.25 9.75V11.25C17.2502 11.6344 17.2081 12.0176 17.1244 12.3928C17.121 12.4081 17.1215 12.424 17.1258 12.4391C17.1301 12.4542 17.1382 12.4679 17.1492 12.4791L18.2081 13.538C18.2192 13.5491 18.233 13.5572 18.2481 13.5617C18.2631 13.5661 18.2791 13.5666 18.2945 13.5633C18.3098 13.5599 18.3241 13.5527 18.3359 13.5424C18.3478 13.5321 18.3569 13.519 18.3623 13.5042C18.6195 12.7805 18.7506 12.018 18.75 11.25ZM12 16.5C10.609 16.4956 9.27621 15.941 8.2926 14.9574C7.309 13.9738 6.75445 12.641 6.75 11.25V9.77109C6.75 9.3675 6.43969 9.02109 6.03609 9.00094C5.93469 8.99605 5.83334 9.0118 5.7382 9.04724C5.64307 9.08268 5.55611 9.13707 5.48261 9.2071C5.40911 9.27714 5.3506 9.36137 5.31062 9.45469C5.27063 9.54801 5.25001 9.64847 5.25 9.75V11.25C5.25 14.7187 7.87969 17.5837 11.25 17.9583V20.25H9.02109C8.6175 20.25 8.27109 20.5603 8.25094 20.9639C8.24605 21.0653 8.26181 21.1667 8.29724 21.2618C8.33268 21.3569 8.38707 21.4439 8.4571 21.5174C8.52714 21.5909 8.61137 21.6494 8.70469 21.6894C8.79801 21.7294 8.89848 21.75 9 21.75H14.9789C15.3825 21.75 15.7289 21.4397 15.7491 21.0361C15.7539 20.9347 15.7382 20.8333 15.7028 20.7382C15.6673 20.6431 15.6129 20.5561 15.5429 20.4826C15.4729 20.4091 15.3886 20.3506 15.2953 20.3106C15.202 20.2706 15.1015 20.25 15 20.25H12.75V17.9583C13.6037 17.8633 14.4312 17.6052 15.1875 17.198C15.2132 17.184 15.2352 17.1643 15.2519 17.1403C15.2685 17.1163 15.2794 17.0888 15.2835 17.0598C15.2877 17.0309 15.285 17.0015 15.2757 16.9738C15.2665 16.9461 15.2509 16.9209 15.2302 16.9003L14.3677 16.0383C14.3471 16.0178 14.3207 16.0042 14.292 15.9993C14.2634 15.9945 14.234 15.9986 14.2078 16.0111C13.5166 16.3339 12.7629 16.5009 12 16.5ZM12.0534 2.25C11.4167 2.23831 10.7875 2.38969 10.2257 2.68972C9.66398 2.98976 9.1883 3.4285 8.84391 3.96422C8.82068 4.00029 8.81052 4.04323 8.81512 4.08588C8.81973 4.12853 8.83882 4.16832 8.86922 4.19859L15.5902 10.9219C15.6033 10.9349 15.62 10.9438 15.6382 10.9474C15.6564 10.9509 15.6752 10.9491 15.6923 10.9419C15.7094 10.9348 15.724 10.9228 15.7343 10.9074C15.7445 10.892 15.75 10.8738 15.75 10.8553V6.04266C15.75 3.98437 14.1094 2.27812 12.0534 2.25Z" fill="#333333"/>
<path d="M8.40984 10.0781C8.39671 10.0651 8.37999 10.0562 8.36182 10.0526C8.34364 10.0491 8.32481 10.0509 8.30771 10.0581C8.29061 10.0652 8.276 10.0772 8.26573 10.0926C8.25546 10.1081 8.24999 10.1262 8.25 10.1447V11.2031C8.25068 12.2023 8.64571 13.1608 9.34922 13.8703C9.81057 14.35 10.3933 14.6957 11.0355 14.8706C11.6776 15.0455 12.3552 15.0431 12.9961 14.8636C13.0119 14.8591 13.0262 14.8506 13.0377 14.8389C13.0492 14.8271 13.0574 14.8126 13.0614 14.7967C13.0655 14.7808 13.0654 14.7641 13.061 14.7483C13.0566 14.7325 13.0481 14.7181 13.0364 14.7066L8.40984 10.0781Z" fill="#333333"/>
</svg>
