<svg width="24" height="24" viewBox="0 0 24 24" fill="none" xmlns="http://www.w3.org/2000/svg">
<path fill-rule="evenodd" clip-rule="evenodd" d="M6 9C6.41421 9 6.75 9.33579 6.75 9.75V11.25C6.75 14.1358 9.11421 16.5 12 16.5C14.8858 16.5 17.25 14.1358 17.25 11.25V9.75C17.25 9.33579 17.5858 9 18 9C18.4142 9 18.75 9.33579 18.75 9.75V11.25C18.75 14.7108 16.1143 17.5826 12.75 17.9584V20.25H15C15.4142 20.25 15.75 20.5858 15.75 21C15.75 21.4142 15.4142 21.75 15 21.75H9C8.58579 21.75 8.25 21.4142 8.25 21C8.25 20.5858 8.58579 20.25 9 20.25H11.25V17.9584C7.88568 17.5826 5.25 14.7108 5.25 11.25V9.75C5.25 9.33579 5.58579 9 6 9Z" fill="#333333"/>
<path d="M12 15C11.505 14.9988 11.0153 14.8982 10.5599 14.7042C10.1046 14.5101 9.69284 14.2266 9.34919 13.8703C8.64567 13.1608 8.25064 12.2023 8.24997 11.2031V6C8.24805 5.507 8.34373 5.0185 8.53151 4.56266C8.71928 4.10683 8.99543 3.69267 9.34403 3.34406C9.69264 2.99546 10.1068 2.71931 10.5626 2.53154C11.0185 2.34376 11.507 2.24808 12 2.25C14.1028 2.25 15.75 3.89719 15.75 6V11.2031C15.75 13.2966 14.0676 15 12 15Z" fill="#333333"/>
</svg>
