<svg width="24" height="24" viewBox="0 0 24 24" fill="none" xmlns="http://www.w3.org/2000/svg">
<path d="M12.375 22.5C9.49077 22.5 6.72467 21.3542 4.68521 19.3148C2.64576 17.2753 1.5 14.5092 1.5 11.625C1.5 7.21875 4.03125 3.26813 7.95047 1.56235C8.0886 1.50215 8.24165 1.48495 8.3897 1.51299C8.53774 1.54103 8.6739 1.61301 8.78045 1.71956C8.88699 1.8261 8.95897 1.96226 8.98701 2.11031C9.01506 2.25835 8.99786 2.41141 8.93766 2.54953C8.48766 3.58266 8.25 4.90594 8.25 6.375C8.25 11.5444 12.4556 15.75 17.625 15.75C19.0941 15.75 20.4173 15.5123 21.4505 15.0623C21.5886 15.0021 21.7417 14.9849 21.8897 15.013C22.0377 15.041 22.1739 15.113 22.2804 15.2196C22.387 15.3261 22.459 15.4623 22.487 15.6103C22.5151 15.7583 22.4979 15.9114 22.4377 16.0495C20.7319 19.9688 16.7813 22.5 12.375 22.5Z" fill="#333333"/>
</svg>
