<svg width="24" height="24" viewBox="0 0 24 24" fill="none" xmlns="http://www.w3.org/2000/svg">
<path d="M19.7737 1.75172C19.6253 1.63738 19.4524 1.55899 19.2686 1.52272C19.0848 1.48644 18.8951 1.49327 18.7144 1.54266L9.37125 4.05422C9.04706 4.14129 8.761 4.33363 8.55804 4.601C8.35507 4.86836 8.24672 5.19559 8.25 5.53125V16.125C8.25 16.4409 8.04562 16.7138 7.72921 16.8202L7.72359 16.8225L5.28609 17.6663C4.35375 17.978 3.75 18.8438 3.75 19.8708C3.74658 20.2885 3.84374 20.7009 4.03326 21.0732C4.22279 21.4455 4.49911 21.7667 4.8389 22.0097C5.27647 22.3276 5.80322 22.4992 6.34406 22.5C6.627 22.4995 6.908 22.4531 7.17609 22.3627L7.1939 22.3566L8.21765 21.9844C8.66174 21.8361 9.04829 21.5526 9.32309 21.1735C9.5979 20.7945 9.74718 20.339 9.75 19.8708V9.93328C9.75 9.59156 9.97359 9.31406 10.32 9.22688L10.3298 9.22406L18.5156 7.03781C18.5433 7.03067 18.5722 7.02995 18.6002 7.03569C18.6282 7.04143 18.6545 7.05349 18.6771 7.07094C18.6997 7.0884 18.718 7.11079 18.7306 7.13641C18.7433 7.16202 18.7499 7.19019 18.75 7.21875V13.8717C18.75 14.1881 18.5508 14.452 18.2292 14.5598L18.2175 14.5641L15.832 15.413C15.3681 15.5656 14.9648 15.8618 14.6804 16.2588C14.396 16.6557 14.2452 17.1329 14.25 17.6213C14.2458 18.0402 14.3426 18.4541 14.5321 18.8278C14.7216 19.2014 14.9984 19.524 15.3389 19.7681C15.6723 20.0091 16.0588 20.1663 16.4658 20.2263C16.8728 20.2862 17.2883 20.2473 17.677 20.1127L17.6939 20.107L18.7177 19.7344C19.1617 19.5862 19.5482 19.3028 19.823 18.9238C20.0979 18.5448 20.2471 18.0894 20.25 17.6213V2.71875C20.251 2.53168 20.2085 2.34693 20.1259 2.1791C20.0432 2.01127 19.9227 1.86495 19.7737 1.75172Z" fill="#333333"/>
</svg>
