<svg width="24" height="24" viewBox="0 0 24 24" fill="none" xmlns="http://www.w3.org/2000/svg">
<path d="M8.61704 22.5C8.07195 22.499 7.54108 22.326 7.10016 22.0055C6.75984 21.7596 6.48268 21.4365 6.29143 21.0627C6.10019 20.689 6.00031 20.2752 6.00001 19.8553C5.99878 19.3617 6.15259 18.8803 6.43973 18.4788C6.72687 18.0774 7.13283 17.7763 7.60032 17.618L9.98438 16.8155C10.1356 16.7638 10.2668 16.6659 10.3594 16.5356C10.4519 16.4053 10.5011 16.2492 10.5 16.0894V4.3125C10.4993 3.97827 10.6099 3.65332 10.8144 3.38893C11.0189 3.12453 11.3056 2.93574 11.6292 2.85234L16.71 1.53328C16.8624 1.49377 17.0218 1.48969 17.1761 1.52134C17.3303 1.553 17.4752 1.61954 17.5998 1.71588C17.7243 1.81222 17.8251 1.93579 17.8945 2.07713C17.9639 2.21846 18 2.3738 18 2.53125V5.23828C18.0009 5.57354 17.8898 5.89949 17.6842 6.16437C17.4787 6.42925 17.1906 6.61788 16.8656 6.70031L12.5695 7.78453C12.4055 7.82722 12.2604 7.92343 12.1572 8.05793C12.054 8.19243 11.9987 8.35752 12 8.52703V19.875C12.0013 20.3488 11.8536 20.811 11.5779 21.1964C11.3022 21.5817 10.9123 21.8706 10.4634 22.0223L9.45704 22.3612C9.18645 22.4529 8.90272 22.4998 8.61704 22.5Z" fill="#333333"/>
</svg>
