<svg width="24" height="24" viewBox="0 0 24 24" fill="none" xmlns="http://www.w3.org/2000/svg">
<path fill-rule="evenodd" clip-rule="evenodd" d="M21.5302 2.46959C21.752 2.69126 21.8124 3.02747 21.6818 3.31249L13.4318 21.3125C13.2849 21.633 12.9346 21.8079 12.5901 21.7327C12.2456 21.6576 12 21.3526 12 21V12.0066H3C2.64745 12.0066 2.3425 11.761 2.26727 11.4166C2.19205 11.0722 2.36686 10.7218 2.6873 10.5749L20.6873 2.31829C20.9723 2.18757 21.3085 2.24792 21.5302 2.46959ZM6.43393 10.5066H12.375C12.6734 10.5066 12.9595 10.6251 13.1705 10.8361C13.3815 11.047 13.5 11.3332 13.5 11.6316V17.5636L19.4765 4.52397L6.43393 10.5066Z" fill="#333333"/>
</svg>
