<svg width="24" height="24" viewBox="0 0 24 24" fill="none" xmlns="http://www.w3.org/2000/svg">
<path d="M12.75 21.75C12.6498 21.75 12.5506 21.73 12.4583 21.6911C12.366 21.6522 12.2825 21.5952 12.2126 21.5234C12.1427 21.4517 12.0878 21.3667 12.0513 21.2734C12.0148 21.1801 11.9973 21.0804 12 20.9803V12.3811C12 12.2816 11.9605 12.1863 11.8901 12.1159C11.8198 12.0456 11.7244 12.0061 11.625 12.0061H3.0192C2.86145 12.008 2.70699 11.961 2.577 11.8716C2.447 11.7822 2.34784 11.6548 2.2931 11.5069C2.23077 11.3304 2.23665 11.1371 2.30959 10.9647C2.38253 10.7924 2.51726 10.6536 2.68732 10.5755L20.6873 2.31844C20.8264 2.25472 20.9816 2.23505 21.1322 2.26206C21.2827 2.28907 21.4214 2.36148 21.5297 2.46957C21.6379 2.57765 21.7105 2.71626 21.7378 2.86678C21.765 3.01731 21.7455 3.17256 21.682 3.31172L13.432 21.3117C13.3723 21.4424 13.2762 21.5533 13.1553 21.631C13.0344 21.7087 12.8937 21.75 12.75 21.75Z" fill="#333333"/>
</svg>
