<svg width="24" height="24" viewBox="0 0 24 24" fill="none" xmlns="http://www.w3.org/2000/svg">
<path d="M21 21.75C20.9015 21.7502 20.804 21.7308 20.713 21.6931C20.622 21.6553 20.5393 21.6 20.4699 21.5302L2.46986 3.53016C2.33515 3.38836 2.26115 3.19955 2.26366 3.00398C2.26616 2.8084 2.34496 2.62155 2.48327 2.48325C2.62157 2.34495 2.80842 2.26614 3.00399 2.26364C3.19957 2.26114 3.38838 2.33513 3.53017 2.46984L21.5302 20.4698C21.635 20.5747 21.7064 20.7083 21.7353 20.8538C21.7642 20.9992 21.7493 21.15 21.6926 21.287C21.6359 21.424 21.5398 21.5411 21.4165 21.6235C21.2932 21.7059 21.1483 21.7499 21 21.75ZM20.6288 15.9989C20.551 15.9052 20.4746 15.8114 20.3996 15.7209C19.3683 14.4736 18.7444 13.7208 18.7444 10.1897C18.7444 8.36156 18.3071 6.86156 17.445 5.73656C16.8094 4.90547 15.9502 4.275 14.8177 3.80906C14.8031 3.80096 14.7901 3.79032 14.7792 3.77766C14.3719 2.41359 13.2572 1.5 12 1.5C10.7428 1.5 9.62861 2.41359 9.22127 3.77625C9.2104 3.78845 9.19756 3.79875 9.1833 3.80672C8.82859 3.95178 8.48568 4.12417 8.15767 4.32234C8.1092 4.3519 8.06806 4.39208 8.03737 4.43985C8.00669 4.48762 7.98725 4.54173 7.98052 4.59811C7.97379 4.65449 7.97996 4.71166 7.99855 4.76531C8.01714 4.81895 8.04767 4.86768 8.08783 4.90781L20.3588 17.1769C20.414 17.2321 20.485 17.2688 20.562 17.2817C20.6391 17.2946 20.7182 17.2831 20.7884 17.2489C20.8586 17.2147 20.9164 17.1594 20.9536 17.0908C20.9909 17.0222 21.0058 16.9436 20.9963 16.8661C20.9601 16.5476 20.8325 16.2464 20.6288 15.9989ZM5.25658 10.1883C5.25658 13.7208 4.63361 14.4736 3.60142 15.7195C3.52642 15.81 3.45002 15.9019 3.37221 15.9975C3.17121 16.2399 3.04386 16.5348 3.00523 16.8473C2.9666 17.1598 3.01831 17.4769 3.15424 17.7609C3.44346 18.3703 4.05986 18.7486 4.76346 18.7486H14.6625C14.7367 18.7487 14.8093 18.7267 14.871 18.6855C14.9327 18.6443 14.9808 18.5857 15.0093 18.5171C15.0377 18.4486 15.0451 18.3731 15.0306 18.3004C15.0161 18.2276 14.9803 18.1607 14.9278 18.1083L5.92783 9.10828C5.87722 9.05783 5.81325 9.0229 5.74346 9.00758C5.67366 8.99227 5.60094 8.99722 5.53386 9.02184C5.46678 9.04647 5.40813 9.08975 5.36482 9.14658C5.32151 9.20342 5.29534 9.27145 5.28939 9.34266C5.26752 9.61422 5.25658 9.89609 5.25658 10.1883ZM12 22.5C12.6774 22.4995 13.342 22.3156 13.9233 21.9679C14.5046 21.6202 14.981 21.1217 15.3019 20.5252C15.317 20.4966 15.3245 20.4646 15.3236 20.4322C15.3227 20.3999 15.3134 20.3684 15.2967 20.3407C15.28 20.313 15.2564 20.2901 15.2283 20.2742C15.2001 20.2583 15.1683 20.25 15.136 20.25H8.86502C8.83264 20.2499 8.80078 20.2582 8.77255 20.274C8.74432 20.2899 8.72067 20.3128 8.70392 20.3405C8.68716 20.3682 8.67787 20.3997 8.67694 20.4321C8.67601 20.4645 8.68348 20.4965 8.69861 20.5252C9.01949 21.1216 9.49579 21.6201 10.077 21.9678C10.6583 22.3155 11.3227 22.4994 12 22.5Z" fill="#333333"/>
</svg>
