<svg width="24" height="24" viewBox="0 0 24 24" fill="none" xmlns="http://www.w3.org/2000/svg">
<path d="M22.1719 1.83047C22.0185 1.67713 21.8241 1.5714 21.612 1.52599C21.4 1.48058 21.1793 1.49744 20.9766 1.57453L2.22517 8.67187H2.22142C2.00522 8.75503 1.81995 8.9029 1.69093 9.09529C1.56191 9.28768 1.49542 9.5152 1.50055 9.74679C1.50568 9.97838 1.58217 10.2027 1.71958 10.3892C1.85699 10.5757 2.04862 10.7152 2.2683 10.7887L2.28752 10.7948L8.72345 13.5431C8.84899 13.5812 8.98232 13.5857 9.11014 13.5562C9.23796 13.5267 9.3558 13.4642 9.45189 13.3748L19.7813 3.75C19.812 3.71922 19.8486 3.69481 19.8888 3.67815C19.929 3.66149 19.9721 3.65292 20.0156 3.65292C20.0592 3.65292 20.1023 3.66149 20.1425 3.67815C20.1827 3.69481 20.2192 3.71922 20.25 3.75C20.2808 3.78078 20.3052 3.81732 20.3219 3.85753C20.3385 3.89775 20.3471 3.94085 20.3471 3.98437C20.3471 4.0279 20.3385 4.071 20.3219 4.11122C20.3052 4.15143 20.2808 4.18797 20.25 4.21875L10.6247 14.5434C10.5354 14.6395 10.4729 14.7574 10.4433 14.8852C10.4138 15.013 10.4183 15.1463 10.4564 15.2719L13.2056 21.7116C13.2085 21.7209 13.2113 21.7294 13.2145 21.7383C13.3645 22.1728 13.7442 22.4794 14.2031 22.5H14.25C14.4817 22.5013 14.7084 22.4329 14.9007 22.3037C15.0929 22.1744 15.2419 21.9903 15.3281 21.7753L22.4245 3.02906C22.5027 2.82622 22.5205 2.60508 22.4757 2.39236C22.4308 2.17965 22.3253 1.98448 22.1719 1.83047Z" fill="#333333"/>
</svg>
