<svg width="24" height="24" viewBox="0 0 24 24" fill="none" xmlns="http://www.w3.org/2000/svg">
<path d="M12 21.75C6.62391 21.75 2.25 17.3761 2.25 12C2.25 6.62391 6.62391 2.25 12 2.25C17.3761 2.25 21.75 6.62391 21.75 12C21.75 17.3761 17.3761 21.75 12 21.75ZM12 3.75C7.45312 3.75 3.75 7.45312 3.75 12C3.75 16.5469 7.45312 20.25 12 20.25C16.5469 20.25 20.25 16.5492 20.25 12C20.25 7.45078 16.5492 3.75 12 3.75Z" fill="#333333"/>
<path d="M15.172 13.6875C14.3564 13.6875 13.5684 13.3256 12.953 12.6689C12.3442 12.0086 11.9802 11.1595 11.9217 10.2633C11.8528 9.29297 12.1505 8.4 12.7598 7.74984C13.3692 7.09969 14.2209 6.75 15.172 6.75C16.1161 6.75 16.9706 7.10719 17.5781 7.75594C18.1856 8.40469 18.4908 9.30281 18.4219 10.2642C18.3623 11.1599 17.9984 12.0083 17.3906 12.6689C16.7747 13.3256 15.9872 13.6875 15.172 13.6875ZM7.67905 13.845C6.28405 13.845 5.05733 12.5555 4.94483 10.9702C4.88718 10.1583 5.13936 9.40781 5.65593 8.85703C6.17249 8.30625 6.88499 8.01328 7.67858 8.01328C8.47218 8.01328 9.18421 8.31516 9.69749 8.86359C10.2108 9.41203 10.4709 10.1677 10.4123 10.973C10.298 12.5559 9.07171 13.845 7.67905 13.845ZM19.7048 16.6537C19.6303 16.4334 19.4489 16.1986 19.0851 15.9759C17.9855 15.3042 16.6326 14.9489 15.172 14.9489C13.7391 14.9489 12.3487 15.3192 11.2565 15.9919C10.0261 16.7498 9.19921 17.8552 8.86593 19.1878C8.78718 19.5014 8.67233 20.085 8.79514 20.4117C10.766 21.1612 12.9373 21.1956 14.9309 20.5089C16.9245 19.8222 18.6141 18.4579 19.7053 16.6537H19.7048ZM7.67014 18.8142C8.00155 17.4919 8.70702 16.3894 9.80155 15.4978C9.8533 15.4551 9.89264 15.3993 9.91549 15.3363C9.93833 15.2732 9.94385 15.2052 9.93145 15.1392C9.91905 15.0733 9.88919 15.0119 9.84499 14.9615C9.80079 14.911 9.74386 14.8733 9.68014 14.8523C9.11764 14.6728 8.47546 14.5767 7.67905 14.5767C6.56249 14.5767 5.37702 14.8791 4.48499 15.4284C4.23186 15.5845 3.98343 15.6445 3.79218 15.698C4.56002 17.395 5.83339 18.8135 7.43811 19.7592L7.52202 19.7527C7.54037 19.4357 7.58998 19.1214 7.67014 18.8142Z" fill="#333333"/>
</svg>
