<svg width="24" height="24" viewBox="0 0 24 24" fill="none" xmlns="http://www.w3.org/2000/svg">
<path fill-rule="evenodd" clip-rule="evenodd" d="M15.75 3.75C14.63 3.75 13.6179 4.17238 12.9067 4.93071C12.1936 5.69105 11.8243 6.74499 11.9081 7.92796C12.0639 10.1272 13.721 12 15.75 12C17.7797 12 19.4335 10.126 19.5918 7.92889C19.7638 5.54708 18.0428 3.75 15.75 3.75ZM13.4044 7.82195C13.3476 7.02168 13.5963 6.38815 14.0008 5.95683C14.1238 5.82571 14.265 5.70922 14.4225 5.61052C14.7856 5.38302 15.2356 5.25 15.75 5.25C16.9862 5.25 17.9278 6.04948 18.0815 7.25156C18.1047 7.43272 18.11 7.62302 18.0957 7.82111C18.0931 7.85725 18.0899 7.89312 18.0863 7.92871C17.9268 9.48383 16.781 10.5 15.75 10.5C14.7179 10.5 13.5706 9.48289 13.4135 7.92815C13.4099 7.89302 13.4069 7.85762 13.4044 7.82195Z" fill="#333333"/>
<path fill-rule="evenodd" clip-rule="evenodd" d="M8.29386 18.5409C9.14406 15.1276 12.498 13.5 15.75 13.5C18.9956 13.5 22.3572 15.0757 23.2073 18.5438C23.3928 19.2993 22.9233 20.25 21.9295 20.25H9.57094C8.57967 20.25 8.10436 19.3013 8.2938 18.5411M9.79037 18.75H21.7109C21.0279 16.3102 18.5577 15 15.75 15C12.9516 15 10.4756 16.3494 9.79037 18.75Z" fill="#333333"/>
<path fill-rule="evenodd" clip-rule="evenodd" d="M6.89061 5.25C4.9738 5.25 3.51521 6.74868 3.6581 8.76885C3.78631 10.5799 5.16819 12.1875 6.89061 12.1875C8.61378 12.1875 9.99273 10.5787 10.123 8.76984C10.2662 6.78291 8.81235 5.25 6.89061 5.25ZM6.89061 6.75C5.8393 6.75 5.07321 7.51536 5.15436 8.66298C5.2418 9.89786 6.14929 10.6875 6.89061 10.6875C7.63118 10.6875 8.53787 9.89819 8.62692 8.66204C8.70782 7.53928 7.93699 6.75 6.89061 6.75Z" fill="#333333"/>
<path fill-rule="evenodd" clip-rule="evenodd" d="M0.788663 17.1975C1.4912 14.379 4.256 13.057 6.89062 13.057C7.95162 13.057 8.99739 13.2169 9.96864 13.6619C10.3452 13.8344 10.5106 14.2796 10.3381 14.6561C10.1655 15.0327 9.72041 15.1981 9.34384 15.0256C8.6229 14.6953 7.80493 14.557 6.89062 14.557C4.77503 14.557 2.93436 15.5392 2.33672 17.25H7.21874C7.63295 17.25 7.96874 17.5858 7.96874 18C7.96874 18.4142 7.63295 18.75 7.21874 18.75H1.95562C1.04535 18.75 0.619782 17.8792 0.788406 17.1985L0.788663 17.1975Z" fill="#333333"/>
</svg>
