<svg width="24" height="24" viewBox="0 0 24 24" fill="none" xmlns="http://www.w3.org/2000/svg">
<path d="M12.1359 2.25C6.65251 2.17594 2.17594 6.6525 2.25001 12.1359C2.32313 17.3948 6.60516 21.6769 11.8641 21.75C17.3484 21.825 21.8241 17.3484 21.7491 11.865C21.6769 6.60516 17.3948 2.32313 12.1359 2.25ZM11.9634 9.38016C11.9733 9.32391 11.9841 9.26766 11.9967 9.21188C12.1151 8.66445 12.3789 8.15906 12.7603 7.74891C13.3645 7.10531 14.2209 6.75 15.172 6.75C15.5722 6.74836 15.9696 6.81592 16.3467 6.94969C16.8155 7.1166 17.2377 7.39301 17.5781 7.75594C18.0789 8.29725 18.3771 8.99516 18.4219 9.73125C18.4348 9.90914 18.4348 10.0877 18.4219 10.2656C18.3858 10.7698 18.2554 11.2627 18.0375 11.7188C18.0138 11.7684 17.9889 11.8177 17.963 11.8664C17.9109 11.9634 17.8552 12.0586 17.7952 12.1505C17.6757 12.3339 17.5404 12.5064 17.3906 12.6661C16.7756 13.3223 15.9881 13.6847 15.173 13.6847C14.8673 13.6845 14.5637 13.6341 14.2744 13.5356C14.1772 13.5026 14.0817 13.4646 13.9884 13.4217C13.5978 13.2395 13.2464 12.9828 12.9539 12.6661C12.3451 12.0058 11.9812 11.1567 11.9227 10.2605C11.9142 10.1392 11.9114 10.0192 11.9142 9.90047C11.9179 9.72637 11.9343 9.55278 11.9634 9.3811V9.38016ZM4.94485 10.5211C4.96766 10.1866 5.05021 9.85895 5.1886 9.5536C5.22764 9.46855 5.27114 9.38562 5.31891 9.30516C5.41447 9.14387 5.52749 8.99359 5.65594 8.85703C5.84623 8.65404 6.06778 8.48281 6.31219 8.34985C6.43426 8.28313 6.56137 8.22608 6.69235 8.17922C7.19424 8.00368 7.73384 7.96501 8.25563 8.06719C8.80853 8.17413 9.3135 8.45303 9.69844 8.86407C10.1552 9.35715 10.4126 10.0023 10.4208 10.6744C10.4231 10.7733 10.4208 10.8727 10.4138 10.9734C10.3852 11.3594 10.29 11.7374 10.1325 12.0909C10.0571 12.2611 9.96724 12.4245 9.86391 12.5794C9.6652 12.8797 9.41512 13.1426 9.12516 13.3561C9.05485 13.4063 8.98172 13.4531 8.90626 13.5C8.75782 13.5884 8.60076 13.6614 8.43751 13.718C8.1934 13.8033 7.93671 13.847 7.67813 13.8473C7.63454 13.8473 7.59094 13.8473 7.54782 13.8436C7.4617 13.8389 7.37593 13.8292 7.29094 13.8145C7.20638 13.7998 7.12266 13.7806 7.04016 13.7569C6.91623 13.7211 6.79525 13.6758 6.67829 13.6214C6.63891 13.6031 6.60047 13.5839 6.56204 13.5638C5.71829 13.1189 5.08219 12.1969 4.95751 11.1206C4.95188 11.0714 4.94719 11.0222 4.94391 10.9725C4.93333 10.8222 4.93364 10.6713 4.94485 10.5211ZM7.47235 18.893C6.22428 18.0703 5.22123 16.9262 4.56891 15.5813C4.54761 15.5382 4.54361 15.4887 4.55773 15.4428C4.57186 15.397 4.60304 15.3583 4.64485 15.3347C5.51579 14.8448 6.62813 14.5781 7.67907 14.5781C8.47594 14.5781 9.11813 14.6719 9.68016 14.8538C9.74388 14.8747 9.80081 14.9124 9.84501 14.9629C9.88921 15.0133 9.91906 15.0747 9.93146 15.1406C9.94386 15.2066 9.93835 15.2746 9.91551 15.3377C9.89266 15.4007 9.85331 15.4565 9.80157 15.4992C8.70704 16.3898 8.00157 17.4933 7.67016 18.8156C7.66521 18.8359 7.65545 18.8546 7.64174 18.8703C7.62802 18.8859 7.61073 18.8981 7.59133 18.9056C7.57194 18.9132 7.551 18.916 7.53029 18.9138C7.50959 18.9116 7.48971 18.9045 7.47235 18.893ZM12 20.25C10.9447 20.2511 9.89901 20.0486 8.92032 19.6538C8.88032 19.6372 8.84727 19.6074 8.82677 19.5693C8.80626 19.5312 8.79957 19.4872 8.80782 19.4447C8.82657 19.3486 8.84719 19.2609 8.86547 19.1878C9.19922 17.8552 10.0261 16.7503 11.2561 15.9919C12.3478 15.3192 13.7405 14.9489 15.1711 14.9489C16.6317 14.9489 17.9836 15.3042 19.0842 15.9759C19.1123 15.9935 19.1324 16.0212 19.1403 16.0533C19.1483 16.0854 19.1435 16.1194 19.1269 16.148C18.401 17.3949 17.3611 18.4298 16.1106 19.1496C14.8601 19.8693 13.4428 20.2487 12 20.25Z" fill="#333333"/>
<path d="M7.54687 13.8413C7.46076 13.8365 7.37499 13.8268 7.29 13.8122C7.37499 13.8268 7.46076 13.8365 7.54687 13.8413ZM6.31125 8.34984C6.06683 8.48281 5.84528 8.65404 5.655 8.85703C5.52655 8.99359 5.41352 9.14387 5.31796 9.30516C5.41352 9.14387 5.52655 8.99359 5.655 8.85703C5.84528 8.65404 6.06683 8.48281 6.31125 8.34984ZM10.133 12.0886C10.2905 11.7351 10.3856 11.357 10.4142 10.9711C10.4212 10.8703 10.4236 10.7709 10.4212 10.672C10.4237 10.7705 10.4214 10.8702 10.4142 10.9711C10.3856 11.357 10.2905 11.7351 10.133 12.0886ZM6.31125 8.34984C6.43332 8.28313 6.56042 8.22608 6.6914 8.17922C6.56042 8.22608 6.43332 8.28313 6.31125 8.34984ZM7.04109 13.7545C6.91716 13.7187 6.79618 13.6735 6.67921 13.6191C6.79618 13.6735 6.91716 13.7187 7.04109 13.7545ZM4.95843 11.1183C5.08312 12.1964 5.72062 13.1166 6.56296 13.5614C5.71875 13.1166 5.08312 12.1945 4.95843 11.1183ZM11.9222 10.2656C11.9807 11.1618 12.3447 12.0109 12.9534 12.6713C13.2459 12.988 13.5973 13.2446 13.988 13.4269C13.5973 13.2446 13.2459 12.988 12.9534 12.6713C12.3447 12.0109 11.9807 11.1618 11.9222 10.2656C11.9137 10.1444 11.9109 10.0244 11.9137 9.90563C11.9109 10.0228 11.9137 10.1428 11.9222 10.2656ZM14.2734 13.5384C14.1762 13.5054 14.0808 13.4674 13.9875 13.4245C14.0808 13.4674 14.1762 13.5054 14.2734 13.5384ZM11.9967 9.21281C12.1151 8.66538 12.3789 8.15999 12.7603 7.74984C12.3789 8.15999 12.1151 8.66538 11.9967 9.21281ZM17.5781 7.75594C18.0789 8.29725 18.3771 8.99516 18.4219 9.73125C18.3771 8.99516 18.0789 8.29725 17.5781 7.75594C17.2377 7.39301 16.8155 7.1166 16.3467 6.94969C16.8155 7.1166 17.2377 7.39301 17.5781 7.75594ZM18.4219 10.2656C18.3858 10.7698 18.2554 11.2627 18.0375 11.7188C18.2554 11.2627 18.3858 10.7698 18.4219 10.2656ZM11.9137 9.90328C11.9174 9.72823 11.934 9.55369 11.9634 9.38109C11.934 9.55369 11.9174 9.72823 11.9137 9.90328ZM9.6975 8.86172C10.1543 9.3548 10.4117 9.99993 10.4198 10.672C10.4117 9.99993 10.1543 9.3548 9.6975 8.86172C9.31255 8.45068 8.80758 8.17178 8.25468 8.06484C8.80758 8.17178 9.31255 8.45068 9.6975 8.86172ZM8.90625 13.5C8.75781 13.5884 8.60075 13.6614 8.4375 13.718C8.60075 13.6614 8.75781 13.5884 8.90625 13.5ZM4.94484 10.5211C4.96765 10.1866 5.0502 9.85895 5.18859 9.55359C5.0502 9.85895 4.96765 10.1866 4.94484 10.5211ZM9.12562 13.3538C9.05484 13.4063 8.98171 13.4531 8.90625 13.5C8.98171 13.4531 9.05484 13.4063 9.12562 13.3538ZM10.133 12.0886C10.0576 12.2588 9.96769 12.4222 9.86437 12.577C9.96769 12.4222 10.0576 12.2588 10.133 12.0886ZM5.18859 9.55359C5.22763 9.46855 5.27113 9.38562 5.3189 9.30516C5.27113 9.38562 5.22763 9.46855 5.18859 9.55359ZM9.12562 13.3538C9.41558 13.1402 9.66566 12.8773 9.86437 12.577C9.66566 12.8773 9.41558 13.1402 9.12562 13.3538Z" fill="#333333"/>
</svg>
