<svg width="24" height="24" viewBox="0 0 24 24" fill="none" xmlns="http://www.w3.org/2000/svg">
<path fill-rule="evenodd" clip-rule="evenodd" d="M2.25 12C2.25 6.61704 6.61704 2.25 12 2.25C17.383 2.25 21.75 6.61704 21.75 12C21.75 17.383 17.383 21.75 12 21.75C6.61704 21.75 2.25 17.383 2.25 12ZM12 3.75C7.44546 3.75 3.75 7.44546 3.75 12C3.75 16.5545 7.44546 20.25 12 20.25C16.5545 20.25 20.25 16.5545 20.25 12C20.25 7.44546 16.5545 3.75 12 3.75Z" fill="#333333"/>
<path d="M15 8.25C14.8011 8.25 14.6103 8.32902 14.4697 8.46967C14.329 8.61032 14.25 8.80109 14.25 9V11.4844L9.01499 8.32312C8.9381 8.27705 8.85033 8.25227 8.76069 8.25131C8.67105 8.25036 8.58277 8.27326 8.50491 8.31768C8.42705 8.3621 8.3624 8.42643 8.3176 8.50408C8.27281 8.58173 8.24947 8.66989 8.24999 8.75953V15.2405C8.24947 15.3301 8.27281 15.4183 8.3176 15.4959C8.3624 15.5736 8.42705 15.6379 8.50491 15.6823C8.58277 15.7267 8.67105 15.7496 8.76069 15.7487C8.85033 15.7477 8.9381 15.7229 9.01499 15.6769L14.25 12.5156V15C14.25 15.1989 14.329 15.3897 14.4697 15.5303C14.6103 15.671 14.8011 15.75 15 15.75C15.1989 15.75 15.3897 15.671 15.5303 15.5303C15.671 15.3897 15.75 15.1989 15.75 15V9C15.75 8.80109 15.671 8.61032 15.5303 8.46967C15.3897 8.32902 15.1989 8.25 15 8.25Z" fill="#333333"/>
</svg>
