<svg width="24" height="24" viewBox="0 0 24 24" fill="none" xmlns="http://www.w3.org/2000/svg">
<path d="M6.23439 20.625C5.94659 20.6245 5.66388 20.549 5.41408 20.4061C4.85158 20.0873 4.50189 19.4686 4.50189 18.7969V5.20313C4.50189 4.52953 4.85158 3.91266 5.41408 3.59391C5.66983 3.44693 5.96037 3.37134 6.25532 3.37505C6.55028 3.37876 6.83883 3.46163 7.0908 3.615L18.7088 10.5694C18.9509 10.7212 19.1505 10.932 19.2889 11.1821C19.4272 11.4322 19.4998 11.7133 19.4998 11.9991C19.4998 12.2849 19.4272 12.566 19.2889 12.816C19.1505 13.0661 18.9509 13.2769 18.7088 13.4288L7.08892 20.385C6.83106 20.5409 6.53571 20.6238 6.23439 20.625Z" fill="#333333"/>
</svg>
