<svg width="24" height="24" viewBox="0 0 24 24" fill="none" xmlns="http://www.w3.org/2000/svg">
<path d="M21.8906 2.11876C21.6963 1.92218 21.4648 1.76624 21.2096 1.66001C20.9544 1.55378 20.6806 1.49939 20.4042 1.50001H14.6419C14.2639 1.50071 13.9014 1.65045 13.6331 1.91672L2.1136 13.4339C1.72053 13.8278 1.49977 14.3615 1.49977 14.918C1.49977 15.4744 1.72053 16.0082 2.1136 16.402L7.59797 21.8864C7.99195 22.2797 8.52586 22.5005 9.0825 22.5005C9.63915 22.5005 10.1731 22.2797 10.567 21.8864L22.0819 10.3739C22.3487 10.1061 22.499 9.74369 22.5 9.36563V3.60001C22.5017 3.32503 22.4487 3.05247 22.3441 2.79817C22.2395 2.54388 22.0853 2.31292 21.8906 2.11876ZM18 7.5C17.7033 7.5 17.4133 7.41203 17.1666 7.24721C16.92 7.08239 16.7277 6.84812 16.6142 6.57403C16.5007 6.29994 16.4709 5.99834 16.5288 5.70737C16.5867 5.4164 16.7296 5.14912 16.9393 4.93934C17.1491 4.72957 17.4164 4.5867 17.7074 4.52883C17.9983 4.47095 18.2999 4.50065 18.574 4.61419C18.8481 4.72772 19.0824 4.91998 19.2472 5.16665C19.412 5.41332 19.5 5.70333 19.5 6C19.5 6.39783 19.342 6.77936 19.0607 7.06067C18.7794 7.34197 18.3978 7.5 18 7.5Z" fill="#333333"/>
</svg>
