<svg width="24" height="24" viewBox="0 0 24 24" fill="none" xmlns="http://www.w3.org/2000/svg">
<path fill-rule="evenodd" clip-rule="evenodd" d="M11.25 2.25C12.5688 2.24848 13.874 2.51525 15.0865 3.03407C16.2992 3.55302 17.3936 4.31329 18.3032 5.26862L18.3163 5.28243L19.3188 6.44861C19.5888 6.76272 19.553 7.23625 19.2389 7.50625C18.9248 7.77626 18.4513 7.74051 18.1812 7.42639L17.2039 6.28945C16.4372 5.48783 15.5163 4.84956 14.4963 4.41311C13.4707 3.97422 12.3665 3.74861 11.2509 3.75C6.6964 3.75 3 7.44546 3 12C3 16.5545 6.69544 20.25 11.2499 20.25M11.25 2.25C5.86704 2.25 1.5 6.61703 1.5 12C1.5 17.383 5.86704 21.75 11.25 21.75C13.2665 21.7499 15.2334 21.1248 16.8799 19.9608C18.5265 18.7968 19.7719 17.1511 20.4447 15.2502C20.5829 14.8598 20.3784 14.4312 19.9879 14.293C19.5974 14.1548 19.1688 14.3593 19.0306 14.7498C18.4613 16.3584 17.4074 17.751 16.0141 18.736C14.6207 19.7209 12.9563 20.2499 11.2499 20.25" fill="#333333"/>
<path d="M21.75 4.56656V9.75C21.75 9.94891 21.671 10.1397 21.5303 10.2803C21.3897 10.421 21.1989 10.5 21 10.5H15.8166C15.1481 10.5 14.8134 9.69234 15.2859 9.21984L20.4698 4.03594C20.9423 3.5625 21.75 3.89813 21.75 4.56656Z" fill="#333333"/>
</svg>
