<svg width="24" height="24" viewBox="0 0 24 24" fill="none" xmlns="http://www.w3.org/2000/svg">
<path d="M12.3722 2.17114L15.2274 5.50313C15.5007 5.82117 15.2748 6.31243 14.8561 6.31243H9.14479C8.72605 6.31243 8.50013 5.82117 8.77262 5.50313L11.6278 2.17114C11.6739 2.11747 11.731 2.07438 11.7952 2.04484C11.8594 2.0153 11.9293 2 12 2C12.0707 2 12.1406 2.0153 12.2048 2.04484C12.2691 2.07438 12.3262 2.11747 12.3722 2.17114Z" fill="#333333"/>
<path d="M4.80986 8.73174C4.80986 8.23536 5.21225 7.83297 5.70863 7.83297H18.2914C18.7878 7.83297 19.1902 8.23536 19.1902 8.73174C19.1902 9.22811 18.7878 9.63051 18.2914 9.63051H5.70863C5.21225 9.63051 4.80986 9.22811 4.80986 8.73174Z" fill="#333333"/>
<path d="M4.80986 12C4.80986 11.5036 5.21225 11.1012 5.70863 11.1012H18.2914C18.7878 11.1012 19.1902 11.5036 19.1902 12C19.1902 12.4964 18.7878 12.8988 18.2914 12.8988H5.70863C5.21225 12.8988 4.80986 12.4964 4.80986 12Z" fill="#333333"/>
<path d="M4.80986 15.2682C4.80986 14.7719 5.21225 14.3695 5.70863 14.3695H18.2914C18.7878 14.3695 19.1902 14.7719 19.1902 15.2682C19.1902 15.7646 18.7878 16.167 18.2914 16.167H5.70863C5.21225 16.167 4.80986 15.7646 4.80986 15.2682Z" fill="#333333"/>
<path d="M8.77261 18.4968L11.6278 21.8288C11.6739 21.8825 11.731 21.9256 11.7952 21.9551C11.8594 21.9847 11.9293 22 12 22C12.0707 22 12.1406 21.9847 12.2048 21.9551C12.2691 21.9256 12.3262 21.8825 12.3722 21.8288L15.2274 18.4968C15.4999 18.1788 15.274 17.6875 14.8552 17.6875H9.14397C8.72522 17.6875 8.4993 18.1788 8.77261 18.4968Z" fill="#333333"/>
</svg>
