<svg width="24" height="24" viewBox="0 0 24 24" fill="none" xmlns="http://www.w3.org/2000/svg">
<path d="M15.4148 7.34953C15.1254 7.34969 14.8449 7.4502 14.6213 7.63393C14.3977 7.81767 14.2446 8.07326 14.1883 8.35717C14.132 8.64108 14.1759 8.93573 14.3124 9.19092C14.449 9.44612 14.6698 9.64607 14.9373 9.75671C15.2047 9.86734 15.5023 9.88182 15.7792 9.79768C16.0561 9.71354 16.2953 9.53598 16.456 9.29525C16.6167 9.05452 16.689 8.76552 16.6605 8.47749C16.632 8.18945 16.5046 7.92021 16.2998 7.71562C16.1837 7.59928 16.0457 7.50704 15.8939 7.44422C15.742 7.38139 15.5792 7.34921 15.4148 7.34953Z" fill="#333333"/>
<path d="M22.38 2.34656C22.3798 2.34517 22.3798 2.34374 22.38 2.34234C22.3404 2.16859 22.253 2.00936 22.1277 1.88264C22.0024 1.75592 21.8441 1.66673 21.6708 1.62516C20.2739 1.28438 18.0764 1.64766 15.6413 2.62266C13.1869 3.60703 10.8872 5.06016 9.33285 6.61734C8.83464 7.11291 8.37178 7.64281 7.9477 8.20313C6.90098 8.15625 5.97895 8.30531 5.20223 8.64422C2.49567 9.83531 1.7227 12.8836 1.51692 14.1352C1.48714 14.313 1.4988 14.4953 1.55099 14.6679C1.60317 14.8405 1.69448 14.9987 1.81781 15.1302C1.94113 15.2618 2.09315 15.3631 2.26202 15.4262C2.43089 15.4894 2.61207 15.5128 2.79145 15.4945H2.79754L5.81254 15.1655C5.81629 15.2039 5.82051 15.2391 5.82379 15.2714C5.86251 15.6388 6.02636 15.9817 6.28785 16.2427L7.75926 17.715C8.01982 17.9769 8.36266 18.1409 8.73004 18.1795L8.83082 18.1903L8.5027 21.2016V21.2077C8.48593 21.3698 8.50318 21.5337 8.55336 21.6889C8.60354 21.844 8.68554 21.9869 8.79412 22.1086C8.90269 22.2302 9.03545 22.3278 9.18391 22.3952C9.33237 22.4626 9.49326 22.4983 9.65629 22.5C9.72146 22.5001 9.78653 22.4947 9.85082 22.4841C11.1094 22.2816 14.1563 21.518 15.3441 18.7969C15.6802 18.0253 15.8288 17.107 15.7871 16.0622C16.3499 15.639 16.8817 15.1761 17.3785 14.677C18.9455 13.118 20.4033 10.837 21.3774 8.41828C22.3472 6.01078 22.7124 3.79688 22.38 2.34656ZM17.3616 10.5441C16.9764 10.9296 16.4856 11.1923 15.9511 11.2988C15.4167 11.4053 14.8626 11.351 14.359 11.1425C13.8555 10.9341 13.4251 10.581 13.1222 10.1279C12.8194 9.67482 12.6578 9.14209 12.6578 8.59711C12.6578 8.05213 12.8194 7.5194 13.1222 7.0663C13.4251 6.61321 13.8555 6.26011 14.359 6.05169C14.8626 5.84327 15.4167 5.78888 15.9511 5.89541C16.4856 6.00194 16.9764 6.2646 17.3616 6.65016C17.6198 6.90444 17.8248 7.20752 17.9647 7.54177C18.1046 7.87601 18.1767 8.23475 18.1767 8.59711C18.1767 8.95947 18.1046 9.31821 17.9647 9.65245C17.8248 9.9867 17.6198 10.2898 17.3616 10.5441Z" fill="#333333"/>
<path d="M7.59044 18.1144C7.40906 18.0919 7.2257 18.1364 7.07482 18.2395C6.77528 18.4444 6.47435 18.6469 6.1706 18.8442C5.55607 19.2436 4.82107 18.5423 5.18622 17.9067L5.75575 16.9223C5.83718 16.8032 5.88252 16.6632 5.88633 16.5189C5.89015 16.3747 5.85228 16.2324 5.77727 16.1092C5.70227 15.9859 5.5933 15.8869 5.46344 15.8241C5.33357 15.7612 5.18833 15.7371 5.04513 15.7547C4.41302 15.8346 3.82546 16.1226 3.37497 16.5731C3.20341 16.7452 2.68169 17.2673 2.40091 19.2572C2.32099 19.8287 2.27061 20.404 2.24997 20.9808C2.24741 21.0809 2.26491 21.1805 2.30145 21.2737C2.33799 21.3669 2.39283 21.4519 2.46273 21.5236C2.53263 21.5953 2.61618 21.6522 2.70845 21.6911C2.80072 21.73 2.89984 21.75 2.99997 21.75H3.01872C3.59591 21.7296 4.17167 21.6795 4.74372 21.6C6.7345 21.3188 7.25669 20.7966 7.42825 20.625C7.88092 20.1743 8.16815 19.584 8.24341 18.9497C8.26751 18.7523 8.21227 18.5535 8.08983 18.3969C7.96739 18.2402 7.78777 18.1386 7.59044 18.1144Z" fill="#333333"/>
</svg>
