<svg width="24" height="24" viewBox="0 0 24 24" fill="none" xmlns="http://www.w3.org/2000/svg">
<path fill-rule="evenodd" clip-rule="evenodd" d="M5.8125 4.21875C5.38981 4.21875 4.98444 4.38666 4.68555 4.68555C4.38666 4.98444 4.21875 5.38981 4.21875 5.8125V7.96875C4.21875 8.53829 3.75704 9 3.1875 9C2.61796 9 2.15625 8.53829 2.15625 7.96875V5.8125C2.15625 4.8428 2.54146 3.91282 3.22714 3.22714C3.91282 2.54146 4.8428 2.15625 5.8125 2.15625H7.96875C8.53829 2.15625 9 2.61796 9 3.1875C9 3.75704 8.53829 4.21875 7.96875 4.21875H5.8125ZM15 3.1875C15 2.61796 15.4617 2.15625 16.0312 2.15625H18.1875C19.1572 2.15625 20.0872 2.54146 20.7729 3.22714C21.4585 3.91282 21.8438 4.8428 21.8438 5.8125V7.96875C21.8438 8.53829 21.382 9 20.8125 9C20.243 9 19.7812 8.53829 19.7812 7.96875V5.8125C19.7812 5.38981 19.6133 4.98443 19.3145 4.68555C19.0156 4.38666 18.6102 4.21875 18.1875 4.21875H16.0312C15.4617 4.21875 15 3.75704 15 3.1875ZM3.1875 15C3.75704 15 4.21875 15.4617 4.21875 16.0312V18.1875C4.21875 18.6102 4.38666 19.0156 4.68555 19.3145C4.98443 19.6133 5.38981 19.7812 5.8125 19.7812H7.96875C8.53829 19.7812 9 20.243 9 20.8125C9 21.382 8.53829 21.8438 7.96875 21.8438H5.8125C4.8428 21.8438 3.91282 21.4585 3.22714 20.7729C2.54146 20.0872 2.15625 19.1572 2.15625 18.1875V16.0312C2.15625 15.4617 2.61796 15 3.1875 15ZM20.8125 15C21.382 15 21.8438 15.4617 21.8438 16.0312V18.1875C21.8438 19.1572 21.4585 20.0872 20.7729 20.7729C20.0872 21.4585 19.1572 21.8438 18.1875 21.8438H16.0312C15.4617 21.8438 15 21.382 15 20.8125C15 20.243 15.4617 19.7812 16.0312 19.7812H18.1875C18.6102 19.7812 19.0156 19.6133 19.3145 19.3145C19.6133 19.0156 19.7812 18.6102 19.7812 18.1875V16.0312C19.7812 15.4617 20.243 15 20.8125 15Z" fill="#333333"/>
<path d="M16.1562 14.1875H14.4062C14.2854 14.1875 14.1875 14.2854 14.1875 14.4062V16.1562C14.1875 16.2771 14.2854 16.375 14.4062 16.375H16.1562C16.2771 16.375 16.375 16.2771 16.375 16.1562V14.4062C16.375 14.2854 16.2771 14.1875 16.1562 14.1875Z" fill="#333333"/>
<path d="M13.9688 12.4375H12.6562C12.5354 12.4375 12.4375 12.5354 12.4375 12.6562V13.9688C12.4375 14.0896 12.5354 14.1875 12.6562 14.1875H13.9688C14.0896 14.1875 14.1875 14.0896 14.1875 13.9688V12.6562C14.1875 12.5354 14.0896 12.4375 13.9688 12.4375Z" fill="#333333"/>
<path d="M17.9062 16.375H16.5938C16.4729 16.375 16.375 16.4729 16.375 16.5938V17.9062C16.375 18.0271 16.4729 18.125 16.5938 18.125H17.9062C18.0271 18.125 18.125 18.0271 18.125 17.9062V16.5938C18.125 16.4729 18.0271 16.375 17.9062 16.375Z" fill="#333333"/>
<path d="M17.9062 12.4375H17.0312C16.9104 12.4375 16.8125 12.5354 16.8125 12.6562V13.5312C16.8125 13.6521 16.9104 13.75 17.0312 13.75H17.9062C18.0271 13.75 18.125 13.6521 18.125 13.5312V12.6562C18.125 12.5354 18.0271 12.4375 17.9062 12.4375Z" fill="#333333"/>
<path d="M13.5312 16.8125H12.6562C12.5354 16.8125 12.4375 16.9104 12.4375 17.0312V17.9062C12.4375 18.0271 12.5354 18.125 12.6562 18.125H13.5312C13.6521 18.125 13.75 18.0271 13.75 17.9062V17.0312C13.75 16.9104 13.6521 16.8125 13.5312 16.8125Z" fill="#333333"/>
<path d="M17.25 5.875H13.3125C13.0804 5.875 12.8579 5.96719 12.6938 6.13128C12.5297 6.29538 12.4375 6.51794 12.4375 6.75V10.6875C12.4375 10.9196 12.5297 11.1421 12.6938 11.3062C12.8579 11.4703 13.0804 11.5625 13.3125 11.5625H17.25C17.4821 11.5625 17.7046 11.4703 17.8687 11.3062C18.0328 11.1421 18.125 10.9196 18.125 10.6875V6.75C18.125 6.51794 18.0328 6.29538 17.8687 6.13128C17.7046 5.96719 17.4821 5.875 17.25 5.875ZM16.375 9.59375C16.375 9.65177 16.352 9.70741 16.3109 9.74843C16.2699 9.78945 16.2143 9.8125 16.1562 9.8125H14.4062C14.3482 9.8125 14.2926 9.78945 14.2516 9.74843C14.2105 9.70741 14.1875 9.65177 14.1875 9.59375V7.84375C14.1875 7.78573 14.2105 7.73009 14.2516 7.68907C14.2926 7.64805 14.3482 7.625 14.4062 7.625H16.1562C16.2143 7.625 16.2699 7.64805 16.3109 7.68907C16.352 7.73009 16.375 7.78573 16.375 7.84375V9.59375ZM10.6875 5.875H6.75C6.51794 5.875 6.29538 5.96719 6.13128 6.13128C5.96719 6.29538 5.875 6.51794 5.875 6.75V10.6875C5.875 10.9196 5.96719 11.1421 6.13128 11.3062C6.29538 11.4703 6.51794 11.5625 6.75 11.5625H10.6875C10.9196 11.5625 11.1421 11.4703 11.3062 11.3062C11.4703 11.1421 11.5625 10.9196 11.5625 10.6875V6.75C11.5625 6.51794 11.4703 6.29538 11.3062 6.13128C11.1421 5.96719 10.9196 5.875 10.6875 5.875ZM9.8125 9.59375C9.8125 9.65177 9.78945 9.70741 9.74843 9.74843C9.70741 9.78945 9.65177 9.8125 9.59375 9.8125H7.84375C7.78573 9.8125 7.73009 9.78945 7.68907 9.74843C7.64805 9.70741 7.625 9.65177 7.625 9.59375V7.84375C7.625 7.78573 7.64805 7.73009 7.68907 7.68907C7.73009 7.64805 7.78573 7.625 7.84375 7.625H9.59375C9.65177 7.625 9.70741 7.64805 9.74843 7.68907C9.78945 7.73009 9.8125 7.78573 9.8125 7.84375V9.59375ZM10.6875 12.4375H6.75C6.51794 12.4375 6.29538 12.5297 6.13128 12.6938C5.96719 12.8579 5.875 13.0804 5.875 13.3125V17.25C5.875 17.4821 5.96719 17.7046 6.13128 17.8687C6.29538 18.0328 6.51794 18.125 6.75 18.125H10.6875C10.9196 18.125 11.1421 18.0328 11.3062 17.8687C11.4703 17.7046 11.5625 17.4821 11.5625 17.25V13.3125C11.5625 13.0804 11.4703 12.8579 11.3062 12.6938C11.1421 12.5297 10.9196 12.4375 10.6875 12.4375ZM9.8125 16.1562C9.8125 16.2143 9.78945 16.2699 9.74843 16.3109C9.70741 16.352 9.65177 16.375 9.59375 16.375H7.84375C7.78573 16.375 7.73009 16.352 7.68907 16.3109C7.64805 16.2699 7.625 16.2143 7.625 16.1562V14.4062C7.625 14.3482 7.64805 14.2926 7.68907 14.2516C7.73009 14.2105 7.78573 14.1875 7.84375 14.1875H9.59375C9.65177 14.1875 9.70741 14.2105 9.74843 14.2516C9.78945 14.2926 9.8125 14.3482 9.8125 14.4062V16.1562Z" fill="#333333"/>
</svg>
