<svg width="24" height="24" viewBox="0 0 24 24" fill="none" xmlns="http://www.w3.org/2000/svg">
<path d="M21.193 10.7936L21.1864 10.7907L3.38971 3.4092C3.24002 3.34655 3.07714 3.32198 2.91563 3.33769C2.75412 3.35339 2.59902 3.40889 2.46421 3.49921C2.32178 3.59254 2.20478 3.71982 2.12375 3.86959C2.04272 4.01936 2.00019 4.18692 2 4.35721V9.07807C2.00008 9.31086 2.08137 9.53633 2.22985 9.71562C2.37833 9.89491 2.58471 10.0168 2.81341 10.0602L12.5197 11.855C12.5579 11.8622 12.5923 11.8825 12.6171 11.9124C12.6418 11.9423 12.6554 11.9799 12.6554 12.0188C12.6554 12.0576 12.6418 12.0952 12.6171 12.1251C12.5923 12.155 12.5579 12.1753 12.5197 12.1825L2.81383 13.9773C2.58519 14.0206 2.37882 14.1423 2.23027 14.3215C2.08173 14.5006 2.00029 14.7259 2 14.9586V19.6803C1.99989 19.8429 2.04015 20.003 2.11717 20.1462C2.19419 20.2894 2.30556 20.4113 2.44129 20.5008C2.60456 20.6093 2.79616 20.6672 2.99218 20.6675C3.12845 20.6674 3.26332 20.64 3.38888 20.5871L21.1851 13.2476L21.193 13.2439C21.4326 13.1409 21.6367 12.97 21.7801 12.7523C21.9236 12.5345 22 12.2795 22 12.0188C22 11.758 21.9236 11.503 21.7801 11.2853C21.6367 11.0675 21.4326 10.8966 21.193 10.7936Z" fill="#333333"/>
</svg>
