<svg width="24" height="24" viewBox="0 0 24 24" fill="none" xmlns="http://www.w3.org/2000/svg">
<path d="M22.4564 5.22001C22.4458 5.05247 22.3793 4.89333 22.2676 4.76806C22.1558 4.64279 22.0053 4.55864 21.84 4.52907C17.7853 3.80157 16.0927 3.27563 12.3089 1.56657C12.2119 1.52269 12.1065 1.5 12 1.5C11.8935 1.5 11.7882 1.52269 11.6911 1.56657C7.90736 3.27563 6.21471 3.80157 2.16002 4.52907C1.99477 4.55864 1.84422 4.64279 1.73246 4.76806C1.62071 4.89333 1.55421 5.05247 1.54361 5.22001C1.36314 8.08454 1.74799 10.7536 2.68877 13.1531C3.45917 15.1104 4.59931 16.901 6.0469 18.427C8.5533 21.0863 11.2144 22.2413 11.7221 22.4456C11.9025 22.5186 12.1042 22.5186 12.2846 22.4456C12.7922 22.2413 15.4533 21.0863 17.9597 18.427C19.4049 16.9004 20.5428 15.1099 21.3113 13.1531C22.2521 10.7536 22.6369 8.08454 22.4564 5.22001ZM16.3158 8.74079L11.1221 14.7408C11.0553 14.8182 10.9734 14.8811 10.8814 14.9256C10.7894 14.9702 10.6893 14.9955 10.5872 15H10.5563C10.36 15.0001 10.1715 14.9231 10.0313 14.7858L7.72502 12.5264C7.65466 12.4575 7.59857 12.3753 7.55995 12.2847C7.52133 12.1941 7.50094 12.0968 7.49993 11.9983C7.49791 11.7993 7.575 11.6077 7.71424 11.4656C7.85348 11.3235 8.04346 11.2426 8.2424 11.2405C8.44133 11.2385 8.63292 11.3156 8.77502 11.4549L10.5094 13.1559L15.1828 7.75923C15.2473 7.68474 15.3258 7.62368 15.4138 7.57953C15.5019 7.53538 15.5978 7.50901 15.696 7.50191C15.7942 7.49481 15.8929 7.50714 15.9864 7.53818C16.0799 7.56922 16.1663 7.61837 16.2408 7.68282C16.3153 7.74727 16.3763 7.82576 16.4205 7.91381C16.4646 8.00186 16.491 8.09774 16.4981 8.19598C16.5052 8.29422 16.4929 8.3929 16.4618 8.48638C16.4308 8.57985 16.3817 8.6663 16.3172 8.74079H16.3158Z" fill="#333333"/>
</svg>
