<svg width="24" height="24" viewBox="0 0 24 24" fill="none" xmlns="http://www.w3.org/2000/svg">
<path d="M18.4687 22.5C18.3108 22.5006 18.1568 22.4514 18.0285 22.3594L11.9999 17.9887L5.97133 22.3594C5.84253 22.4528 5.68736 22.5028 5.52825 22.5022C5.36915 22.5017 5.21435 22.4505 5.08623 22.3561C4.95812 22.2618 4.86333 22.1291 4.81557 21.9774C4.76781 21.8256 4.76955 21.6626 4.82055 21.5119L7.1718 14.5476L1.07805 10.3687C0.946051 10.2783 0.84643 10.1481 0.793736 9.99699C0.741042 9.84592 0.738039 9.68197 0.785164 9.52907C0.832289 9.37618 0.927074 9.24236 1.05567 9.14717C1.18426 9.05198 1.33993 9.0004 1.49992 8.99998H9.01773L11.2865 2.01795C11.3354 1.86721 11.4307 1.73583 11.5589 1.64264C11.6871 1.54946 11.8415 1.49927 11.9999 1.49927C12.1584 1.49927 12.3128 1.54946 12.441 1.64264C12.5691 1.73583 12.6645 1.86721 12.7134 2.01795L14.9821 9.00233H22.4999C22.6601 9.00225 22.8161 9.05346 22.9451 9.14847C23.0741 9.24348 23.1692 9.37729 23.2167 9.5303C23.2641 9.68331 23.2613 9.84749 23.2086 9.99878C23.156 10.1501 23.0563 10.2805 22.9241 10.3711L16.828 14.5476L19.1779 21.51C19.216 21.6227 19.2267 21.7429 19.2091 21.8605C19.1916 21.9782 19.1463 22.09 19.077 22.1868C19.0077 22.2835 18.9164 22.3623 18.8106 22.4168C18.7049 22.4713 18.5876 22.4998 18.4687 22.5Z" fill="#333333"/>
</svg>
