<svg width="24" height="24" viewBox="0 0 24 24" fill="none" xmlns="http://www.w3.org/2000/svg">
<path d="M13.6352 18.7879L8.26859 4.47687C8.19828 4.28932 8.0724 4.12769 7.90777 4.0136C7.74314 3.8995 7.54762 3.83836 7.34732 3.83836C7.14702 3.83836 6.95149 3.8995 6.78686 4.0136C6.62224 4.12769 6.49636 4.28932 6.42604 4.47687L1.05941 18.7879C0.970649 19.0316 0.981705 19.3005 1.09017 19.5361C1.19864 19.7717 1.39575 19.9549 1.63861 20.0459C1.88148 20.1369 2.15046 20.1284 2.38705 20.0221C2.62364 19.9158 2.80869 19.7204 2.90195 19.4784L4.5191 15.1663C4.52547 15.1493 4.53689 15.1346 4.55183 15.1242C4.56677 15.1138 4.58453 15.1082 4.60273 15.1082H10.0919C10.1101 15.1082 10.1279 15.1138 10.1428 15.1242C10.1577 15.1346 10.1692 15.1493 10.1755 15.1663L11.7927 19.4784C11.8859 19.7204 12.071 19.9158 12.3076 20.0221C12.5442 20.1284 12.8132 20.1369 13.056 20.0459C13.2989 19.9549 13.496 19.7717 13.6045 19.5361C13.7129 19.3005 13.724 19.0316 13.6352 18.7879ZM5.3241 13.0188L7.26369 7.84667C7.27012 7.8297 7.28157 7.81509 7.29651 7.80478C7.31145 7.79447 7.32917 7.78895 7.34732 7.78895C7.36547 7.78895 7.38319 7.79447 7.39813 7.80478C7.41306 7.81509 7.42451 7.8297 7.43095 7.84667L9.37054 13.0197C9.37559 13.0332 9.37729 13.0477 9.37551 13.062C9.37372 13.0764 9.3685 13.09 9.36028 13.1019C9.35207 13.1138 9.3411 13.1235 9.32833 13.1302C9.31555 13.1369 9.30134 13.1404 9.28691 13.1404H5.40773C5.3933 13.1404 5.37909 13.1369 5.36631 13.1302C5.35353 13.1235 5.34257 13.1138 5.33435 13.1019C5.32614 13.09 5.32091 13.0764 5.31913 13.062C5.31734 13.0477 5.31905 13.0332 5.3241 13.0197V13.0188ZM18.4728 8.13155C16.607 8.11813 14.9362 9.19906 14.2242 10.8775C14.1222 11.1177 14.1198 11.3885 14.2175 11.6305C14.3152 11.8725 14.505 12.0657 14.7452 12.1677C14.9854 12.2697 15.2563 12.2721 15.4982 12.1744C15.7402 12.0767 15.9334 11.8869 16.0354 11.6467C16.4326 10.7125 17.3668 10.1065 18.42 10.0993C19.8654 10.0895 21.0322 11.2844 21.0322 12.7312C21.0322 12.7486 21.0255 12.7653 21.0134 12.7779C21.0013 12.7904 20.9848 12.7977 20.9674 12.7983C19.9871 12.8256 18.8243 12.8909 17.7868 13.013C15.3382 13.301 13.8767 14.6359 13.8767 16.584C13.8767 17.6211 14.2685 18.5518 14.98 19.2083C15.6477 19.8232 16.56 20.1618 17.5439 20.1618C18.9303 20.1618 20.1239 19.804 21.0296 19.1233H21.0322C21.0317 19.2525 21.0566 19.3806 21.1055 19.5002C21.1544 19.6197 21.2264 19.7285 21.3174 19.8203C21.4084 19.912 21.5165 19.985 21.6357 20.0349C21.7548 20.0849 21.8827 20.1109 22.0119 20.1114C22.1411 20.112 22.2691 20.0871 22.3887 20.0382C22.5083 19.9892 22.6171 19.9172 22.7088 19.8263C22.8006 19.7353 22.8735 19.6272 22.9235 19.508C22.9734 19.3888 22.9994 19.261 23 19.1318V12.7366C23 10.2241 20.9875 8.14989 18.4728 8.13155ZM17.5439 18.194C16.7599 18.194 15.8445 17.7723 15.8445 16.584C15.8445 16.1068 16.0158 15.7727 16.4004 15.5004C16.7747 15.2352 17.3485 15.046 18.0166 14.9673C18.9612 14.8559 20.0211 14.7947 20.9298 14.7674C20.942 14.7674 20.954 14.7698 20.9651 14.7746C20.9763 14.7794 20.9863 14.7864 20.9947 14.7952C21.0031 14.8039 21.0096 14.8143 21.0138 14.8257C21.018 14.8371 21.0199 14.8492 21.0193 14.8613C20.8981 17.1028 19.7559 18.194 17.5439 18.194Z" fill="#333333"/>
</svg>
