<svg width="24" height="24" viewBox="0 0 24 24" fill="none" xmlns="http://www.w3.org/2000/svg">
<path d="M12.9171 17.3274C12.9171 17.8353 12.5054 18.247 11.9975 18.247C11.4896 18.247 11.0779 17.8353 11.0779 17.3274V5.13986L7.12993 9.08778C6.77078 9.44693 6.1885 9.44693 5.82935 9.08778C5.47021 8.72864 5.47021 8.14636 5.82935 7.78722L11.3472 2.26936C11.7064 1.91022 12.2886 1.91022 12.6478 2.26936L18.1656 7.78722C18.5248 8.14636 18.5248 8.72864 18.1656 9.08778C17.8065 9.44693 17.2242 9.44693 16.8651 9.08778L12.9171 5.13986V17.3274Z" fill="#333333"/>
<path fill-rule="evenodd" clip-rule="evenodd" d="M2 21.125C2 20.6418 2.39175 20.25 2.875 20.25H21.125C21.6082 20.25 22 20.6418 22 21.125C22 21.6082 21.6082 22 21.125 22H2.875C2.39175 22 2 21.6082 2 21.125Z" fill="#333333"/>
</svg>
