<svg width="24" height="24" viewBox="0 0 24 24" fill="none" xmlns="http://www.w3.org/2000/svg">
<path fill-rule="evenodd" clip-rule="evenodd" d="M14.2439 3.37911L12 1.5L9.75603 3.37911L6.89999 2.90673L5.86937 5.68907L3.16653 6.75L3.62541 9.69004L1.79999 12L3.62541 14.31L3.16653 17.25L5.86937 18.3109L6.89999 21.0933L9.75603 20.6209L12 22.5L14.2439 20.6209L17.1 21.0933L18.1306 18.3109L20.8334 17.25L20.3746 14.31L22.2 12L20.3746 9.69004L20.8334 6.75L18.1306 5.68907L17.1 2.90673L14.2439 3.37911ZM11.0953 15.7922C10.9453 16.0172 10.7297 16.125 10.4531 16.125C10.1906 16.125 9.99374 16.0266 9.81561 15.8063L7.38749 12.8156C7.25155 12.6516 7.1953 12.4969 7.1953 12.3328C7.1953 11.9578 7.47186 11.6859 7.85624 11.6859C8.08593 11.6859 8.2453 11.7703 8.39999 11.9625L10.4344 14.5406L14.4047 8.25C14.564 7.99688 14.7234 7.90313 14.9859 7.90313C15.3656 7.90313 15.6375 8.17031 15.6375 8.54063C15.6375 8.68594 15.5953 8.83594 15.4828 9.00469L11.0953 15.7922Z" fill="#333333"/>
</svg>
