<svg width="24" height="24" viewBox="0 0 24 24" fill="none" xmlns="http://www.w3.org/2000/svg">
<path fill-rule="evenodd" clip-rule="evenodd" d="M21.1406 6.11155C21.369 6.01002 21.6191 5.96716 21.8683 5.98686C22.1174 6.00657 22.3577 6.08822 22.5673 6.2244C22.7769 6.36058 22.9491 6.54696 23.0683 6.76662C23.1875 6.98627 23.25 7.23224 23.25 7.48218V16.5178C23.25 16.7678 23.1875 17.0137 23.0683 17.2334C22.9491 17.453 22.7769 17.6394 22.5673 17.7756C22.3577 17.9118 22.1174 17.9934 21.8683 18.0131C21.6191 18.0328 21.369 17.99 21.1406 17.8884C21.096 17.8686 21.0535 17.8445 21.0136 17.8164L17.1366 15.0874C16.94 14.9489 16.7795 14.7653 16.6687 14.5519C16.5579 14.3385 16.5001 14.1015 16.5 13.8611V10.1391C16.5001 9.89861 16.5579 9.66153 16.6687 9.44812C16.7795 9.23471 16.9399 9.05106 17.1366 8.91265L21.0136 6.18358C21.0535 6.15549 21.096 6.13137 21.1406 6.11155ZM18 13.8608L21.75 16.5004V7.49958L18 10.1392L18 13.8608Z" fill="#333333"/>
<path fill-rule="evenodd" clip-rule="evenodd" d="M3.21967 3.21967C3.51256 2.92678 3.98744 2.92678 4.28033 3.21967L20.0303 18.9697C20.3232 19.2626 20.3232 19.7374 20.0303 20.0303C19.7374 20.3232 19.2626 20.3232 18.9697 20.0303L3.21967 4.28033C2.92678 3.98744 2.92678 3.51256 3.21967 3.21967ZM8.02409 5.25H12.5873C13.4253 5.25259 14.2283 5.58664 14.8208 6.17919C15.4134 6.77175 15.7474 7.57468 15.75 8.41268L15.75 8.415L15.75 13.5278L8.02409 5.25ZM11.4759 6.75L14.25 9.72223V8.4162C14.2483 7.97483 14.0723 7.55198 13.7601 7.23985C13.448 6.92771 13.0251 6.75164 12.5837 6.75H11.4759ZM2.39112 5.56965L14.8818 17.9937L13.9127 18.4491C13.4901 18.6477 13.0287 18.7505 12.5617 18.75H3.9375L3.93535 18.75C3.09129 18.7476 2.28249 18.4112 1.68565 17.8144C1.0888 17.2175 0.752427 16.4087 0.750003 15.5647L0.75 15.5625V8.4375C0.750446 7.97791 0.850361 7.52313 1.04288 7.10581C1.23541 6.68848 1.51597 6.31777 1.86532 6.01913L2.39112 5.56965ZM2.41619 7.71025C2.41238 7.71818 2.40862 7.72615 2.40493 7.73415C2.30314 7.95481 2.25028 8.19489 2.25 8.43789V15.5613C2.25154 16.0087 2.42994 16.4373 2.74631 16.7537C3.06269 17.0701 3.49134 17.2485 3.93874 17.25H12.0071L2.41619 7.71025Z" fill="#333333"/>
</svg>
