<svg width="24" height="24" viewBox="0 0 24 24" fill="none" xmlns="http://www.w3.org/2000/svg">
<path d="M13.875 19.5089C13.6352 19.5088 13.4017 19.4317 13.2089 19.2891L13.178 19.2652L8.89078 15.7495H5.625C5.32663 15.7495 5.04048 15.631 4.8295 15.42C4.61853 15.2091 4.5 14.9229 4.5 14.6245V9.375C4.5 9.07664 4.61853 8.79049 4.8295 8.57951C5.04048 8.36853 5.32663 8.25 5.625 8.25H8.88984L13.177 4.73438L13.208 4.71047C13.3756 4.58706 13.5741 4.51257 13.7815 4.49528C13.989 4.47799 14.1971 4.51858 14.3828 4.61254C14.5686 4.70649 14.7246 4.85013 14.8335 5.02747C14.9425 5.20481 15.0001 5.4089 15 5.61704V18.383C15 18.6813 14.8815 18.9675 14.6705 19.1785C14.4595 19.3894 14.1734 19.508 13.875 19.508V19.5089ZM18 15.75C17.8721 15.7499 17.7463 15.7172 17.6346 15.6548C17.523 15.5924 17.4291 15.5025 17.362 15.3936C17.2948 15.2847 17.2567 15.1604 17.2511 15.0326C17.2455 14.9049 17.2728 14.7778 17.3302 14.6634C17.775 13.7775 18.0005 12.8822 18.0005 12C18.0005 11.0925 17.782 10.2225 17.3325 9.34079C17.2464 9.16411 17.233 8.96068 17.2954 8.77428C17.3577 8.58788 17.4907 8.43339 17.6658 8.34407C17.8409 8.25475 18.0441 8.23772 18.2316 8.29666C18.4191 8.3556 18.5759 8.48579 18.6684 8.65922C19.2281 9.7575 19.5 10.8502 19.5 12C19.5 13.117 19.2187 14.2397 18.6703 15.3366C18.6079 15.4609 18.5122 15.5653 18.3938 15.6383C18.2754 15.7114 18.1391 15.75 18 15.75Z" fill="#333333"/>
</svg>
