<svg width="24" height="24" viewBox="0 0 24 24" fill="none" xmlns="http://www.w3.org/2000/svg">
<path fill-rule="evenodd" clip-rule="evenodd" d="M10.7813 4.5046C10.9884 4.48728 11.1963 4.5277 11.3819 4.62136C11.5675 4.71501 11.7234 4.85825 11.8326 5.03517C11.9417 5.21209 11.9996 5.41578 12 5.62364L12 5.62501L12 18.3764C11.9996 18.5842 11.9417 18.7879 11.8326 18.9648C11.7234 19.1418 11.5675 19.285 11.3819 19.3787C11.1963 19.4723 10.9884 19.5127 10.7813 19.4954C10.5742 19.4781 10.3759 19.4037 10.2084 19.2806C10.198 19.2729 10.1877 19.2649 10.1777 19.2567L5.8946 15.75L5.88984 15.75L2.625 15.75C2.32663 15.75 2.04048 15.6315 1.8295 15.4205C1.61853 15.2095 1.5 14.9234 1.5 14.625V9.37501C1.5 9.07664 1.61853 8.79049 1.8295 8.57951C2.04048 8.36853 2.32663 8.25001 2.625 8.25001H5.89462L10.1777 4.74329C10.1877 4.73507 10.198 4.72711 10.2084 4.71942C10.3759 4.59626 10.5742 4.52191 10.7813 4.5046ZM10.5 6.41802V17.582L6.84028 14.5856L6.83659 14.5826C6.56801 14.3656 6.23265 14.2481 5.88739 14.25H5.88984V15L5.88388 14.25C5.88505 14.25 5.88622 14.25 5.88739 14.25H3V9.75001H5.90403H5.90625V9.00001L5.90069 9.74998C5.9018 9.74999 5.90292 9.75 5.90403 9.75001C6.24753 9.75176 6.58051 9.63178 6.84391 9.4114L10.5 6.41802ZM3 9.75001V9.37501C3 9.47446 2.96049 9.56984 2.89017 9.64017C2.81984 9.7105 2.72445 9.75001 2.625 9.75001H3ZM3 14.25H2.625C2.72445 14.25 2.81984 14.2895 2.89017 14.3598C2.96049 14.4302 3 14.5255 3 14.625V14.25Z" fill="#333333"/>
<path d="M14.6344 15.6548C14.7462 15.7172 14.872 15.75 15 15.75C15.139 15.7501 15.2753 15.7115 15.3937 15.6385C15.5121 15.5656 15.6078 15.4612 15.6703 15.337C16.2188 14.2411 16.5 13.1184 16.5 12C16.5 10.8488 16.2277 9.75563 15.6684 8.65922C15.576 8.48579 15.4191 8.3556 15.2316 8.29666C15.0441 8.23772 14.8409 8.25474 14.6658 8.34407C14.4907 8.43339 14.3577 8.58787 14.2954 8.77428C14.2331 8.96068 14.2464 9.16411 14.3325 9.34078C14.782 10.2216 15.0005 11.0916 15.0005 12C15.0005 12.8817 14.775 13.7784 14.3302 14.663C14.2726 14.7773 14.2453 14.9044 14.2509 15.0323C14.2564 15.1602 14.2945 15.2845 14.3617 15.3935C14.4288 15.5024 14.5227 15.5924 14.6344 15.6548Z" fill="#333333"/>
<path d="M17.25 18C17.1183 18 16.989 17.9654 16.8749 17.8996C16.7609 17.8338 16.6662 17.7391 16.6004 17.6251C16.5345 17.511 16.4998 17.3817 16.4998 17.25C16.4998 17.1184 16.5345 16.989 16.6003 16.875C17.4867 15.3323 18 14.0395 18 12C18 9.92952 17.4877 8.64562 16.6022 7.1278C16.5051 6.95616 16.4795 6.75318 16.5309 6.5628C16.5824 6.37242 16.7068 6.20997 16.8771 6.11062C17.0475 6.01127 17.2501 5.98301 17.4411 6.03196C17.6322 6.08092 17.7962 6.20314 17.8978 6.37218C18.8869 8.06765 19.5 9.60046 19.5 12C19.5 14.3639 18.8878 15.9042 17.9002 17.625C17.8343 17.7391 17.7395 17.8338 17.6254 17.8997C17.5112 17.9655 17.3818 18.0001 17.25 18Z" fill="#333333"/>
<path d="M19.5 20.25C19.3649 20.2499 19.2324 20.2133 19.1164 20.1441C19.0004 20.075 18.9053 19.9758 18.841 19.857C18.7767 19.7382 18.7457 19.6043 18.7512 19.4693C18.7567 19.3344 18.7986 19.2034 18.8723 19.0903C20.1492 17.1314 21 15.1762 21 12C21 8.88281 20.1478 6.90843 18.8677 4.90359C18.8147 4.82049 18.7785 4.72776 18.7614 4.6307C18.7442 4.53364 18.7463 4.43415 18.7676 4.33791C18.7889 4.24167 18.8289 4.15057 18.8854 4.0698C18.9419 3.98903 19.0138 3.92018 19.0969 3.86718C19.18 3.81418 19.2727 3.77807 19.3698 3.7609C19.4668 3.74374 19.5663 3.74586 19.6625 3.76715C19.7588 3.78843 19.8499 3.82846 19.9307 3.88496C20.0114 3.94145 20.0803 4.0133 20.1333 4.0964C21.5536 6.32296 22.5 8.51906 22.5 12C22.5 15.0352 21.8128 17.3264 20.1281 19.9097C20.06 20.0142 19.9669 20.1 19.8572 20.1594C19.7475 20.2189 19.6247 20.25 19.5 20.25Z" fill="#333333"/>
</svg>
