<svg width="24" height="24" viewBox="0 0 24 24" fill="none" xmlns="http://www.w3.org/2000/svg">
<path d="M6.03033 4.71967C5.73744 4.42678 5.26256 4.42678 4.96967 4.71967C4.67678 5.01256 4.67678 5.48744 4.96967 5.78033L19.4697 20.2803C19.7626 20.5732 20.2374 20.5732 20.5303 20.2803C20.8232 19.9874 20.8232 19.5126 20.5303 19.2197L6.03033 4.71967Z" fill="#333333"/>
<path d="M14.177 5.24298L10.569 8.19771L16 13.6287V6.12564C16.0001 5.9175 15.9425 5.71341 15.8335 5.53608C15.7246 5.35874 15.5686 5.2151 15.3828 5.12114C15.1971 5.02719 14.989 4.9866 14.7815 5.00389C14.5741 5.02118 14.3756 5.09567 14.208 5.21908C14.1972 5.22658 14.1873 5.23455 14.177 5.24298Z" fill="#333333"/>
<path d="M14.875 20.0006C14.6352 20.0005 14.4017 19.9234 14.2089 19.7808C14.1981 19.7733 14.1883 19.7653 14.178 19.7569L9.89078 16.246H6.625C6.32663 16.246 6.04048 16.1274 5.8295 15.9164C5.61853 15.7055 5.5 15.4193 5.5 15.121V9.87892C5.5 9.58055 5.61853 9.29441 5.8295 9.08343C6.04048 8.87245 6.32663 8.75392 6.625 8.75392H6.8826L16 17.8713V18.8756C16 19.174 15.8815 19.4602 15.6705 19.6711C15.4595 19.8821 15.1734 20.0006 14.875 20.0006Z" fill="#333333"/>
</svg>
