<svg width="24" height="24" viewBox="0 0 24 24" fill="none" xmlns="http://www.w3.org/2000/svg">
<path fill-rule="evenodd" clip-rule="evenodd" d="M17.6591 8.33194C18.0281 8.14369 18.4798 8.29019 18.6681 8.65915C19.1821 9.66665 19.5 10.762 19.5 12C19.5 13.2258 19.1684 14.3437 18.6703 15.3364C18.4846 15.7066 18.0338 15.8561 17.6636 15.6703C17.2934 15.4846 17.1439 15.0338 17.3297 14.6636C17.7447 13.8366 18 12.9483 18 12C18 11.034 17.7554 10.1709 17.3319 9.34086C17.1437 8.97189 17.2902 8.52018 17.6591 8.33194Z" fill="#333333"/>
<path fill-rule="evenodd" clip-rule="evenodd" d="M13.7813 4.5046C13.9884 4.48728 14.1963 4.5277 14.3819 4.62136C14.5675 4.71501 14.7234 4.85825 14.8326 5.03517C14.9417 5.21209 14.9996 5.41578 15 5.62364L15 5.62501L15 18.3764C14.9996 18.5842 14.9417 18.7879 14.8326 18.9648C14.7234 19.1418 14.5675 19.285 14.3819 19.3787C14.1963 19.4723 13.9884 19.5127 13.7813 19.4954C13.5742 19.4781 13.3759 19.4037 13.2084 19.2806C13.198 19.2729 13.1877 19.2649 13.1777 19.2567L8.8946 15.75L8.88984 15.75L5.625 15.75C5.32663 15.75 5.04048 15.6315 4.8295 15.4205C4.61853 15.2095 4.5 14.9234 4.5 14.625V9.37501C4.5 9.07664 4.61853 8.79049 4.8295 8.57951C5.04048 8.36853 5.32663 8.25001 5.625 8.25001H8.89462L13.1777 4.74329C13.1877 4.73507 13.198 4.72711 13.2084 4.71942C13.3759 4.59626 13.5742 4.52191 13.7813 4.5046ZM13.5 6.41802V17.582L9.84028 14.5856L9.83659 14.5826C9.56801 14.3656 9.23265 14.2481 8.88739 14.25H8.88984V15L8.88388 14.25C8.88505 14.25 8.88622 14.25 8.88739 14.25H6V9.75001H8.90403H8.90625V9.00001L8.90069 9.74998C8.9018 9.74999 8.90292 9.75 8.90403 9.75001C9.24753 9.75176 9.58051 9.63178 9.84391 9.4114L13.5 6.41802ZM6 9.75001V9.37501C6 9.47446 5.96049 9.56984 5.89017 9.64017C5.81984 9.7105 5.72445 9.75001 5.625 9.75001H6ZM6 14.25H5.625C5.72445 14.25 5.81984 14.2895 5.89017 14.3598C5.96049 14.4302 6 14.5255 6 14.625V14.25Z" fill="#333333"/>
</svg>
