<svg width="24" height="24" viewBox="0 0 24 24" fill="none" xmlns="http://www.w3.org/2000/svg">
<path d="M15.3819 5.12067C15.1963 5.02701 14.9884 4.9866 14.7813 5.00391C14.5742 5.02122 14.3759 5.09558 14.2084 5.21874C14.198 5.22642 14.1877 5.23438 14.1777 5.2426L10.5687 8.1974L11.6346 9.26332L14.5 6.91734V12.1287L16 13.6287L16 6.12432L16 6.12295C15.9996 5.91509 15.9417 5.7114 15.8326 5.53448C15.7234 5.35756 15.5675 5.21433 15.3819 5.12067Z" fill="#333333"/>
<path fill-rule="evenodd" clip-rule="evenodd" d="M16 17.8713V18.8757C15.9996 19.0835 15.9417 19.2872 15.8326 19.4642C15.7234 19.6411 15.5675 19.7843 15.3819 19.878C15.1963 19.9716 14.9884 20.012 14.7813 19.9947C14.5742 19.9774 14.3759 19.9031 14.2084 19.7799C14.198 19.7722 14.1877 19.7643 14.1777 19.756L9.8946 16.2493L9.88984 16.2493L6.625 16.2493C6.32663 16.2493 6.04048 16.1308 5.8295 15.9198C5.61853 15.7088 5.5 15.4227 5.5 15.1243V9.87432C5.5 9.57595 5.61853 9.2898 5.8295 9.07882C6.04048 8.86784 6.32663 8.74932 6.625 8.74932H6.878M16 17.8713L14.5 16.3713V18.0813L10.8403 15.0849L10.8366 15.0819C10.568 14.8649 10.2327 14.7474 9.88739 14.7493H9.88984V15.4993L9.88388 14.7493L9.88739 14.7493H7V10.2493H8.378M7 10.2493H6.625C6.72445 10.2493 6.81984 10.2098 6.89017 10.1395C6.96049 10.0692 7 9.97377 7 9.87432V10.2493ZM7 14.7493V15.1243C7 15.0249 6.96049 14.9295 6.89017 14.8592C6.81984 14.7888 6.72445 14.7493 6.625 14.7493H7Z" fill="#333333"/>
<path fill-rule="evenodd" clip-rule="evenodd" d="M4.96967 4.71967C5.26256 4.42678 5.73744 4.42678 6.03033 4.71967L20.5303 19.2197C20.8232 19.5126 20.8232 19.9874 20.5303 20.2803C20.2374 20.5732 19.7626 20.5732 19.4697 20.2803L4.96967 5.78033C4.67678 5.48744 4.67678 5.01256 4.96967 4.71967Z" fill="#333333"/>
</svg>
