<svg width="24" height="24" viewBox="0 0 24 24" fill="none" xmlns="http://www.w3.org/2000/svg">
<path fill-rule="evenodd" clip-rule="evenodd" d="M2.46967 3.21967C2.76256 2.92678 3.23744 2.92678 3.53033 3.21967L20.0303 19.7197C20.3232 20.0126 20.3232 20.4874 20.0303 20.7803C19.7374 21.0732 19.2626 21.0732 18.9697 20.7803L2.46967 4.28033C2.17678 3.98744 2.17678 3.51256 2.46967 3.21967Z" fill="#333333"/>
<path d="M10.5 6.41813V8.0025C10.5001 8.05208 10.5198 8.09961 10.5548 8.13469L11.6798 9.25969C11.706 9.28591 11.7394 9.30379 11.7758 9.31105C11.8121 9.31831 11.8498 9.31464 11.8841 9.30049C11.9183 9.28635 11.9476 9.26236 11.9683 9.23157C11.9889 9.20078 11.9999 9.16457 12 9.1275V5.65172C12.0021 5.44422 11.948 5.24002 11.8434 5.06077C11.7389 4.88153 11.5877 4.73392 11.4061 4.6336C11.2189 4.53283 11.0069 4.48739 10.7948 4.50257C10.5827 4.51776 10.3794 4.59296 10.2084 4.71938C10.1977 4.72682 10.1874 4.7348 10.1775 4.74328L8.68031 5.96907C8.66009 5.98567 8.64356 6.00633 8.6318 6.02971C8.62004 6.05308 8.6133 6.07866 8.61202 6.1048C8.61074 6.13094 8.61494 6.15706 8.62437 6.18147C8.63379 6.20589 8.64821 6.22806 8.66672 6.24657L9.46594 7.04625C9.49888 7.07919 9.54291 7.09869 9.58944 7.10094C9.63598 7.1032 9.68168 7.08804 9.71766 7.05844L10.5 6.41813ZM10.5 17.5819L6.84047 14.5856C6.5718 14.3674 6.23595 14.2489 5.88984 14.25H3V9.75H5.3775C5.41457 9.74994 5.45078 9.73889 5.48157 9.71826C5.51236 9.69762 5.53634 9.66832 5.55049 9.63406C5.56463 9.5998 5.56831 9.56212 5.56105 9.52577C5.55378 9.48942 5.53591 9.45604 5.50969 9.42985L4.38469 8.30485C4.34961 8.26981 4.30208 8.25009 4.2525 8.25H2.625C2.32663 8.25 2.04048 8.36853 1.8295 8.57951C1.61853 8.79049 1.5 9.07663 1.5 9.375V14.625C1.5 14.9234 1.61853 15.2095 1.8295 15.4205C2.04048 15.6315 2.32663 15.75 2.625 15.75H5.895L10.1775 19.2563C10.1874 19.2647 10.1977 19.2727 10.2084 19.2802C10.3815 19.4083 10.5878 19.4839 10.8027 19.4979C11.0175 19.512 11.2319 19.4639 11.4202 19.3594C11.5981 19.258 11.7457 19.1109 11.8477 18.9333C11.9497 18.7557 12.0022 18.554 12 18.3492V15.9975C11.9999 15.9479 11.9802 15.9004 11.9452 15.8653L10.8202 14.7403C10.794 14.7141 10.7606 14.6962 10.7242 14.689C10.6879 14.6817 10.6502 14.6854 10.6159 14.6995C10.5817 14.7137 10.5524 14.7376 10.5317 14.7684C10.5111 14.7992 10.5001 14.8354 10.5 14.8725V17.5819ZM16.5 12C16.5 10.8488 16.2277 9.75563 15.668 8.65922C15.5755 8.48579 15.4186 8.3556 15.2311 8.29666C15.0436 8.23772 14.8404 8.25475 14.6654 8.34407C14.4903 8.43339 14.3573 8.58787 14.2949 8.77428C14.2326 8.96068 14.2459 9.16411 14.332 9.34078C14.7816 10.2216 15 11.0916 15 12C15 12.125 14.9952 12.252 14.9855 12.3811C14.9815 12.4349 14.9891 12.4889 15.0079 12.5394C15.0266 12.59 15.0561 12.6359 15.0942 12.6741L16.0158 13.5961C16.0396 13.6201 16.0695 13.6371 16.1023 13.6455C16.1351 13.6539 16.1695 13.6532 16.202 13.6436C16.2344 13.634 16.2636 13.6158 16.2865 13.5909C16.3095 13.5661 16.3252 13.5355 16.3322 13.5023C16.4431 13.0092 16.4994 12.5054 16.5 12ZM19.5 12C19.5 9.60047 18.8869 8.06766 17.8978 6.37219C17.7962 6.20315 17.6322 6.08093 17.4411 6.03197C17.2501 5.98302 17.0475 6.01128 16.8771 6.11063C16.7068 6.20998 16.5824 6.37243 16.5309 6.56281C16.4795 6.75319 16.5051 6.95617 16.6022 7.12782C17.4877 8.64563 18 9.92953 18 12C18 13.117 17.8458 14.01 17.5608 14.843C17.5379 14.9094 17.5341 14.9809 17.5498 15.0493C17.5656 15.1178 17.6002 15.1804 17.6498 15.2302L18.4359 16.0158C18.4577 16.0376 18.4844 16.0537 18.5138 16.0627C18.5432 16.0717 18.5744 16.0734 18.6046 16.0675C18.6348 16.0616 18.6631 16.0484 18.687 16.029C18.7109 16.0096 18.7296 15.9846 18.7416 15.9563C19.223 14.8069 19.5 13.5895 19.5 12Z" fill="#333333"/>
<path d="M22.5 12C22.5 8.51906 21.5536 6.32297 20.1323 4.0964C20.0253 3.92857 19.856 3.81013 19.6616 3.76715C19.4672 3.72416 19.2638 3.76015 19.0959 3.86719C18.9281 3.97422 18.8097 4.14355 18.7667 4.33792C18.7237 4.53228 18.7597 4.73576 18.8667 4.90359C20.1478 6.90844 21 8.88281 21 12C21 14.2242 20.5828 15.8494 19.8942 17.2969C19.8775 17.3318 19.8719 17.3711 19.8784 17.4092C19.8849 17.4474 19.903 17.4827 19.9303 17.5102L20.7656 18.3464C20.7865 18.3674 20.8121 18.3832 20.8402 18.3924C20.8684 18.4017 20.8983 18.4041 20.9276 18.3995C20.9568 18.3949 20.9846 18.3835 21.0086 18.3661C21.0326 18.3487 21.0521 18.3259 21.0656 18.2995C22.0725 16.3228 22.5 14.3906 22.5 12Z" fill="#333333"/>
</svg>
