<svg width="24" height="24" viewBox="0 0 24 24" fill="none" xmlns="http://www.w3.org/2000/svg">
<path fill-rule="evenodd" clip-rule="evenodd" d="M16.0313 4.5046C16.2384 4.48728 16.4463 4.5277 16.6319 4.62136C16.8175 4.71501 16.9734 4.85825 17.0826 5.03517C17.1917 5.21209 17.2496 5.41578 17.25 5.62364L17.25 5.62501L17.25 18.3764C17.2496 18.5842 17.1917 18.7879 17.0826 18.9648C16.9734 19.1418 16.8175 19.285 16.6319 19.3787C16.4463 19.4723 16.2384 19.5127 16.0313 19.4954C15.8242 19.4781 15.6259 19.4037 15.4584 19.2806C15.448 19.2729 15.4377 19.2649 15.4277 19.2567L11.1446 15.75L11.1398 15.75L7.875 15.75C7.57663 15.75 7.29048 15.6315 7.0795 15.4205C6.86853 15.2095 6.75 14.9234 6.75 14.625V9.37501C6.75 9.07664 6.86853 8.79049 7.0795 8.57951C7.29048 8.36853 7.57663 8.25001 7.875 8.25001H11.1446L15.4277 4.74329C15.4377 4.73507 15.448 4.72711 15.4584 4.71942C15.6259 4.59626 15.8242 4.52191 16.0313 4.5046ZM15.75 6.41802V17.582L12.0903 14.5856L12.0866 14.5826C11.818 14.3656 11.4827 14.2481 11.1374 14.25H11.1398V15L11.1339 14.25C11.135 14.25 11.1362 14.25 11.1374 14.25H8.25V9.75001H11.154H11.1562V9.00001L11.1507 9.74998C11.1518 9.74999 11.1529 9.75 11.154 9.75001C11.4975 9.75176 11.8305 9.63178 12.0939 9.4114L15.75 6.41802ZM8.25 9.75001V9.37501C8.25 9.47446 8.21049 9.56984 8.14017 9.64017C8.06984 9.7105 7.97445 9.75001 7.875 9.75001H8.25ZM8.25 14.25H7.875C7.97445 14.25 8.06984 14.2895 8.14017 14.3598C8.21049 14.4302 8.25 14.5255 8.25 14.625V14.25Z" fill="#333333"/>
</svg>
