<svg width="24" height="24" viewBox="0 0 24 24" fill="none" xmlns="http://www.w3.org/2000/svg">
<path fill-rule="evenodd" clip-rule="evenodd" d="M18.3722 6.1021C18.73 5.89345 19.1893 6.01439 19.3979 6.37221C20.3816 8.0592 21 9.58144 21 12C21 14.4223 20.3546 15.958 19.4008 17.6228C19.1948 17.9822 18.7366 18.1067 18.3771 17.9008C18.0177 17.6948 17.8933 17.2366 18.0992 16.8772C18.9716 15.3545 19.5 14.0777 19.5 12C19.5 9.91856 18.9934 8.65642 18.1021 7.12779C17.8934 6.76996 18.0144 6.31074 18.3722 6.1021ZM16.1591 8.33193C16.5281 8.14368 16.9798 8.29018 17.1681 8.65915C17.6821 9.66664 18 10.7619 18 12C18 13.2258 17.6684 14.3437 17.1703 15.3364C16.9846 15.7066 16.5338 15.8561 16.1636 15.6703C15.7934 15.4846 15.6439 15.0338 15.8297 14.6636C16.2447 13.8366 16.5 12.9483 16.5 12C16.5 11.034 16.2554 10.1709 15.8319 9.34085C15.6437 8.97189 15.7902 8.52018 16.1591 8.33193Z" fill="#333333"/>
<path fill-rule="evenodd" clip-rule="evenodd" d="M12.2813 4.5046C12.4884 4.48728 12.6963 4.5277 12.8819 4.62136C13.0675 4.71501 13.2234 4.85825 13.3326 5.03517C13.4417 5.21209 13.4996 5.41578 13.5 5.62364L13.5 5.62501L13.5 18.3764C13.4996 18.5842 13.4417 18.7879 13.3326 18.9648C13.2234 19.1418 13.0675 19.285 12.8819 19.3787C12.6963 19.4723 12.4884 19.5127 12.2813 19.4954C12.0742 19.4781 11.8759 19.4037 11.7084 19.2806C11.698 19.2729 11.6877 19.2649 11.6777 19.2567L7.3946 15.75L7.38984 15.75L4.125 15.75C3.82663 15.75 3.54048 15.6315 3.3295 15.4205C3.11853 15.2095 3 14.9234 3 14.625V9.37501C3 9.07664 3.11853 8.79049 3.3295 8.57951C3.54048 8.36853 3.82663 8.25001 4.125 8.25001H7.39462L11.6777 4.74329C11.6877 4.73507 11.698 4.72711 11.7084 4.71942C11.8759 4.59626 12.0742 4.52191 12.2813 4.5046ZM12 6.41802V17.582L8.34028 14.5856L8.33659 14.5826C8.06801 14.3656 7.73265 14.2481 7.38739 14.25H7.38984V15L7.38388 14.25C7.38505 14.25 7.38622 14.25 7.38739 14.25H4.5V9.75001H7.40403H7.40625V9.00001L7.40069 9.74998C7.4018 9.74999 7.40292 9.75 7.40403 9.75001C7.74753 9.75176 8.08051 9.63178 8.34391 9.4114L12 6.41802ZM4.5 9.75001V9.37501C4.5 9.47446 4.46049 9.56984 4.39017 9.64017C4.31984 9.7105 4.22445 9.75001 4.125 9.75001H4.5ZM4.5 14.25H4.125C4.22445 14.25 4.31984 14.2895 4.39017 14.3598C4.46049 14.4302 4.5 14.5255 4.5 14.625V14.25Z" fill="#333333"/>
</svg>
