<svg width="24" height="24" viewBox="0 0 24 24" fill="none" xmlns="http://www.w3.org/2000/svg">
<path d="M3.21099 10.8474C3.37799 11.0231 3.63287 11.0143 3.79986 10.8386C5.96197 8.54462 8.80963 7.33173 12.0001 7.33173C15.2081 7.33173 18.0733 8.55341 20.2178 10.8474C20.376 11.0056 20.6221 11.0056 20.7891 10.8298L22.002 9.61688C22.1514 9.45868 22.1514 9.26532 22.0284 9.11591C19.9629 6.56708 16.0782 4.69501 12.0001 4.69501C7.93072 4.69501 4.02838 6.56708 1.97174 9.11591C1.84869 9.26532 1.84869 9.45868 1.9981 9.61688L3.21099 10.8474Z" fill="#333333"/>
<path d="M7.46484 14.486C7.28905 14.6794 7.05175 14.7057 6.85839 14.5212L5.49609 13.1589C5.35546 13.0007 5.33788 12.8249 5.46972 12.6667C6.79687 11.0407 9.2578 9.81903 12 9.81903C14.7422 9.81903 17.2031 11.0407 18.5303 12.6667C18.6621 12.8249 18.6445 13.0182 18.5039 13.1589L17.1416 14.5124C16.957 14.697 16.7285 14.697 16.5703 14.5124C15.498 13.3434 13.7754 12.4645 12 12.4733C10.2422 12.4645 8.51952 13.3171 7.46484 14.486Z" fill="#333333"/>
<path d="M12.7032 18.8806C12.3604 19.2145 12.1934 19.3024 12 19.3024C11.8067 19.3024 11.6397 19.2057 11.2969 18.8806L9.16117 16.8239C9.02054 16.6921 8.98539 16.5339 9.07328 16.3932C9.64457 15.6286 10.7256 14.9606 12 14.9606C13.2393 14.9606 14.3203 15.6022 14.8916 16.3405C15.0147 16.4987 14.9795 16.6921 14.8477 16.8239L12.7032 18.8806Z" fill="#333333"/>
</svg>
