<svg width="24" height="24" viewBox="0 0 24 24" fill="none" xmlns="http://www.w3.org/2000/svg">
<path d="M12.0088 15.2643C12.4747 15.2643 12.7911 14.9566 12.7999 14.4732C12.8262 11.2389 12.8526 7.98691 12.879 4.74374C12.879 4.24277 12.4747 3.89999 12.0001 3.89999C11.5254 3.89999 11.1212 4.24277 11.1212 4.74374C11.1563 7.98691 11.1827 11.2389 11.2178 14.4732C11.2266 14.9566 11.543 15.2643 12.0088 15.2643ZM9.82037 5.06894C6.60357 5.60507 3.69439 7.19589 1.97174 9.31406C1.84869 9.45468 1.84869 9.65683 1.9981 9.81503L3.21099 11.0455C3.38678 11.2125 3.63287 11.2125 3.79986 11.0367C5.46099 9.27011 7.544 8.14511 9.85553 7.74081L9.82037 5.06894ZM14.171 5.07773L14.1446 7.7496C16.4561 8.13632 18.5215 9.2789 20.2178 11.0455C20.376 11.2037 20.6133 11.1949 20.7891 11.0279L22.002 9.81503C22.1602 9.65683 22.1514 9.45468 22.0284 9.31406C20.2881 7.21347 17.4229 5.5787 14.171 5.07773ZM14.1358 10.2809L14.1094 13.0846C15.0762 13.4361 15.9376 14.0162 16.5792 14.7105C16.7374 14.8863 16.9571 14.8775 17.1504 14.7018L18.504 13.357C18.6446 13.2076 18.6622 13.0143 18.5303 12.8648C17.5547 11.6783 15.9727 10.6852 14.1358 10.2809ZM9.88189 10.2809C8.04498 10.7115 6.48053 11.6519 5.47857 12.8648C5.34674 13.0143 5.35553 13.1988 5.50494 13.357L6.86724 14.7193C7.0606 14.9039 7.29791 14.8775 7.47369 14.6754C8.09771 13.981 8.95025 13.4185 9.90826 13.067L9.88189 10.2809ZM12.0001 19.5006C12.7471 19.5006 13.336 18.8941 13.336 18.1559C13.336 17.4088 12.7471 16.8199 12.0001 16.8199C11.2618 16.8199 10.6641 17.4088 10.6641 18.1559C10.6641 18.8941 11.2618 19.5006 12.0001 19.5006Z" fill="#333333"/>
</svg>
