<svg width="24" height="24" viewBox="0 0 24 24" fill="none" xmlns="http://www.w3.org/2000/svg">
<path d="M19.4055 19.3215C19.6691 19.5851 20.1086 19.5851 20.3635 19.3215C20.6183 19.049 20.6271 18.6271 20.3635 18.3635L5.58905 3.58026C5.32537 3.31659 4.88592 3.31659 4.62225 3.58026C4.35858 3.83514 4.35858 4.29218 4.62225 4.53827L19.4055 19.3215ZM11.6183 8.16815C11.7502 8.14178 11.8908 8.133 12.0226 8.133C15.3097 8.18573 18.0519 9.44257 20.214 11.6486C20.381 11.8068 20.6183 11.798 20.7853 11.631L21.9982 10.4182C22.1564 10.2599 22.1476 10.0666 22.0334 9.91718C19.9152 7.4035 16.0744 5.49628 11.9963 5.49628C11.1086 5.49628 10.2297 5.58417 9.23651 5.78632L11.6183 8.16815ZM5.65936 7.06073C4.1828 7.81659 2.89959 8.80096 1.96795 9.91718C1.84491 10.0666 1.84491 10.2599 1.99432 10.4182L3.216 11.631C3.38299 11.798 3.62908 11.798 3.79608 11.6223C4.9035 10.4533 6.16034 9.56561 7.59295 8.99432L5.65936 7.06073ZM9.57928 10.9631C7.86541 11.4289 6.40643 12.3517 5.466 13.468C5.34295 13.6262 5.35174 13.8107 5.50116 13.9601L6.86346 15.3137C7.04803 15.4894 7.28534 15.4719 7.46112 15.2785C8.50702 14.1183 10.1681 13.3098 11.8908 13.2834L9.57928 10.9631ZM17.9553 14.5051L18.5002 13.9601C18.6584 13.8019 18.6584 13.6262 18.5353 13.468C17.6476 12.3693 16.1008 11.3937 14.4308 10.9807L17.9553 14.5051ZM12.0051 15.7619C10.7482 15.7619 9.64959 16.4299 9.08709 17.1945C8.9992 17.3351 9.03436 17.4933 9.16619 17.6252L11.3019 19.6818C11.6447 20.0158 11.8117 20.1037 12.0051 20.1037C12.1984 20.1037 12.3654 20.007 12.717 19.6818L14.8439 17.6252C14.9846 17.4933 15.0197 17.3 14.8967 17.1418C14.3166 16.4035 13.2443 15.7619 12.0051 15.7619Z" fill="#333333"/>
</svg>
