<svg width="24" height="24" viewBox="0 0 24 24" fill="none" xmlns="http://www.w3.org/2000/svg">
<path d="M11.9619 5.8125C13.2908 5.8125 14.3681 4.73519 14.3681 3.40625C14.3681 2.07731 13.2908 1 11.9619 1C10.6329 1 9.5556 2.07731 9.5556 3.40625C9.5556 4.73519 10.6329 5.8125 11.9619 5.8125Z" fill="#333333"/>
<path d="M17.9294 12.941L17.4855 11.4625V11.4577L16.5204 8.2411H16.5183L16.4104 7.87801C16.292 7.47988 16.0482 7.13062 15.7153 6.88225C15.3824 6.63387 14.9781 6.49965 14.5628 6.49957H9.40651C8.9911 6.49944 8.58676 6.63358 8.2538 6.88199C7.92083 7.1304 7.67707 7.47977 7.55886 7.87801L7.451 8.2411H7.44843L6.48335 11.4577V11.4625L6.03776 12.941C5.9037 13.3875 6.13659 13.8717 6.57788 14.0213C6.6872 14.0585 6.8029 14.0733 6.91807 14.0648C7.03325 14.0563 7.14552 14.0246 7.2482 13.9718C7.35087 13.9189 7.44184 13.8459 7.51566 13.7571C7.58949 13.6683 7.64466 13.5655 7.67788 13.4549L8.77702 9.79184L8.87026 9.48117C8.89749 9.40525 8.95055 9.34132 9.02016 9.30057C9.08976 9.25981 9.17148 9.24484 9.25102 9.25825C9.33055 9.27167 9.40284 9.31263 9.45522 9.37396C9.50761 9.4353 9.53676 9.5131 9.53757 9.59375C9.53754 9.617 9.5351 9.64019 9.53026 9.66293L7.65124 15.9273C7.62043 16.03 7.61404 16.1384 7.63258 16.244C7.65113 16.3495 7.69409 16.4493 7.75805 16.5353C7.822 16.6213 7.90517 16.6911 8.00092 16.7393C8.09667 16.7874 8.20235 16.8125 8.30952 16.8125H9.55561V21.7406C9.55561 22.4479 10.0081 23 10.5869 23C11.1657 23 11.6181 22.4479 11.6181 21.7406V16.8125H12.3056V21.7406C12.3056 22.4479 12.7581 23 13.3369 23C13.9157 23 14.3681 22.4479 14.3681 21.7406V16.8125H15.6572C15.7644 16.8125 15.8701 16.7875 15.9659 16.7394C16.0617 16.6913 16.1449 16.6214 16.209 16.5354C16.273 16.4494 16.316 16.3497 16.3345 16.2441C16.3531 16.1385 16.3467 16.03 16.3159 15.9273L14.4364 9.66207C14.4317 9.63961 14.4294 9.61671 14.4296 9.59375C14.43 9.51285 14.459 9.4347 14.5113 9.37304C14.5637 9.31139 14.6362 9.27018 14.7159 9.25668C14.7957 9.24318 14.8777 9.25825 14.9474 9.29923C15.0172 9.34022 15.0703 9.40449 15.0973 9.48074L15.1905 9.79141L16.2892 13.4545C16.3226 13.5649 16.3779 13.6675 16.4517 13.7561C16.5256 13.8448 16.6165 13.9176 16.7191 13.9704C16.8217 14.0231 16.9339 14.0546 17.049 14.0631C17.164 14.0715 17.2796 14.0567 17.3888 14.0195C17.8301 13.8717 18.063 13.3875 17.9294 12.941Z" fill="#333333"/>
</svg>
