<svg width="24" height="24" viewBox="0 0 24 24" fill="none" xmlns="http://www.w3.org/2000/svg">
<path fill-rule="evenodd" clip-rule="evenodd" d="M17.0118 2.7534C15.4755 1.93429 13.7525 1.4991 11.9915 1.49997C9.13585 1.49997 6.46866 2.60013 4.4746 4.59794C2.54757 6.53107 1.49148 9.08341 1.49991 11.7829C1.49998 13.7621 2.08103 15.6978 3.17101 17.3498L3.17991 17.3625C3.19304 17.3817 3.20663 17.4009 3.22023 17.4197C3.23382 17.4384 3.25069 17.4628 3.25444 17.4689L3.26476 17.4876C3.31773 17.5814 3.35851 17.6958 3.32241 17.8111L2.45898 20.9358C2.42443 21.0519 2.40552 21.1722 2.40273 21.2934C2.4021 21.6122 2.52793 21.9183 2.75261 22.1445C2.9773 22.3706 3.28251 22.4985 3.60132 22.5C3.76979 22.4944 3.93581 22.458 4.09116 22.3926L7.25476 21.2508L7.2946 21.2353C7.38066 21.1992 7.47314 21.1808 7.56647 21.1814C7.65253 21.1816 7.73783 21.1975 7.81819 21.2283C7.89413 21.2578 8.58366 21.5217 9.31116 21.7251C9.91585 21.8939 11.174 22.147 12.1598 22.147C14.9559 22.147 17.5668 21.0642 19.5112 19.0973C21.4387 17.1454 22.4999 14.5509 22.4999 11.7886C22.5002 11.0795 22.4251 10.3724 22.2759 9.67919C22.0738 8.72896 21.7325 7.8141 21.2692 6.96242C20.7191 7.59794 19.9065 8 19 8C17.3431 8 16 6.65686 16 5C16 4.10582 16.3912 3.30302 17.0118 2.7534ZM6.66656 13.2472C6.91323 13.412 7.20324 13.5 7.49991 13.5C7.89774 13.5 8.27927 13.3419 8.56057 13.0606C8.84188 12.7793 8.99991 12.3978 8.99991 12C8.99991 11.7033 8.91194 11.4133 8.74712 11.1666C8.58229 10.9199 8.34803 10.7277 8.07394 10.6142C7.79985 10.5006 7.49825 10.4709 7.20728 10.5288C6.91631 10.5867 6.64903 10.7295 6.43925 10.9393C6.22947 11.1491 6.08661 11.4164 6.02873 11.7073C5.97086 11.9983 6.00056 12.2999 6.11409 12.574C6.22762 12.8481 6.41988 13.0824 6.66656 13.2472ZM11.1666 13.2472C11.4132 13.412 11.7032 13.5 11.9999 13.5C12.3977 13.5 12.7793 13.3419 13.0606 13.0606C13.3419 12.7793 13.4999 12.3978 13.4999 12C13.4999 11.7033 13.4119 11.4133 13.2471 11.1666C13.0823 10.9199 12.848 10.7277 12.5739 10.6142C12.2998 10.5006 11.9982 10.4709 11.7073 10.5288C11.4163 10.5867 11.149 10.7295 10.9393 10.9393C10.7295 11.1491 10.5866 11.4164 10.5287 11.7073C10.4709 11.9983 10.5006 12.2999 10.6141 12.574C10.7276 12.8481 10.9199 13.0824 11.1666 13.2472ZM15.6666 13.2472C15.9132 13.412 16.2032 13.5 16.4999 13.5C16.8977 13.5 17.2793 13.3419 17.5606 13.0606C17.8419 12.7793 17.9999 12.3978 17.9999 12C17.9999 11.7033 17.9119 11.4133 17.7471 11.1666C17.5823 10.9199 17.348 10.7277 17.0739 10.6142C16.7998 10.5006 16.4982 10.4709 16.2073 10.5288C15.9163 10.5867 15.649 10.7295 15.4393 10.9393C15.2295 11.1491 15.0866 11.4164 15.0287 11.7073C14.9709 11.9983 15.0006 12.2999 15.1141 12.574C15.2276 12.8481 15.4199 13.0824 15.6666 13.2472Z" fill="#5C5C5C"/>
<circle cx="19" cy="5" r="2" fill="#EB5757"/>
</svg>
