<svg width="24" height="24" viewBox="0 0 24 24" fill="none" xmlns="http://www.w3.org/2000/svg">
<path fill-rule="evenodd" clip-rule="evenodd" d="M4 2C2.89543 2 2 2.89543 2 4V20C2 21.1046 2.89543 22 4 22H20C21.1046 22 22 21.1046 22 20V4C22 2.89543 21.1046 2 20 2H4ZM17.6271 8.54875C17.9302 8.20239 17.8951 7.67592 17.5488 7.37285C17.2024 7.06978 16.6759 7.10488 16.3729 7.45125L9.95941 14.7809L7.58926 12.4107C7.26382 12.0853 6.73618 12.0853 6.41074 12.4107C6.08531 12.7362 6.08531 13.2638 6.41074 13.5893L9.41074 16.5893C9.57383 16.7523 9.79722 16.8405 10.0277 16.8329C10.2582 16.8252 10.4753 16.7223 10.6271 16.5488L17.6271 8.54875Z" fill="#3841A1"/>
</svg>
