<svg width="24" height="24" viewBox="0 0 24 24" fill="none" xmlns="http://www.w3.org/2000/svg">
<path fill-rule="evenodd" clip-rule="evenodd" d="M11.9924 3.42856C7.23252 3.42856 3.41428 7.19059 3.42862 11.7897L3.42862 11.7919C3.42856 13.3918 3.89617 14.9566 4.77371 16.294C4.82384 16.3624 4.87072 16.4332 4.91422 16.5061L4.91768 16.5119L4.92102 16.5177C4.99145 16.6409 5.07496 16.8068 5.13251 16.9901C5.18518 17.1578 5.24584 17.4311 5.16657 17.7229L5.16574 17.726L4.4284 20.3931L6.97964 19.4723C7.23371 19.3678 7.506 19.3145 7.78087 19.3155L7.77815 20.0297L7.77895 19.3155C7.77959 19.3155 7.78023 19.3155 7.78087 19.3155C8.0373 19.3161 8.29148 19.3635 8.53085 19.4555L8.53189 19.4559C8.67668 19.5118 9.25345 19.7261 9.82378 19.8857C10.3844 20.0426 11.4198 20.2329 12.1522 20.2329C16.8884 20.2329 20.5713 16.4302 20.5714 11.7989C20.5712 11.2243 20.5103 10.6512 20.3899 10.0894L20.3896 10.0879C19.5863 6.30089 16.1403 3.42856 11.9924 3.42856ZM2.00006 11.793C1.98377 6.37036 6.47596 2 11.9924 2C16.8067 2 20.8417 5.3362 21.7869 9.79073C21.9283 10.4506 21.9997 11.1235 21.9999 11.7984C21.9999 17.2034 17.6927 21.6615 12.1522 21.6615C11.2507 21.6615 10.0808 21.4411 9.43875 21.2614C8.80752 21.0847 8.1845 20.8531 8.01815 20.7889C7.94129 20.7594 7.85968 20.7442 7.77735 20.7441L7.77543 20.7441C7.68663 20.7437 7.59868 20.7614 7.51691 20.796L7.49909 20.8036L4.46964 21.8969C4.47746 21.8937 4.48526 21.8904 4.49303 21.8871L4.21031 21.2311L4.45279 21.903L4.46964 21.8969C4.34388 21.9485 4.21135 21.9819 4.07607 21.996L4.03797 22L3.99968 21.9999C3.84848 21.9994 3.69888 21.969 3.55954 21.9103C3.4202 21.8516 3.29389 21.7659 3.18793 21.658C3.08196 21.5502 2.99845 21.4224 2.94223 21.282C2.88601 21.1417 2.85819 20.9915 2.8604 20.8404L2.86071 20.8189L2.86231 20.7975C2.86962 20.6998 2.88702 20.6031 2.91421 20.509L2.91293 20.5136L3.60134 20.7039L2.91614 20.5023C2.91549 20.5045 2.91485 20.5068 2.91421 20.509L3.7691 17.4166C3.76927 17.4171 3.76943 17.4176 3.76959 17.4181C3.77554 17.4371 3.77693 17.4461 3.77697 17.4461C3.77698 17.4461 3.77689 17.4454 3.77677 17.4441C3.77625 17.4387 3.77323 17.4026 3.78798 17.3484L4.47728 17.5356L3.78882 17.3453L3.78798 17.3484L3.7691 17.4166C3.75352 17.3676 3.72376 17.3026 3.68424 17.2327C3.68538 17.2346 3.68652 17.2365 3.68765 17.2384L4.30094 16.8722L3.68085 17.2268C3.68199 17.2288 3.68312 17.2308 3.68424 17.2327C3.66275 17.1971 3.63954 17.1626 3.6147 17.1293L3.60249 17.1129L3.59123 17.0958C2.55345 15.5219 2.00021 13.6782 2.00006 11.793ZM2.00006 11.793C2.00006 11.7934 2.00006 11.7938 2.00006 11.7941L2.71434 11.7919L2.00006 11.7919C2.00006 11.7923 2.00006 11.7926 2.00006 11.793Z" fill="#C2C2C2"/>
</svg>
