<svg width="24" height="24" viewBox="0 0 24 24" fill="none" xmlns="http://www.w3.org/2000/svg">
<path d="M4.00138 22C3.69775 21.9986 3.40708 21.8768 3.19309 21.6614C2.9791 21.446 2.85927 21.1545 2.85986 20.8509C2.86252 20.7355 2.88053 20.6209 2.91343 20.5103L3.73575 17.5357C3.77013 17.4259 3.73129 17.3152 3.68084 17.2277L3.67102 17.2098C3.66745 17.204 3.65049 17.1804 3.63843 17.1629C3.62638 17.1455 3.61254 17.1268 3.60004 17.1085L3.59156 17.0964C2.55323 15.5227 1.99984 13.6787 2.00004 11.7933C1.992 9.22232 2.99781 6.7933 4.83307 4.95045C6.73218 3.04777 9.27236 2 11.992 2C14.2991 1.99886 16.5378 2.78362 18.3393 4.225C20.1005 5.64241 21.3246 7.61786 21.7862 9.79107C21.9283 10.4513 21.9998 11.1247 21.9996 11.8C21.9996 14.4308 20.9889 16.9018 19.1532 18.7585C17.3014 20.6335 14.8148 21.6629 12.1518 21.6629C11.2143 21.6629 10.0148 21.4237 9.43888 21.2612C8.74602 21.0674 8.08932 20.8147 8.017 20.7879C7.94046 20.7586 7.85923 20.7435 7.77727 20.7433C7.68838 20.7428 7.6003 20.7602 7.51834 20.7946L7.4804 20.8094L4.4679 21.8978C4.31994 21.9601 4.16182 21.9947 4.00138 22Z" fill="#5C5C5C"/>
</svg>
