<svg width="24" height="24" viewBox="0 0 24 24" fill="none" xmlns="http://www.w3.org/2000/svg">
<path d="M18.4686 22.4765H18.4686C18.5839 22.4763 18.6974 22.4487 18.7999 22.396C18.9024 22.3432 18.9908 22.2668 19.058 22.1731C19.1251 22.0794 19.169 21.9711 19.1859 21.8571C19.2029 21.7431 19.1926 21.6267 19.1557 21.5175L16.8058 14.5551L16.8002 14.5383L16.8148 14.5283L22.9109 10.3517C23.0389 10.264 23.1355 10.1376 23.1865 9.99108C23.2375 9.84451 23.2402 9.68547 23.1943 9.53724C23.1483 9.389 23.0561 9.25938 22.9312 9.16734C22.8062 9.0753 22.6551 9.02569 22.4999 9.02576H14.9821H14.9651L14.9598 9.00957L12.6911 2.02519L12.6911 2.02518C12.6437 1.87915 12.5513 1.75187 12.4272 1.6616C12.303 1.57133 12.1534 1.52271 11.9999 1.52271C11.8464 1.52271 11.6968 1.57133 11.5727 1.6616C11.4485 1.75187 11.3561 1.87915 11.3088 2.02518L11.3088 2.02519L9.04002 9.00723L9.03475 9.02342H9.01773H1.49997C1.34498 9.02383 1.19418 9.07379 1.0696 9.166C0.945028 9.25822 0.853206 9.38786 0.807553 9.53597C0.761901 9.68409 0.76481 9.84293 0.815857 9.98927C0.866904 10.1356 0.963413 10.2618 1.09128 10.3494L1.09129 10.3494L7.18504 14.5283L7.19967 14.5383L7.19399 14.5551L4.84274 21.5194L4.82054 21.5119L4.84274 21.5194C4.79334 21.6654 4.79165 21.8233 4.83792 21.9703C4.88418 22.1174 4.97601 22.2459 5.10012 22.3373C5.22423 22.4287 5.3742 22.4782 5.52833 22.4788C5.68247 22.4794 5.83279 22.4309 5.95756 22.3404L5.97132 22.3594L5.95756 22.3404L11.9862 17.9698L11.9999 17.9598L12.0137 17.9698L18.0422 22.3403L18.4686 22.4765ZM18.4686 22.4765C18.3157 22.4771 18.1665 22.4295 18.0423 22.3404L18.4686 22.4765Z" fill="#3841A1" stroke="#C2C2C2" stroke-width="0.046875"/>
</svg>
