<svg width="24" height="24" viewBox="0 0 24 24" fill="none" xmlns="http://www.w3.org/2000/svg">
<path fill-rule="evenodd" clip-rule="evenodd" d="M7.45687 3C4.54489 3 2.27928 5.42838 2.25004 8.28028C2.19407 13.8429 6.66389 17.6912 11.1569 20.7407C11.4056 20.9097 11.6993 21.0001 12 21.0001C12.3007 21.0001 12.5944 20.9097 12.8431 20.7407C17.3357 17.6912 21.8054 13.8428 21.75 8.28028C21.7207 5.42838 19.4551 3 16.5431 3C14.7557 3 13.441 3.88475 12.602 4.71777C12.3684 4.94972 12.1679 5.18108 12 5.39441C11.8321 5.18108 11.6316 4.94972 11.398 4.71777C10.559 3.88475 9.24426 3 7.45687 3ZM14.4984 5.10662C15.0604 4.75122 15.7407 4.5 16.5431 4.5C18.5773 4.5 20.2285 6.20963 20.25 8.29545C20.2966 12.9825 16.5324 16.4235 12.0007 19.4996L11.9993 19.4996C7.46709 16.4235 3.70288 12.9825 3.74996 8.29551C3.77142 6.20966 5.42265 4.5 7.45687 4.5C8.71261 4.5 9.66941 5.11525 10.3412 5.78223C10.4909 5.93084 10.624 6.07984 10.7404 6.22156L14.4984 5.10662Z" fill="#C2C2C2"/>
<path d="M12.9053 6.69831C13.0728 6.44793 13.3245 6.11413 13.6588 5.78223C13.9013 5.54145 14.181 5.30741 14.4984 5.10662L10.7404 6.22156C10.884 6.39634 11.0022 6.56004 11.0947 6.69831C11.1781 6.82288 11.2394 6.92508 11.2787 6.9937C11.2983 7.02796 11.3123 7.0537 11.3208 7.0695L11.3296 7.08634C11.4569 7.33989 11.7163 7.5 12 7.5C12.2839 7.5 12.5437 7.3393 12.6708 7.0855L12.6792 7.0695C12.6877 7.0537 12.7017 7.02796 12.7213 6.9937C12.7606 6.92508 12.8219 6.82288 12.9053 6.69831Z" fill="#C2C2C2"/>
</svg>
