<svg width="24" height="24" viewBox="0 0 24 24" fill="none" xmlns="http://www.w3.org/2000/svg">
<path d="M11.1695 20.7195L11.1694 20.7195C7.48724 18.2199 5.89379 16.5067 5.01548 15.4365C3.14338 13.1549 2.2482 10.814 2.27345 8.27977C2.30286 5.38068 4.6287 3.02344 7.45689 3.02344C9.51354 3.02344 10.9387 4.18181 11.7699 5.14856L11.77 5.14865C11.7986 5.18158 11.8339 5.20799 11.8736 5.22608C11.9133 5.24418 11.9564 5.25355 12 5.25355C12.0436 5.25355 12.0867 5.24418 12.1264 5.22608C12.1661 5.20799 12.2015 5.18158 12.2301 5.14865L12.2301 5.14855C13.0613 4.18088 14.4865 3.02344 16.5431 3.02344C19.3713 3.02344 21.6972 5.38068 21.7266 8.28024C21.7518 10.815 20.8557 13.1558 18.9846 15.437C18.1062 16.5072 16.5128 18.2204 12.8306 20.72L12.8306 20.72C12.5857 20.8869 12.2963 20.9763 12 20.9766C11.7036 20.9762 11.4143 20.8866 11.1695 20.7195ZM12.2124 5.13328C13.0458 4.16297 14.4769 3 16.5431 3C19.3847 3 21.7205 5.36812 21.75 8.28C21.7753 10.8211 20.8767 13.1672 19.0027 15.4519C18.1228 16.5239 16.5277 18.2386 12.8438 20.7394C12.595 20.9089 12.301 20.9998 12 21L12.2124 5.13328Z" fill="#EB5757" stroke="#C2C2C2" stroke-width="0.046875"/>
</svg>
