<svg width="24" height="24" viewBox="0 0 24 24" fill="none" xmlns="http://www.w3.org/2000/svg">
<path d="M12 22.5C12.6774 22.4994 13.3419 22.3155 13.9233 21.9679C14.5046 21.6202 14.981 21.1216 15.3019 20.5251C15.317 20.4965 15.3245 20.4645 15.3236 20.4322C15.3226 20.3999 15.3134 20.3683 15.2967 20.3406C15.28 20.3129 15.2564 20.29 15.2282 20.2742C15.2001 20.2583 15.1683 20.2499 15.1359 20.25H8.865C8.83262 20.2499 8.80076 20.2581 8.77253 20.274C8.7443 20.2898 8.72066 20.3127 8.7039 20.3404C8.68714 20.3681 8.67785 20.3997 8.67692 20.4321C8.67599 20.4644 8.68346 20.4965 8.69859 20.5251C9.01947 21.1216 9.49577 21.6201 10.077 21.9677C10.6582 22.3154 11.3227 22.4993 12 22.5Z" fill="#5C5C5C"/>
<path d="M20.6289 15.9989C20.551 15.9052 20.4746 15.8114 20.3996 15.7209C19.3684 14.4736 18.7445 13.7208 18.7445 10.1897C18.7445 8.36156 18.3071 6.86156 17.4451 5.73656C16.8095 4.90547 15.9503 4.275 14.8178 3.80906C14.8032 3.80096 14.7902 3.79032 14.7793 3.77766C14.372 2.41359 13.2573 1.5 12.0001 1.5C10.7429 1.5 9.6287 2.41359 9.22136 3.77625C9.21049 3.78845 9.19765 3.79875 9.18339 3.80672C6.54058 4.89469 5.2562 6.98203 5.2562 10.1883C5.2562 13.7208 4.63323 14.4736 3.60105 15.7195C3.52605 15.81 3.44964 15.9019 3.37183 15.9975C3.17083 16.2399 3.04348 16.5348 3.00485 16.8473C2.96622 17.1598 3.01793 17.4769 3.15386 17.7609C3.44308 18.3703 4.05948 18.7486 4.76308 18.7486H19.2423C19.9426 18.7486 20.5548 18.3708 20.845 17.7642C20.9815 17.4801 21.0337 17.1628 20.9954 16.8499C20.9571 16.537 20.8299 16.2417 20.6289 15.9989Z" fill="#5C5C5C"/>
</svg>
