<svg width="24" height="24" viewBox="0 0 24 24" fill="none" xmlns="http://www.w3.org/2000/svg">
<path d="M16.6307 17.5886H16.6332C16.7031 17.5889 16.7721 17.5733 16.8349 17.5429C16.897 17.5128 16.9515 17.4691 16.9943 17.4151C17.0435 17.3501 17.0775 17.275 17.094 17.1953C17.1107 17.1146 17.1089 17.0312 17.0888 16.9513L17.088 16.9483C16.8307 15.8975 16.1918 15.0299 15.223 14.4341L15.2229 14.434C14.3533 13.899 13.2652 13.607 12.0701 13.607C10.9019 13.607 9.78206 13.9117 8.91692 14.4474L16.6307 17.5886ZM16.6307 17.5886L7.50991 17.5886L7.50724 17.5886M16.6307 17.5886L7.50724 17.5886M7.50724 17.5886C7.43708 17.5889 7.36778 17.5732 7.30465 17.5426C7.2423 17.5124 7.18763 17.4684 7.14472 17.414M7.50724 17.5886L7.14472 17.414M16.571 13.4205C17.4977 14.1714 18.1428 15.1534 18.4467 16.2965H22.1103H22.1126C22.17 16.2968 22.2268 16.2838 22.2785 16.2587C22.3296 16.2339 22.3743 16.1979 22.4094 16.1534C22.4496 16.1002 22.4775 16.0387 22.4909 15.9733C22.5044 15.9072 22.5029 15.8389 22.4863 15.7735L22.4858 15.7716C22.2792 14.942 21.7695 14.2507 20.9918 13.768L16.571 13.4205ZM16.571 13.4205C17.0733 13.2105 17.724 13.095 18.4679 13.095C19.4046 13.095 20.3009 13.3401 20.9915 13.7678L16.571 13.4205ZM7.14472 17.414C7.09569 17.3491 7.0618 17.274 7.04554 17.1943C7.0291 17.1137 7.0311 17.0304 7.05141 16.9507L7.05206 16.9481C7.31021 15.9115 7.94796 15.0477 8.91683 14.4475L7.14472 17.414ZM9.73214 8.96062L9.73214 8.96059C9.6807 8.23277 9.90284 7.59009 10.3306 7.13092C10.76 6.66988 11.3669 6.41143 12.0701 6.41143C12.765 6.41143 13.3747 6.67375 13.804 7.13492L13.804 7.13493C14.2364 7.59948 14.4579 8.24134 14.4067 8.95994C14.3566 9.6511 14.0809 10.2911 13.64 10.765C13.1864 11.2522 12.6272 11.5 12.0701 11.5C11.5136 11.5 10.9538 11.2524 10.4986 10.7652C10.0566 10.2904 9.78083 9.65007 9.73214 8.96062ZM16.6307 18.0886H7.50991C7.36327 18.0893 7.21841 18.0565 7.08646 17.9925L16.6307 18.0886ZM4.13355 8.1011L4.13367 8.10096C4.47769 7.731 4.96936 7.51844 5.53181 7.51844C6.09202 7.51844 6.57961 7.73082 6.92747 8.10505L6.92763 8.10522C7.27949 8.4834 7.46017 9.00149 7.41773 9.5795L7.41766 9.58051C7.33278 10.7693 6.42881 11.6384 5.53181 11.6384C4.63268 11.6384 3.72872 10.769 3.64359 9.58045C3.60332 8.99413 3.786 8.47458 4.13355 8.1011ZM7.42901 13.605C6.50234 14.3559 5.85717 15.3379 5.55328 16.481L1.88972 16.481L1.88745 16.481C1.82996 16.4813 1.77318 16.4683 1.72147 16.4432C1.67043 16.4184 1.62567 16.3824 1.59055 16.3379C1.55034 16.2847 1.52252 16.2232 1.50912 16.1578C1.49557 16.0917 1.49714 16.0234 1.51371 15.958L1.5142 15.9561C1.72081 15.1264 2.2306 14.435 3.00853 13.9523C3.69907 13.5246 4.59539 13.2795 5.53214 13.2795C6.27604 13.2795 6.92672 13.395 7.42901 13.605ZM19.8642 7.91646L19.8643 7.9166C20.2118 8.28999 20.3945 8.80939 20.3543 9.39554C20.2694 10.5843 19.3653 11.4539 18.4661 11.4539C17.5691 11.4539 16.6651 10.5848 16.5802 9.396L16.5802 9.395C16.5377 8.81699 16.7184 8.2989 17.0703 7.92072L17.0704 7.92055C17.4183 7.54631 17.9059 7.33394 18.4661 7.33394C19.0285 7.33394 19.5202 7.5465 19.8642 7.91646Z" stroke="#858585"/>
</svg>
