<svg width="24" height="24" viewBox="0 0 24 24" fill="none" xmlns="http://www.w3.org/2000/svg">
<path fill-rule="evenodd" clip-rule="evenodd" d="M16.6497 12.8578C16.593 12.8766 16.5373 12.8965 16.4828 12.9174C16.4808 12.9181 16.4788 12.9189 16.4769 12.9196C16.3798 12.957 16.2863 12.9975 16.1968 13.0413C16.1258 13.0759 16.0636 13.1094 16.0093 13.1413C15.9695 13.1646 15.9363 13.1974 15.9124 13.2368C15.8886 13.2762 15.875 13.321 15.8728 13.367C15.8707 13.413 15.88 13.4588 15.9 13.5003C15.9201 13.5417 15.9501 13.5776 15.9875 13.6045C17.0031 14.3303 17.6905 15.3259 17.9839 16.5042C17.9894 16.5256 17.9943 16.5474 17.9981 16.5692C18.0097 16.633 18.0433 16.6907 18.093 16.7322C18.1428 16.7737 18.2055 16.7965 18.2703 16.7965H22.1103C22.2442 16.7971 22.3765 16.767 22.497 16.7085C22.6175 16.6499 22.723 16.5645 22.8053 16.4589C22.892 16.3454 22.952 16.2137 22.9807 16.0738C23.0094 15.9338 23.0061 15.7892 22.971 15.6507C22.7312 14.688 22.1376 13.8906 21.2551 13.343C20.4767 12.8607 19.487 12.595 18.4679 12.595C17.8014 12.595 17.1833 12.6818 16.6574 12.8552C16.6548 12.8561 16.6523 12.8569 16.6497 12.8578ZM17.559 13.6641C18.1238 14.2795 18.5507 14.9978 18.8184 15.7965H21.9749C21.7873 15.1421 21.3702 14.5913 20.728 14.1928M17.559 13.6641C17.8327 13.6195 18.137 13.595 18.4679 13.595C19.3222 13.595 20.1253 13.8195 20.728 14.1928" fill="#858585"/>
<path fill-rule="evenodd" clip-rule="evenodd" d="M3.76751 7.76048C3.31778 8.24376 3.09569 8.90278 3.14481 9.61542C3.2441 11.0065 4.31444 12.1384 5.53181 12.1384C6.7471 12.1384 7.8171 11.0068 7.91638 9.61611C7.96827 8.90936 7.74687 8.25172 7.29369 7.76464C6.84639 7.28343 6.22369 7.01844 5.53181 7.01844C4.83993 7.01844 4.21239 7.28205 3.76751 7.76048ZM4.14236 9.54544C4.21331 10.5315 4.95083 11.1384 5.53181 11.1384C6.11051 11.1384 6.84846 10.5318 6.91892 9.5449L6.91906 9.54289C6.95205 9.09362 6.8121 8.71508 6.56156 8.4458L6.56125 8.44547C6.31281 8.1782 5.96033 8.01844 5.53181 8.01844C5.09879 8.01844 4.74298 8.17995 4.49983 8.44144L4.49957 8.44172C4.25418 8.70542 4.11096 9.0855 4.14236 9.54544Z" fill="#858585"/>
<path fill-rule="evenodd" clip-rule="evenodd" d="M14.17 6.79427C13.64 6.22485 12.8945 5.91143 12.0701 5.91143C11.2398 5.91143 10.4964 6.21931 9.96471 6.79012C9.433 7.36092 9.17319 8.14413 9.23339 8.99584C9.28977 9.79427 9.60943 10.5439 10.1328 11.1061C10.6711 11.6824 11.3589 12 12.0701 12C12.7817 12 13.4691 11.6824 14.006 11.1057C14.5284 10.5443 14.8477 9.79496 14.9054 8.99549C14.9656 8.15105 14.7051 7.36922 14.17 6.79427ZM13.908 8.92374C13.9501 8.33127 13.7675 7.8296 13.438 7.4756L13.438 7.47557C13.1095 7.12266 12.6355 6.91143 12.0701 6.91143C11.494 6.91143 11.0236 7.12045 10.6964 7.47172C10.3727 7.81925 10.1882 8.32142 10.2309 8.92534L10.2309 8.92539C10.2719 9.50573 10.5037 10.0367 10.8642 10.4241C11.2363 10.8222 11.6682 11 12.0701 11C12.4726 11 12.9036 10.8221 13.2739 10.4246M13.908 8.92374C13.8658 9.50683 13.6335 10.0379 13.2741 10.4243L13.908 8.92374Z" fill="#858585"/>
<path fill-rule="evenodd" clip-rule="evenodd" d="M20.2304 7.57598C19.7855 7.09754 19.158 6.83393 18.4661 6.83393C17.7742 6.83393 17.1515 7.09893 16.7042 7.58013C16.251 8.06722 16.0296 8.72485 16.0815 9.43161C16.1808 10.8223 17.2508 11.9539 18.4661 11.9539C19.6834 11.9539 20.7538 10.8219 20.8531 9.43092C20.9022 8.71828 20.6801 8.05926 20.2304 7.57598ZM19.8555 9.3609C19.7846 10.347 19.0471 10.9539 18.4661 10.9539C17.8874 10.9539 17.1494 10.3473 17.079 9.3604L17.0788 9.35838C17.0458 8.90912 17.1858 8.53057 17.4363 8.2613L17.4366 8.26097C17.6851 7.9937 18.0376 7.83393 18.4661 7.83393C18.8991 7.83393 19.2549 7.99545 19.4981 8.25694L19.4983 8.25721C19.7437 8.52091 19.8869 8.90098 19.8555 9.3609Z" fill="#858585"/>
<path fill-rule="evenodd" clip-rule="evenodd" d="M16.6051 17.0886C16.6056 17.0834 16.6051 17.0782 16.6039 17.0732L16.6024 17.0672C16.3776 16.1495 15.8226 15.3898 14.9611 14.86C14.1805 14.3797 13.1854 14.107 12.0701 14.107C10.984 14.107 9.95746 14.3912 9.18024 14.8725M16.6051 17.0886H7.53465C7.5343 17.0837 7.53473 17.0788 7.53594 17.0741L7.53723 17.0689C7.76226 16.1654 8.3163 15.4077 9.18024 14.8725M17.3896 17.7212C17.4855 17.596 17.5518 17.4507 17.5837 17.2963C17.6156 17.1419 17.6121 16.9823 17.5737 16.8293C17.2838 15.6455 16.5611 14.67 15.4849 14.0082C14.5263 13.4184 13.3449 13.107 12.0701 13.107C10.8199 13.107 9.60666 13.4322 8.65359 14.0224C7.57979 14.6876 6.85815 15.6576 6.56687 16.8273C6.52795 16.9801 6.52411 17.1397 6.55562 17.2942C6.58713 17.4487 6.65319 17.5941 6.74884 17.7194C6.83901 17.8351 6.95451 17.9285 7.08646 17.9925C7.2184 18.0565 7.36327 18.0893 7.50991 18.0886H16.6307C16.7768 18.0893 16.9212 18.0566 17.0528 17.9929C17.1843 17.9292 17.2996 17.8363 17.3896 17.7212Z" fill="#858585"/>
<path fill-rule="evenodd" clip-rule="evenodd" d="M7.52314 13.1041C7.52117 13.1034 7.5192 13.1026 7.51723 13.1019C7.4627 13.081 7.40704 13.0611 7.3503 13.0423C7.34774 13.0414 7.34517 13.0406 7.3426 13.0397C6.81669 12.8663 6.19862 12.7795 5.53214 12.7795C4.51299 12.7795 3.52326 13.0452 2.74489 13.5275C1.86239 14.0751 1.26876 14.8725 1.02902 15.8352C0.993936 15.9737 0.990618 16.1183 1.01931 16.2583C1.04801 16.3982 1.10797 16.5299 1.19473 16.6434C1.27704 16.749 1.3825 16.8344 1.50298 16.893C1.62347 16.9515 1.75577 16.9816 1.88972 16.981H5.72967C5.79448 16.981 5.85724 16.9582 5.90699 16.9167C5.95674 16.8752 5.99034 16.8175 6.00193 16.7537C6.00573 16.7319 6.01057 16.7101 6.01611 16.6887C6.30947 15.5104 6.99685 14.5148 8.01254 13.789C8.04989 13.7621 8.07994 13.7262 8.09996 13.6848C8.11997 13.6433 8.12932 13.5975 8.12715 13.5515C8.12499 13.5055 8.11138 13.4607 8.08756 13.4213C8.06374 13.3819 8.03046 13.3491 7.99074 13.3258C7.93643 13.294 7.87416 13.2604 7.80324 13.2258C7.7137 13.182 7.62023 13.1415 7.52314 13.1041ZM5.18157 15.981C5.44935 15.1823 5.87619 14.464 6.44099 13.8486C6.16731 13.804 5.86302 13.7795 5.53214 13.7795C4.67767 13.7795 3.87464 14.004 3.27187 14.3773C2.6298 14.7759 2.21273 15.3266 2.02506 15.981H5.18157Z" fill="#858585"/>
</svg>
