<svg width="24" height="24" viewBox="0 0 24 24" fill="none" xmlns="http://www.w3.org/2000/svg">
<path d="M12.0701 12C11.3588 12 10.6711 11.6824 10.1328 11.1061C9.60942 10.5439 9.28977 9.79427 9.23338 8.99584C9.17319 8.14413 9.43299 7.36092 9.9647 6.79012C10.4964 6.21931 11.2398 5.91143 12.0701 5.91143C12.8945 5.91143 13.64 6.22485 14.17 6.79427C14.7051 7.36922 14.9656 8.15105 14.9054 8.99549C14.8477 9.79496 14.5284 10.5443 14.006 11.1057C13.4691 11.6824 12.7817 12 12.0701 12Z" fill="#3841A1"/>
<path d="M16.6307 18.0886H7.50991C7.36327 18.0893 7.21841 18.0565 7.08646 17.9925C6.95452 17.9285 6.83902 17.8351 6.74884 17.7194C6.65319 17.5941 6.58713 17.4487 6.55562 17.2942C6.52411 17.1397 6.52796 16.9801 6.56688 16.8273C6.85816 15.6576 7.57979 14.6876 8.65359 14.0224C9.60666 13.4322 10.8199 13.107 12.0701 13.107C13.3449 13.107 14.5263 13.4184 15.4849 14.0082C16.5611 14.67 17.2838 15.6455 17.5737 16.8293C17.6121 16.9823 17.6156 17.1419 17.5837 17.2963C17.5518 17.4507 17.4855 17.596 17.3897 17.7212C17.2996 17.8363 17.1843 17.9292 17.0528 17.9929C16.9212 18.0566 16.7768 18.0893 16.6307 18.0886Z" fill="#3841A1"/>
<path d="M5.53181 12.1384C4.31445 12.1384 3.2441 11.0065 3.14482 9.61542C3.09569 8.90278 3.31779 8.24376 3.76751 7.76048C4.21239 7.28205 4.83993 7.01844 5.53181 7.01844C6.2237 7.01844 6.84639 7.28343 7.29369 7.76463C7.74688 8.25172 7.96828 8.90935 7.91639 9.61611C7.8171 11.0068 6.74711 12.1384 5.53181 12.1384Z" fill="#3841A1"/>
<path d="M7.80324 13.2258C7.19473 12.9283 6.40495 12.7795 5.53214 12.7795C4.51299 12.7795 3.52326 13.0452 2.74489 13.5275C1.86239 14.0751 1.26876 14.8725 1.02902 15.8352C0.993936 15.9737 0.990618 16.1183 1.01931 16.2583C1.04801 16.3982 1.10797 16.5299 1.19473 16.6434C1.27704 16.749 1.3825 16.8344 1.50298 16.893C1.62347 16.9515 1.75577 16.9816 1.88972 16.981H5.72967C5.79448 16.981 5.85724 16.9582 5.90699 16.9167C5.95674 16.8752 5.99034 16.8175 6.00193 16.7537C6.00573 16.7319 6.01057 16.7101 6.01611 16.6887C6.30947 15.5104 6.99685 14.5148 8.01254 13.789C8.04989 13.7621 8.07994 13.7262 8.09996 13.6848C8.11997 13.6433 8.12932 13.5975 8.12715 13.5515C8.12499 13.5055 8.11138 13.4607 8.08756 13.4213C8.06374 13.3819 8.03046 13.3491 7.99074 13.3258C7.93643 13.294 7.87416 13.2604 7.80324 13.2258Z" fill="#3841A1"/>
<path d="M18.4661 11.9539C19.6834 11.9539 20.7538 10.8219 20.8531 9.43092C20.9022 8.71828 20.6801 8.05926 20.2304 7.57598C19.7855 7.09754 19.158 6.83394 18.4661 6.83394C17.7742 6.83394 17.1515 7.09893 16.7042 7.58013C16.251 8.06722 16.0296 8.72485 16.0815 9.43161C16.1808 10.8223 17.2508 11.9539 18.4661 11.9539Z" fill="#3841A1"/>
<path d="M16.1968 13.0413C16.8053 12.7438 17.5951 12.595 18.4679 12.595C19.487 12.595 20.4767 12.8607 21.2551 13.343C22.1376 13.8906 22.7312 14.688 22.971 15.6507C23.0061 15.7892 23.0094 15.9338 22.9807 16.0738C22.952 16.2137 22.892 16.3454 22.8053 16.4589C22.723 16.5645 22.6175 16.6499 22.497 16.7085C22.3765 16.767 22.2442 16.7971 22.1103 16.7965H18.2703C18.2055 16.7965 18.1428 16.7737 18.093 16.7322C18.0433 16.6907 18.0097 16.633 17.9981 16.5692C17.9943 16.5474 17.9894 16.5256 17.9839 16.5042C17.6905 15.3259 17.0031 14.3303 15.9875 13.6045C15.9501 13.5776 15.9201 13.5417 15.9 13.5003C15.88 13.4588 15.8707 13.413 15.8728 13.367C15.875 13.321 15.8886 13.2762 15.9124 13.2368C15.9363 13.1974 15.9695 13.1646 16.0093 13.1413C16.0636 13.1094 16.1258 13.0759 16.1968 13.0413Z" fill="#3841A1"/>
</svg>
