<svg width="24" height="24" viewBox="0 0 24 24" fill="none" xmlns="http://www.w3.org/2000/svg">
<path d="M15.6096 5.68804L16.625 6.50039V5.2V3.625H19.375V8.4V8.70039L19.6096 8.88804L21.375 10.3004V21.375H15.125V14.5C15.125 13.8787 14.6213 13.375 14 13.375H10C9.37868 13.375 8.875 13.8787 8.875 14.5V21.375H2.625V10.3004L12 2.80039L15.6096 5.68804Z" stroke="#858585" stroke-width="1.25"/>
<path d="M2.625 10.3004L12 2.8004L15.6096 5.68805L19.6096 8.88805L21.375 10.3004V21.375H15.125V14.5C15.125 13.8787 14.6213 13.375 14 13.375H10C9.37868 13.375 8.875 13.8787 8.875 14.5V21.375H2.625V10.3004Z" stroke="#858585" stroke-width="1.25"/>
</svg>
