<svg width="24" height="24" viewBox="0 0 24 24" fill="none" xmlns="http://www.w3.org/2000/svg">
<path d="M11.6877 2.24988C11.8703 2.10379 12.1297 2.10379 12.3123 2.24988L16 5.2V3.5C16 3.22386 16.2239 3 16.5 3H19.5C19.7761 3 20 3.22386 20 3.5V8.4L21.8123 9.84988C21.931 9.94476 22 10.0884 22 10.2403V21.5C22 21.7761 21.7761 22 21.5 22H15C14.7239 22 14.5 21.7761 14.5 21.5V14.5C14.5 14.2239 14.2761 14 14 14H10C9.72386 14 9.5 14.2239 9.5 14.5V21.5C9.5 21.7761 9.27614 22 9 22H2.5C2.22386 22 2 21.7761 2 21.5V10.2403C2 10.0884 2.06904 9.94476 2.18765 9.84988L11.6877 2.24988Z" fill="#3841A1"/>
</svg>
